<mxfile host="app.diagrams.net" agent="Mozilla/5.0 (Windows NT 10.0; Win64; x64) AppleWebKit/537.36 (KHTML, like Gecko) Chrome/126.0.0.0 Whale/3.27.254.15 Safari/537.36" version="24.7.7">
  <diagram name="페이지-1" id="KaErvKX7ANrOWd9ukhf5">
    <mxGraphModel dx="1687" dy="891" grid="0" gridSize="10" guides="1" tooltips="1" connect="1" arrows="1" fold="1" page="1" pageScale="1" pageWidth="827" pageHeight="1169" math="0" shadow="0">
      <root>
        <mxCell id="0" />
        <mxCell id="1" parent="0" />
        <mxCell id="gsk0wDziKHdw3YsIVp2X-1" value="" style="rounded=0;whiteSpace=wrap;html=1;" vertex="1" parent="1">
          <mxGeometry x="1054" y="94.5" width="120" height="160" as="geometry" />
        </mxCell>
        <mxCell id="gsk0wDziKHdw3YsIVp2X-2" value="" style="rounded=0;whiteSpace=wrap;html=1;" vertex="1" parent="1">
          <mxGeometry x="1054" y="94.5" width="120" height="20" as="geometry" />
        </mxCell>
        <mxCell id="gsk0wDziKHdw3YsIVp2X-3" value="&lt;b&gt;메모리&lt;/b&gt;" style="text;html=1;align=center;verticalAlign=middle;whiteSpace=wrap;rounded=0;" vertex="1" parent="1">
          <mxGeometry x="1084" y="54.5" width="60" height="30" as="geometry" />
        </mxCell>
        <mxCell id="gsk0wDziKHdw3YsIVp2X-4" value="" style="shape=curlyBracket;whiteSpace=wrap;html=1;rounded=1;labelPosition=left;verticalLabelPosition=middle;align=right;verticalAlign=middle;size=0.5;" vertex="1" parent="1">
          <mxGeometry x="1024" y="124.5" width="20" height="100" as="geometry" />
        </mxCell>
        <mxCell id="gsk0wDziKHdw3YsIVp2X-5" value="1011" style="rounded=0;whiteSpace=wrap;html=1;fillColor=#f8cecc;strokeColor=#b85450;" vertex="1" parent="1">
          <mxGeometry x="1054" y="114.5" width="120" height="20" as="geometry" />
        </mxCell>
        <mxCell id="gsk0wDziKHdw3YsIVp2X-6" value="1111" style="rounded=0;whiteSpace=wrap;html=1;fillColor=#f8cecc;strokeColor=#b85450;" vertex="1" parent="1">
          <mxGeometry x="1054" y="134.5" width="120" height="20" as="geometry" />
        </mxCell>
        <mxCell id="gsk0wDziKHdw3YsIVp2X-7" value="" style="rounded=0;whiteSpace=wrap;html=1;fillColor=#f8cecc;strokeColor=#b85450;" vertex="1" parent="1">
          <mxGeometry x="1054" y="154.5" width="120" height="20" as="geometry" />
        </mxCell>
        <mxCell id="gsk0wDziKHdw3YsIVp2X-8" value="" style="rounded=0;whiteSpace=wrap;html=1;fillColor=#f8cecc;strokeColor=#b85450;" vertex="1" parent="1">
          <mxGeometry x="1054" y="174.5" width="120" height="20" as="geometry" />
        </mxCell>
        <mxCell id="gsk0wDziKHdw3YsIVp2X-9" value="" style="rounded=0;whiteSpace=wrap;html=1;fillColor=#f8cecc;strokeColor=#b85450;" vertex="1" parent="1">
          <mxGeometry x="1054" y="194.5" width="120" height="20" as="geometry" />
        </mxCell>
        <mxCell id="gsk0wDziKHdw3YsIVp2X-10" value="1000" style="rounded=0;whiteSpace=wrap;html=1;fillColor=#f8cecc;strokeColor=#b85450;" vertex="1" parent="1">
          <mxGeometry x="1054" y="214.5" width="120" height="20" as="geometry" />
        </mxCell>
        <mxCell id="gsk0wDziKHdw3YsIVp2X-11" value="실행할 프로그램" style="text;html=1;align=center;verticalAlign=middle;whiteSpace=wrap;rounded=0;" vertex="1" parent="1">
          <mxGeometry x="964" y="159.5" width="60" height="30" as="geometry" />
        </mxCell>
        <mxCell id="gsk0wDziKHdw3YsIVp2X-12" value="2000번지" style="text;html=1;align=center;verticalAlign=middle;whiteSpace=wrap;rounded=0;" vertex="1" parent="1">
          <mxGeometry x="1184" y="117" width="60" height="15" as="geometry" />
        </mxCell>
        <mxCell id="gsk0wDziKHdw3YsIVp2X-13" value="2001번지" style="text;html=1;align=center;verticalAlign=middle;whiteSpace=wrap;rounded=0;" vertex="1" parent="1">
          <mxGeometry x="1184" y="137" width="60" height="15" as="geometry" />
        </mxCell>
        <mxCell id="gsk0wDziKHdw3YsIVp2X-14" value="2500번지" style="text;html=1;align=center;verticalAlign=middle;whiteSpace=wrap;rounded=0;" vertex="1" parent="1">
          <mxGeometry x="1184" y="217" width="60" height="15" as="geometry" />
        </mxCell>
        <mxCell id="gsk0wDziKHdw3YsIVp2X-15" value="&lt;b&gt;&lt;font style=&quot;font-size: 30px;&quot;&gt;.....&lt;/font&gt;&lt;/b&gt;" style="text;html=1;align=center;verticalAlign=middle;whiteSpace=wrap;rounded=0;horizontal=0;" vertex="1" parent="1">
          <mxGeometry x="1174" y="159.5" width="60" height="50" as="geometry" />
        </mxCell>
        <mxCell id="gsk0wDziKHdw3YsIVp2X-20" value="" style="rounded=0;whiteSpace=wrap;html=1;" vertex="1" parent="1">
          <mxGeometry x="453.26" y="80.5" width="120" height="160" as="geometry" />
        </mxCell>
        <mxCell id="gsk0wDziKHdw3YsIVp2X-21" value="" style="rounded=0;whiteSpace=wrap;html=1;" vertex="1" parent="1">
          <mxGeometry x="453.26" y="80.5" width="120" height="20" as="geometry" />
        </mxCell>
        <mxCell id="gsk0wDziKHdw3YsIVp2X-22" value="&lt;b&gt;메모리&lt;/b&gt;" style="text;html=1;align=center;verticalAlign=middle;whiteSpace=wrap;rounded=0;" vertex="1" parent="1">
          <mxGeometry x="483.26" y="40.5" width="60" height="30" as="geometry" />
        </mxCell>
        <mxCell id="gsk0wDziKHdw3YsIVp2X-23" value="1101" style="rounded=0;whiteSpace=wrap;html=1;fillColor=#f8cecc;strokeColor=#b85450;" vertex="1" parent="1">
          <mxGeometry x="453.26" y="100.5" width="120" height="20" as="geometry" />
        </mxCell>
        <mxCell id="gsk0wDziKHdw3YsIVp2X-24" value="1111" style="rounded=0;whiteSpace=wrap;html=1;fillColor=#f8cecc;strokeColor=#b85450;" vertex="1" parent="1">
          <mxGeometry x="453.26" y="120.5" width="120" height="20" as="geometry" />
        </mxCell>
        <mxCell id="gsk0wDziKHdw3YsIVp2X-25" value="" style="rounded=0;whiteSpace=wrap;html=1;fillColor=#f8cecc;strokeColor=#b85450;" vertex="1" parent="1">
          <mxGeometry x="453.26" y="140.5" width="120" height="20" as="geometry" />
        </mxCell>
        <mxCell id="gsk0wDziKHdw3YsIVp2X-26" value="" style="rounded=0;whiteSpace=wrap;html=1;fillColor=#f8cecc;strokeColor=#b85450;" vertex="1" parent="1">
          <mxGeometry x="453.26" y="160.5" width="120" height="20" as="geometry" />
        </mxCell>
        <mxCell id="gsk0wDziKHdw3YsIVp2X-27" value="" style="rounded=0;whiteSpace=wrap;html=1;fillColor=#f8cecc;strokeColor=#b85450;" vertex="1" parent="1">
          <mxGeometry x="453.26" y="180.5" width="120" height="20" as="geometry" />
        </mxCell>
        <mxCell id="gsk0wDziKHdw3YsIVp2X-28" value="1000" style="rounded=0;whiteSpace=wrap;html=1;fillColor=#f8cecc;strokeColor=#b85450;" vertex="1" parent="1">
          <mxGeometry x="453.26" y="200.5" width="120" height="20" as="geometry" />
        </mxCell>
        <mxCell id="gsk0wDziKHdw3YsIVp2X-29" value="2000번지" style="text;html=1;align=center;verticalAlign=middle;whiteSpace=wrap;rounded=0;" vertex="1" parent="1">
          <mxGeometry x="583.26" y="103" width="60" height="15" as="geometry" />
        </mxCell>
        <mxCell id="gsk0wDziKHdw3YsIVp2X-30" value="2001번지" style="text;html=1;align=center;verticalAlign=middle;whiteSpace=wrap;rounded=0;" vertex="1" parent="1">
          <mxGeometry x="583.26" y="123" width="60" height="15" as="geometry" />
        </mxCell>
        <mxCell id="gsk0wDziKHdw3YsIVp2X-31" value="2500번지" style="text;html=1;align=center;verticalAlign=middle;whiteSpace=wrap;rounded=0;" vertex="1" parent="1">
          <mxGeometry x="583.26" y="203" width="60" height="15" as="geometry" />
        </mxCell>
        <mxCell id="gsk0wDziKHdw3YsIVp2X-32" value="&lt;b&gt;&lt;font style=&quot;font-size: 30px;&quot;&gt;.....&lt;/font&gt;&lt;/b&gt;" style="text;html=1;align=center;verticalAlign=middle;whiteSpace=wrap;rounded=0;horizontal=0;" vertex="1" parent="1">
          <mxGeometry x="573.26" y="145.5" width="60" height="50" as="geometry" />
        </mxCell>
        <mxCell id="gsk0wDziKHdw3YsIVp2X-35" value="" style="shape=image;verticalLabelPosition=bottom;labelBackgroundColor=default;verticalAlign=top;aspect=fixed;imageAspect=0;image=data:image/png,iVBORw0KGgoAAAANSUhEUgAAAWgAAAD5CAYAAAAKqK+HAAAAAXNSR0IArs4c6QAAAARnQU1BAACxjwv8YQUAAAAJcEhZcwAADsMAAA7DAcdvqGQAAFBxSURBVHhe7Z0PXFRV+v8/7WYNZQql61C6iVkrpCWslVB+U1zbFbd2hWoLqq0wSzHLQFuV7B/aVqBp2h8V7WdfqG8F7uaKpYmVCbYWY2WOpTmUFFNajH/Ksaz5nefOAYd/cufMPZfLcN69bt5zmZn7zJlzP+c5zz3nuSf4GFAoFAqF5fgV/1ehUCgUFkMJtEKhUFgUJdAKhUJhUZRAKxQKhUVRAq1QKBQWRQm0QqFQWBQl0AqFQmFR1DxohSIM+fbbb3H06FFeCo5evXrxPTn88MMPOHjwIC8FR/fu3WGz2XhJDl9//TXfC46TTjoJUVFRvGQMSqAVCoXCoqgQh0KhUFgUJdAKhUJhUZRAKxRhyJw5c/hecFx77bV8Tx4lJSX45JNPeEk/S5YswWuvvcZLcjh06BDmz5/PS/r54osvMGXKFF4yDiXQCkUY8uGHH/K94Ni4cSPfk8eePXtQV1fHS/rZtWsXvvrqK16SA91Y3bFjBy/p5/vvv4fD4eAl41ACrVCEIb/88gvfC44TTzyR78lFZG5Cly5dcMIJJ/CSHMguEdt+/etf8z1jUQKtUIQhP//8M98LDllCE4ioCP7qV+bIlRJohUIhFasLtIiHb4ZtVG9Wsk0JtEIRhoguUiEvVVTc9UK2iYgg2Sbi3QaDqEDLsk0JdDhwyIWy5QUoeLwAhWtc8NKxfQ4UP8nKK8tRvsEJj/ZCD5wN+4x9TpRvdfOCIpz46aef+F5wUAxatqdKAigigmbEx8ku0RCHjPi4EugOjwuFN41BKZKReVsmkqI88DCFdm/IR/beeKSNiIF3XSZiJ5fBU1OG3PRS9g4OK+dcUwTj7z0r2hsrhzhExJkggZZ9k9BqnYcS6I7O5mLknpiLvFviERkZidih8bBTqoKjTKUjotixGKSMn4Sklx1weQ8f856JHtGIOaT524owQzTEQcJu1TACvU+2QIt+f/o+yoNWNMPtqoK7vx12Xg7E7aiC0+NC2eKFcFwTj5h9bpTzvykULSFLaJoieg7ZHn4onZOMWSZKoDs49tgkxK9xHAtTMM/Zy5ynyB4xwJ5KFC0ph/eqQlTNTUFk7xikug+jrt65Io+6q9zMYIr2QVQAzRJnkRCMGR40iayod68EWtGcwRnIHZSPrMmFKNtQitmpcRizxAnbaVHAuSmYNDUTqUNjEUkhst6JSBlbiNzxi1C6phi598wGxicj1v9JijCCFnWIYEYMmtJyiiLbvpNPPpnvBQd53jLi0EqgOzx2pK5woeyeBNgQiZQF27F+ApPcHvHIHx3DjgQSg8xS9tq5GUhOTEHOCvbaqfHsfYpwQ1QszPCgRTsPiqvLnslBny8ag5bReSiBDguYNPeNR/KIZMT35XLbPwXZ17ckvuy1kZF8U9IcroiKoOwbhISobUeOHAnJ+9aD6HJyr9crxTYl0ApFGCIqFiKx4WAhERSJ18oSwUBOO+00YdtEwyPHQwm0QhGGnHrqqXwvOGTc6GrKKaecwveCg0QwIiKCl+Qh6kHLeBSXEmiFIgzp2rUr3wsOMwSQOg+RjoBi0BSak023bt34nn5o5abRzyMk1DMJFYowhG5aiYig6PuCoV5ygvVUzbCNEDkPfSfajLbPcIEuLCzE888/z0tyoTuuFPdpbRMd5nVmqHF+/vnnqKmpaRaPpPqkJz6feeaZbd5Np885cOCA9oSK+o2SmrfV3OiipRhl043Od7zjsiB79+3bh9raWnz33XfaMUo2/+WXX2pPzq5n1KhRWLt2LS8pFMZguEBPnz4d6enpGDRoED+iUIQ39KSPO+64A2+88QY/olAYg+HjBXLxzRiGKBRWwWAfxxC8NQ6Ub6BMhrRVwnWI/0HRoTBcSWloa8Zkd4XCKpgxNS04vPC4jz3zz/lCEpKebDlnoWdNDsY8XO5PUWsiXh0n9Owoh6OGF1rFC9dmB9xiuaF04kb58jK42jqH16OlWTASKa6uEmhFZ4KcEmthg31IsrZwKTmeCdiGVORdE8//FogHFauKEDkgTs5q0qNuOBq8eP/mqGHKXFOMjJjZKK+uhHMff20LOF8eidx1LnjX5WLkFSMbtnHTClHZ8D4HihPzUXGcz9GNuxyLHvfnVadt0Yb6XOkuVN5ahNnTRiJnVaN8kI2ofDwKmSuNza8uRaBViEPRmbCeQHOqSzEptQDOc50oXlHeONWshhMVT0fAMTcVGQ8Xo9LoZzd46lDxwkgUvHPszHUB6W0rn09iAuw/qXfrIoy7dhwyUsdh0dZjr6lye2AbNQlZ9u1InrMe69eux9LHMpHYg7/ASOzJyJqajeypWYjfm4PyJvVhO1qH0h0N2dRNQXnQCkWIWDIG/d4ipE2rQNJTq7G6rAoLY8uQeVPxsYc1ELu2o9KeicLKCiy6JhJVD6Uh43kDBahHLBL6gHnoSX5vnrYBx+Yxx/ZPRUV1LTO2nHn4TqQ+tRRFd9oxaW4ZSBttXY95/V6vG1UfOeHxuDSv3LmtEoWap1uECv4awzhUgbKVqUjpU8c9/yqt3qKjY3D4KLNl82yMSRmHnFuZR/9wSx2fcRgu0CTOyoNWdCbMyAAXLLYhWSh5KR/pAyh4YUPs9fkoWZGOGP+f/VB+8GExsO9zwnliErKeKkHRjY1eYQjlu5gIM2+9MJ2HKW7KayyqXi88u9g/hypR8HQ5sq9P1vKbR9vrbbEjZgBQu7EIRWucoOh67VE70m7LROZtKWgpeCOOF5XzclHAbHbsBRLiE9jG6oj/FfgSRbNWM29+KfJnZSJyRQEyb52EXNZZFFXylxiI4UpK3oTyoBWdCWu1dy/KZx2L145M7IcTzk06Vr62AJX1MzqGZqNuWToi1uUi9WU5Q/cY5iW7a11we6KRxjqA1WvXY/2KXCTxv2tEpiBvYzxcL29H7Jwy5I9uYbVgFyBqWCayrk/xe+KDY3jCrygYufbRsyYX2RvGoGJPAaKfHIPMVXXNz3GiC64tpZg9rQgxcxeiZNlC5E3NRkYi/7uBSHF1lQet6ExYq73bkPyQP1arbfMygcQcFNWXX8pGYsMqcBsixVaE68Y+KgdL+7hQtKQQhWwrDYgvBxJ5WSayp2YipX/LS7ljL8uDbWUOxo0fx7YclDKP23g8qLWloah0JhJ7J2Lm2u0ovIa8eDYKGRgBe49YxHU9C5nFFcjoH43Up1Yj/0rjRxyBnCBjocrtt9+Ovn378iMKRXizc+dOTJgwwZoLVTbPxglPxaJ2RWrAMJ287DGYvZkJoz0GUd5auOhJwxoxiL8yHTl3+sMMcvDC42HnZp2Dx9t6J0HebGZNBkpuO/4jJdxbnbANjm2S+9x83BsWYXVEBjKHGmeJ4QI9c+ZMbVVVnz59+BGFIrzZvXs3xo8fb02B3laItOJoFM5JaXcBUwSPikErFCFC7d2ybX5gJkqUOHdYpIQ4Jk2ahLPOOosfUcii2uXC8sWLtf1vv/sOu6urtYREwUKJpXqccQbOOP10nB5EysS9+/bB+cknuucB02yHC84/H927d9fKOz/7DF9+9ZW2L8r2HTuw79tvceGgQbD36oUh8fGNZlW4v/5aO0+wq/2+qq3FLuYZv/zyy7j66qv50ZapZvVOHrRKlqQwGikCPXnyZERHR/MjClmUr1+PX75247KLLuJHFEbyj8cewyXJI3H99dfzIy3zxRdfaAL92muv8SMKhTEYHuKgO9pWnBeqUATLL7/4c/y2BbX3DtHma0ox6R7/IpB62isXR3PcKJ2Yg7JGq/ccWHRtBoqlzNgIDu97BRjXJJ+J42mDF/a0gOECbdllr2EIxT073pTGI9j/A98NEe+BA9h/hBck0OXEE3XFlq32G3i2OeDWFLdJIqEaJxbtC5Riybk4WmKf05+Pg+GtrgxIhuSC8+naxh3F1nIUOuIQ25+XpUP15eQrAz1wvuNqWCXo2VmB1Y0yAjpQvtiBuFi50+wMb1nUoJUHbR4GR6gac8CB55Y+gSl3/R2jpz+K+UuL8GaT/ATH5UgNXnt+GXuff3tu6wF20S2DffoqfFD+KK576TP+wuNwZDv+7/nN+JoX/RzAm4/9Hde/sBbPZI3ElLfZ50qgSxd9j+Cn11hHpN0oeygFhdtovxaVj2WhZIf2hxaQnIujBdzrcpHyvFPbr92Yj6yV/v2WcH1UgVpbEbJSJmHRmmNiKQ9KvJTHc3A4UTSsABWtpWmtZnXntqHozjGY9GQZXJKMM7xVUWO17B3tMIPqWbiunUUYewsT3sDtjqfxZqB32y0eN4+7G/Pm/z+seSQDdsdDeLfRRXwArzGhHH3LnZgyn4nwI+PR97yH8Fq9Xp7cG8P/cjVuvvZq/DHKgQn/cmA//5P3hxr8e28TYT3CPGLyivnmpft6dZ9h5cMOVPtf4efztUzw4/GP26/EJbFeVLPP2f/pZry5uX7bjuqA7/Hu/N/hH5uDd7XpCdJ6hNd6bd4N1xbKIeHA9kMuuByV/pwSjibDcdm5OFrB7arwZ7bb6YFrjwOVAfkujsG82Y9KkTSjHBWluUjwFCPnqtkol57X2o2qjX573KyDc2r7zAZnYwX27qxC6bBclFeWIPciD4rvGYPZG4wPFEnxoDvesLsTEpuBlY9cje6bhuKB5QW4udtmDL9jAoY3eeCy98vtftFbtxZranoAjZ501Q1/msbEe/mTmHfXrbhr+gTcjL2NQhi2bt1wMn7EkUB9PHoEdc3CHEfwwbpX8NxL/m0eE/uo219pLMz12OMwdPBmzLvnTjxQNwWPjO4NfLcZj960Cn5n8QCq3fXivw/Vu4EoW/CPxP/l5190jQat5UETdtj7Uw6JWMR0Zb+h9zA/3gSei4MG6ZEDUqTl4miK3R6r5biI7RMJHDqMlq3zwF1tR0KMnTUiOxKvn4mlr85EsuSVj6wmEDOoPv+Gt9W81Z59LtgH0WtssA9Nx8xlqzFzRAd4qrfyoDsQbubF8t2W8G56FFETV2H/b/oj/pKrMf+lTbh3IP9jS7DP24He6FU/U+/AW/jHn1Nw8zNvorrfrXDcdTm0CXbMe66ubRqWOBkX/pmJ/Dj/NmVUHHBe75ZXs50ch3tfehEvzl2MN/OuxgDWqXTvew777N6IHzoUw2nr180foz6wX8tAJsLRn4+2+exFwloPqbAhsocbzl0ueD1OOCqTkDS6Pjc0E991TuYXcnguDnkrBptj6xoN9w4nXN46OB0VSBo2hme6S2AdRTmcDTFpO9KXOZE9lBdNwQbbYBecO+vgZTY67ElIHuuvu6TYSLidLuZV+7FfUwTnVAnJN5ogZZrdjBkzcNppp/EjClm8/dZb+Nldi8SEBH5EP17nKjz7f6vwj+KemLficrifvRM7YmfhT1dciZsH+x87rwn00p5487ErYPusBnVMRPvGxaNva0+lZ4L8wF01GLs8AxdS2bkMQ/9yBPM/nYBLtBcwtj6NiOW98eaotRj++a04nHUsF1n1mofwj39/hv3M3a7e5MCfntmCeXFv4br/WYXoaUPR97RInHzQw3ztFji4HcVPv4eISy/F0EvPQTTz7vsO7M1E+wDeZN8t4q5PcO9g/lqd3Pvooxhz7d9wxRVX8CMtQw/Zveeee1BSUsKPtDMeFyodLr9nGhWH5MFcgmnZ91igqjYbkasKUX6Uedj1K1gojeeu+mF8NJInpCNeirfqgWtzFVx+4xA3LB52rQ+sxOwTUoEttZjZtxKFL7gQPZD8U8IL9zbWsdR7swNTkT1akqfvdqDc6X8aTUSfBCTy3CDuF9IQvSYDtSuS4VpeBBcbBdi5w+x1O1nHwo07MRapU1IaZw0MAcMFmpZ603bKKU3GygrD2fj22/iFCfQl8QIJFyneW690B5lHy7zPvtSnntwN3eujAczTfffDGhzevQqj1/XEi7dfjgsvYAKt96fVBHsZdvTsjaiTgEuum4Wb8QpGv94bzw3fjrs+uwIvXnsOf3EATNiH/+MIHn2JCfu+VbhuRA2m1Iv8z0ew/3u/4ZVLLsJzfcrw7J96suPb8cglryBxUz7+worH2If/u+tSVN8SvEDf+cCDmDRtGi68UOtuWoUWqkxjr3vppZf4EavigXMbEDuQQgseeFoZWdgiI82b1RGAh4kwBlJODcrV0Ups4cRI6QmeWuQQ68D2RSO+r42NTDzMwpZgo5dIY2tOigc9a9YsREQYmQRQ0RLiAs081K0OVDdtZUyoP/j8AOyXZuBvsQExW+71Vs+/Er34oaA/44ft+L/izQ1DxJMHXoU7hrb0WAy68TgTn1yRj7sGs/fTubOY87dpgt8rZ4L77+l/w46M9Rj+1u8w7+xNePHP9Dn+4//4jHU0pwK9Rs/CM0z8bczONx+7AO9eEbxAj58xE/+cPx9nnnkmP9IyJNDU7l944QV+RKEwBsMFmsIbJNA2W3v0wZ0LEuijtV+JhTgOHGg5VMA4uVs34P1lmLKST4P78QCqDzDRO/kIvj7QExf++WpMT4vHyW18RqMWECDy+M+d6NskvNEq7s14bntvXJfcm39egEccy0YBCPD4W2H/7s2ojRqKAfpXsWvckZuLR56Y3+aq2M8++wwPPPAAnn/+eX5EoTAGKR40NVbK79AW3333HRYsWMBLLbNr1y7U1DR+tG/Xrl1ht9u1rbWbOCNGjMDll1/OS6FBMcbly5fzkrFcfPHFSElJ4aXgeGfjRvz4ZQ2Sfv97fsTCiAp0M5iH/cBFeLbnk7jr9zwYfnochp/XWmBcnGn/fBSzHn0UPXoc/wF4O3bswKPsdbLaiKLzIiUGPXv2bF5qm/POOw+LecIfolevXoiNbTn/6/79+1FbW4tvvvmm0YrFgQMHNruInnrqKU2gzz//fH5EnPT0dCxdurQhrv7xxx/j8OHDiIuLCyrWTvb/8MMP2kZJjYqLi7W82ZSeVQQS6B9Y5/E/l1zMj1gY5gk/85/tDR539yFXN9yMDBotfv4janfvwpGeceh72sno3q1thyBY5i5bhvHZOW0K9EcffYSFCxfi2Wef5UcUCmMwfJodCefRo/rnNcXHx2ue8PDhw7WtNXEmKAvagAED8D//8z8Nr6etpQto4sSJeOaZZ+BtbSKjTv75z38iOzu7kRCT6A8ZMiToG6FkPw2XzznnHFxwwQX4+uuvMXRoaPOIfv4luCxt7YZ9KO7gU+hoExZngm5kduuBAYOH4sKzaN94cSYOHdKXGfCnn36y3OrZoqIivhccTz/9NN+Tx9tvv91sVKwHuglLo27ZkOMULOQ4/vvfx5u0KobhAk0T9vXMHa0nKSkJX4WYcrI1KNwyZ84cXgqeiooK7bv8XlIIweFwYPDgIO9cBUB1/dNPgpN8FW2y/+BBvnd8yCHRE9Izky1btvC94Ni0aRPfkweFLT30SJUgoeuFRp+yqaqq4nv6odExjaSMpt2XP5FAv/XWW7xkLHT3nQRwzZo1/EhwUOglJyeHl4yFPAF66GUo0OKIDuNBd0BOPukkvnd8SKCtNmtJNGmZGcnOgs3NXY8ZtokiyzbDBTqY8AZx0UUX4dNPP+Ul40lNTcXrr7+uhROCobCwEA8//DAvGc/mzZsxbNgwXhKDbh8cPaoEWiZ6btGEk0CbgahtBt8ua5FQQ6JGY7hAiyx5pRieTGhWCU3/08vWrVtx+umnS32uIg0lL7vsMl4Sg+ra57PShfgTDu3choPSE9qYw8Hvv9fVnklwrLZyNhwF2ozl9FazzXCBFunl6MagaMxMDxRKuOmmm9qc0kdQD7pq1SqMHTuWH5EDxbcvvfRSXhLHjEarn/34/tXFONiQ7IHxCxPt6m34dttufB/Q9n/au5sd24b9gfd8fjmAA0zgv93phtcC+nKYtQU97ZmG7BSDtBKiQmNG0idRT9iMG7GitsmqN/m/hg5oOpxonFgvdI5vv/1WmyJ3PObNm4e7776bl+RBw2Kazx0KJM7B3JA1nV/24esF2dj3r0/w044XsXfa/+LbI8Chtx7Hl3NLcOQrJtB5k/HlNjaCOvwJvro/F55Nu/HjW/PgfvwN6LtFJ4+ffz6qqwOki9pa2ezEhcYsL1XEPrJN9HvpJew9aJEvSEN9muwvmwcffBB5eXmtxplomgwtcJE9XP3vf/+LSy5pSB8UEr/+lXUfjvDTR6/i8JGrcPrkNNivTsNJR/6LI585sH/VT7BNnoozr7gOXYf+xMR7Nw5WvIgfz7sFvW6+CtGpKfhVjQOH5WdoPy56H3lFbV70wpaFqGCYNV1QxD6yTXYHQp8vapsMLCHQtCxcdsXXQ8vQaWsKzct0uVwhz0vWwzvvvIM//elPvBQaJ53Uhe9Zjx893wIxfdCNtbJfanfjaJffocupB/DzkX44iVZP/+LGj7u64MTfRuOnb9341W/7gCarHfn8M/wS2Y+mO7crXbp0Ma1dGg0tpBLBjO8reiOORFB0BoheRKfxkW0yOmnDBVq0AkkYKaeBbCje3bt372YhlSeffNKU0AZBHvQf/vAHXhKHGkW3EMMkMok4ux9O2FyCr9aWoGbBOpww9m84o08fdImswKFX1uCrgsfgjUpD5JBuiOg7EL+8UYra1YvhfmkPTspIQfd2jhp01zmSojCT1UIcokJrte8RCNWz7JEK1ZtIHZBtMjoPw38N0QokwXrjjTd4SS6TJ0/Wcvfu3btXKz/xxBPCy61FOOOMM/he6NBjmaxDD3RPvxun9faXftU3Db0fuBG2Mwcicvpc9BnWgzX+foh+MA+RF/aB7foH0GfC5ejKWmHExVk4a/IfcNLZf8AZD92PMwe0/7Q1vcNWWqQSLjFo2THeUKDfI9hpvMFC319Ew2R595YRaPJsP/zwQ16Sz9y5c7VQB81Hpil1MTHyH/VDUKydFucYxQnsPythi+6H0wK09dfd+uD0gb8DJchr4Ffd0O3cgTi9dzcESmCXnv1wxsB+6GqRqI3etkxL/vWKuVmIetBWDulQyEm2B02I1EHYe9CEGZVfTzemGJSvg4SapuCZxcaNGw3Lsmdlbycc+PWvf6Wrjq349CDRtmHlWUE0WpTtQRMidUedR4cQ6FBEg2Y2yJwP3ZRBgwaZ/hQMGiVQDNwIaFhNIqKQw0ldTtLVnqmzN9O50IOoJ0xCY1VoMoFVPWiyLew9aMpMZ1Ycur2gudhGYuUhaUfHZjsZP/74Iy+1Tkee7dEUGSJjFFTHslcd0zmsJNCG54MeP358o/zOwXLzzTfjueee46XwghL/U55qSu5uBB9s3YoVzz6LUwTzQFC2to8/+QRHdTR6aoBDLrww5JthO3btwjf85iwJW/++fdGzRw/NU/3h8GFt9R5Nw6J/67cjR1p7bkvr0EXW+8wzcTYbrZDNX9bW4rPqav7X5lAujT7s9b169my4QCveew9LWFvs16+fVm4NSnxFqW2DSScgm4yMDKGUo7feeiuWLVvGS3J45JFHcOWVV2p53INhyZIlWvIzyt8jC8qsOX/+/KCvUWqzlJZ40aJF/IgxGC7Qt912mybQIr0QQbMpaFYFCUK48b//+7/aDUnRJ6iEMweps/j4Y+E5snqgm3m0erN+o9/CCCgRFyXXspJAX3PNNXj55Zd5ST833HCD1k5lQknI/vrXv2ohxmCgXNUk0ImJifyI8ezZs0cT6Pz8fH5EHzR/mp7sTh21oZBAG0lmZqaPufq8FDwrVqzwrVu3jpfCC9b5+NgPyUuKcOGLL77wzZ49m5esQVpaGt8LDtH3BcODDz7o++CDD3hJPwsWLPC9/fbbvCQHl8vlmzJlCi/px+Px+Njog5eMQ8odplCGwcnJydLyQ7c31Muqp52HHxQXFR0xykLUHtEViMFA+iBiH8V4ZcegabqkqG0yYtCGCzQT/ZCmwpx11lnSnrDSnnz55Zfo378/LynCCRINavdWQtRJEon3B4to50E3bGXP4hC1jdpAhxBoItS5lOHoZZaXl2sPD1CEH3Rhil7YshBdYWqGBy06lU+WCAYiWm+yOg8pAh0qsvNDtweffPKJIU8YV1gPMxZPBIvoTXYznvlHDpjIiIM6D9keNNWbqG0dxoMOtRem6TevvfYaL4UHsnt+Rfthxd+2Z8+efC84zBBosk1kxEEzfGQLNC06EvGiZdlmuECTkaF6FDSVxtgFK1445qVh5D1lcNcf2VqMgjUuXuIccqHyPTd7tR9vjQOVu0JPSux2u2G323lJEW5QvNdqMWjRp4wfOHCA78mDbBMRs++//96UzlBk9CHLNsMFmnrGUHuS7t2745tvvjFuTuy+Mix6ignthlwUbfUf8jhLkPOCo0GwNbYVI2lBBeol2esoRNKc8oayKOvWrcOoUaN4SRFuWHF5tOhNQjM8aNIIEfvMCHGIQrbJ6KQNF2gy0ohKpOf1VVZW8lJouFYVYvvEfCydHI38Uv9nRvZonr3Oe7CO7/mJ7BkNsMFAqN3E+++/j7i4OF5ShBvWSvnqR/Z0tFAgfRDRCOoIzRBokXNQG+gQHrRoz90Umg+9YcMGXgoFB0oX2zDpynjEXJmJMQ+vRjkTXdtpUfzvx/DsaxLyMAgzvBJF+0EXp9VmcYiOPs1YwUszHkTEjGwzI8QhUndkm4zOw3CBJowwlASapqaFindDCfL31aJw4kiMTF+E7f1no3wj/2MT7DEJwL461N/iJI/aHmL2RYo/i96wUXQM9CRUMhvR+cxmeN6i9UXibEasX6TuyLYOI9BG9HJ0U40yv4Uah3a8U4ykWUVYv3a9thXNSEHhZof/j+4qVGwoR7m2OeEZmIiZO3MxaUYxylYuwqRZpRhzZRJCub23du1aDBgwgJcU4YgZizuCRfS6MaOzEfWgafKBbA9adK51h1moQr2IUYZSYnt6wGooxI4tQv7YY/HmmGsWovRKVh6ajbqXcpAcn4AEbYtBZNdk5DldKJqWgqQRGchfsx1Lx4Y2++LNN9/EkCFDeEkRjpDgWG0Wh9U9aJH6MlJbWsNqtkmJQRvVWCk/dKhx6EjmFccEPle1awwSB0ayHRsiIyMDNh57OzHweOjxOApx0MKbzgBlAtu6dauWS4U6pqYbPU1m//79/NXAzp07G/5G7xOBMuDR+wM/NxCqfzpv/Xnqty+++IK/omXoUWj0uvrnVh4P8uysFoMWFWgzPGjqBEQ1QnZHGIptMkIchqcbHTduHGbPno1evXrxI+LU1tZqaQnfffddfqRjUVNTg+XLl+O+++7jR4yFOq/nn38ev/3tb/mR1qEhL4kgPZ7pvPPOC2pqGL2XbnTSVKLAfwOH0SRQlM7z1FNP1VJ50r+0mXHT6XjQ/NRt27Zp6QfqO15KM9qWoNJl8a9//Qu5ubla6s7jQbONSMynT5/Oj7Q/V199NV555RVe0g/Vi2wRpMfM0XM56Un+wUDaMmzYMPz973/nR4xn37592vVKqU2DgZyA+++/35D7Zo0ggTYSSjfKvA5eCp0BAwb4Dhw4wEsdi8WLF/ucTicvGQ9rDNLTL3ZmKO1kcXExL7UO/QZWSzd65ZVX8r3gkCAJzfjnP//pq6io4CX9kLYsW7aMl+Tw1Vdf+W6//XZe0g+1gcsvv5yXjEPKTUIjn3BM86E7avrR//73v+oGYSdAxtA2VMyIJYtCISGmPbxkLSiObCXbDBdoEmcjV1YZEYcOZ6wW+wwn9C6XJoG22u8g+2ZaKFB9iXZqssVT1DZZdhku0GSokR40zYdev349L3UcaPaJzGenEZYRBa8DhePHYRxtt6ZhzLWzUd7i+ngPnDSdkZfMQfyceh0NuqCt5hGKCjR9Z9nZ+URF0Iz2HoptMtqA4QJNhhrpQZ955plaAhd6MGdHgm4aXXzxxbwkB2oQehqFc0kaCjbzAsdbXcnnf/M54Pw44dlWf5xtm13+pe5Hy5F7QgZKGyUv4djikbl4KZbSNi0Z3j1AVEv3BjcvQvI9ZWhzveY+Z4BtlXAdYsfem43olEI4qh2s7IXH42nYvPV6sqsQY6Jng89y99PknI2+2wb6LP4HRuWsE5Cz4diNT71P17CaOBOiYkbfOdR87m1B5xCpMyMdv9YIxTYZHYgUgTb6Bx4xYgTefvttXuoY0F1dysonE6rrxo3CC8cLBSh43L8tWkey5IZzYym8rmKkNYiXG6XTslB+NA4JsUD5PbkoC3jgta23f254XBcHZicW+99zYgQi2Oc3iGFLVJdi0i2TUBsbg8gWmoCjsoSduQrla1iHcLzP6Rrtn5seGwHHI0ko3saOsde7u0bA+XwCcl7+EE5HFaocZci/Mgp59StDbRGwsQ4kcIlGs3PuLcfs5GI4tb/WwVVT3zW54drBOpaIYz0LeaF62jJd0DIuzvZAtjgTolNxyTbZ9UyfL2qbDAwXaBmJY2hqjbHpR+VDT6mWTfPG6kBZehkix2YjO7EOk5ZUMtmhaXLsfz3siHHXoa5BvWIQF2tHpD0OceeWwhXgGdtoOhrTqWCmyLnX5GDMxAokLa9D+Y21yBmWhkImeMdgAuhwIGtWLpI8pcgaloSMJX6ZbIaNz0Fn52/RAttvkTgiGcmDbHC/k4WkeH68Gc3PmbWlOyLZd0+g99M2IBJezROvw+EmnQYN9fWMBkUuaKtihkBTuxUJI5BtsuuaOg9R22Qg5Sah0dCNQkrZ2VHYtGmTNs9TNtSYmienioTmBDKPFztXY+HjC7F6JyufFoEoNtB379NexLSvFEVzyNPOR9HGVMT09h8H8y0XJffDmBmFKNkTi5mOTBx7yL0Ltfz9TbGPyENJWT7SmeDZR2SjZGMRMho9grEWznXJiGfedezobBRVVqDotpYX8DifHol+V+WicKULsdOrkBmwEDOyazxKd9HIgI0WluSjcHBkExGvRV1DvIafc1AsEq+f6T9n+lnseCGyrxiHHG2kUYgyzRt3Ngp3EDTXmxK4t4XIBW1V6Mao7Bi0qECL5rgOhlBsk9F5GC7QzQUjdPr27avFoSne2BGgG4R/+MMfeEkezRsE8zgHMxGaW4DcxauBQWmYNHUS0gbxPzdgR+oKH1bPiEbFtCjk1pYgvV6g3U5UbIhHxj3ZyBzLPMzBgUvdHX5vvBEulE5Ow5irxmDMFSMxsn67NhOTJo5DwTv1b4hHtrMEGaxjyIwqQOuJZN1wVpYj/vocZN/COo5D5Siax4R0RYX21yi7f9m+d3MBsl4dg5JZwOxh41DaEKKphadBaPk5AzsKGkmwLidnxVLkT2UjjamZSNW86STE0QLTAEig9TxowYoedPPRlT5oIY9sREMcndE2w9VUljfxxz/+scOsKKyoqNDi5ubDBMlRi9Vzs5G3rAK+FalMipkgxdpRR48hszMBb2skxgQwzu4XeX8sexHKW7ox2EAMUheUYDVPRpU3rByRtxRhfWmRdtMw+7Jj/i2FTto8P7e34oV87fylO9j7hmQg+6bAEcm3qHDYUbBqJlLH5mF9ZT5SGkYAHHo6zoZy9rrAhFjlKH3hbewbsg6T/+LvSCjM4u9CmOffV9tpgJY908Mj2oIuaKuJtOhIllZZyg5ziN5Qi4qKkuIABiJab2SbaKd4PAz/trIaKoU5qqqqeMnaUAM3Yzimt7ePn16LfOYlzqwtQuqhUuTUT4mbVQLvqCosvCmNiRXztmfRbId49jq/yGdrHmYWkjUnkgnnLVmIbSqEetjV1jkbQ/bWvprPz5+NrBHMgB4xyOzPRDQmBQsvG4LkCZlI7MHf0JULP3tNwqgkv422aMQ2JMI6tiWPvRtPrPsCNe/y7Ia3xfIQiQ0Jt65HaoC3TfdTZITszEB0mh21JzNCHCLnINtkh5PItlDqznDYhxrKXXfdxfeMxeVy+a666ipesi4ff/yx7+GHH+YluWzcuNFyS72rFqT68rcc5qWOzf33368rbcGaNWt8c+bM4SVrMGrUKL4XHBdffDHfk8e8efN8ZWVlvKSfhQsX+goLC3lJDt99953vb3/7Gy/p5+DBgx1jqTf7TL5nLBSH/vzzz3nJutB0wJEjR/KSfKy2pDf+zhJkD2lx7kWHg7xnve1ZVrsXRdQe8h5le9A08hPxUkU922AIxTYZbUBuQMdgaF7xa6+9xkvWhPJvJCYem/cgG9kXU2eGbkzriSuKxlRlIioWZqQbFRVBM5wRq9l2AvshDZX9yZMnY8GCBbxkLM8995y2UTw6ELqx0b9/fy3dZT2UNrC6uhqHDjWZO9UG9Bnx8fFaPuCWfqizzz5bS6e5ffv2houAftQ+ffpof6P0opQC1AzoZiTlQR49ejQ/ojCSSZMm4YEHHkCPHvXB7pahVaP0W8yYMYMfaX9oFpHI2oFzzz0XTqdT6o3Cp556Spsdk5qayo/oIy8vT1tZfOutt/IjxkPpadPT0/Hvf/+bH9EH5UK/4YYbDE/s1mFCHATN5KCGR8/4o4ZES6lJrC+44IJG4kzQRUVPMqG/B7PRZ9LiBFocQ+Xzzz+ff6IfCrNQkvjA70k3Lug4CbWs3M+toTxoeVBHrIemba8jQ4n+zZjFIaITZJvskYrlbGPGGArzOvieQjabNm3yrVy5kpcURkNt+ZtvvuGl1vnoo48sd5MwOTmZ7wXHb37zGx/r9HlJDpQn/cUXX+Ql/UydOlV6PmgmtD42IuUl/Wzbtq1z3yRUNId6bNnTjjoztFBFj1dEIyertXtRb86MERnVl0i77Yy2KYHu4HTUebodARq26mnPVmzzohklSWhktymaXy7SgdA9ISlhhAAovCNqm4x6M1ygZVeg4hhU17LjhZ0ZvXfzSaCt1u5F7SHvUXaHQ7aJnMMMgSZEzkG2yai3DjXNTtEcI3NvKxpDw109FytdmLJFLVjIdhHoe8gWQdEbcWbYRojUnSzblAfdgaGGZMaS8s5KR56dYeXQF9kmohPU3kU7nmAQqTv6Ph1CoM2oQMUx9KTDVIhx6qmn8r3jQ23eao6JqEdvRodPtonciKNwnuj3CgaRc8gaySo17eBY2VPq6ARzoZohHMEg2i5kPHCjKaL3TURvLgaLSN3Jsk2FODo4asTS/ljRgxYVWjMEWlTMSDjNcEhE6oDagIxr0fBPVB6deVAjVx2iPIIZUlvNgxa1x4x59XQOkfPIminRFBHbZNWb4QKtpn2ZhxJouVBcUc+FZ8VRjGi7MEMAQ6kvM+pa5ByyrkUl0B0cK4pDuEC5OGixSluE029gRodPnZ7IecwapYicR/Q7tYXh2ezuv/9+PPjgg7ykkMlXX32FrVu3NpoORoJSWdn8iX+UpYsy/O3duzfoDH9tQbMdKJtfdHS0lnaRbKC0lRTLa2smxJYtWzTbjIDO6fV6G7bDhw83KkdERGiiG7i1FW8sLi7WMqgdj88++wwvvvgiZs6cyY+0P9dffz1eeOEFXtIP/Y6UmU0mlCmOltGTjcEwbdo0JCQk4LrrruNH5ECfT79nMFACtZycHKxZs4YfMQgSaCPJy8vjewpF54Ce9mPWU3T0csMNN/C94Dj77LP5njxeffVV30svvcRL+mECLfS+YMnIyOB7+tm+fbsvJSWFl4zD8LGZukmo6GxQiINdS7xkDUSH21YOcdB7ZN2MC0S0DmS0AcMF2moNVaGQDQm0GZnWgsHqjpKV7bOSbeoOk0IRIiTQZnh2wWD1G5ci9pnh3RNWss3wX9GsSlQorAJ5XFYbOYp6gWZdvyL2dUbbDBdoFeJQdDbogtabmtQswtGDJszQFyvZpjxohSJESKBViCM4rBRGaIqVbLP2r6hQdABocZbVBFp0wZgZwk7nELHPLIEWtU1G3SmBVihCxIoCLSpmZoQQqK7MElsRRG2T0QaUQCsUBmC1GLToTUKzELXPjA7ESrYZLtBW7hkVClmoGHRwWCnO2xQr2aY8aIUiREicrSbQol6gWSJoZQ/fSrYpgVYoQoTEWU2zCw5RL9Wq0+xk2aYEWqEIESt60OEq0GZgJdsMTzf6+OOPY+rUqbzUsfEeAmxdecGC1NXV4YMPPuCl1qHX1dbWaulGWxISelBojx49cMYZZ+D000/nR4ODUox+8803+Pbbb7F///4WvQkaOl5wwQXo3r27Vt65cye+/PJLbb81aIZEv379Wk35SWkeKYVqfHx8w+cG4na7tfOIerjXXnst4uLieKllqH7vvfdeLF68mB9pf2bNmoWHHnqIl/TTv39/7Nq1i5fkQOlGzzrrLAwZMoQf0QelMv7d736H9PR0fkQO9913Hx5++GFe0sfu3bsxYcIEvP766/yIMYShQLtRvrwKMTemIOZ40xmPeuE5akPk0UoU3FMIJzt0eJ8L3sQ8FE1NhK2mGGkXuZBbOxPxR50ofWgRijY74aH3Ds5GyWMpiIQX7vccONw/ETGR9Adz2bBhAz766CNN9GRCuZQpfy/lVw78l47XQx4E5aWm/M+UZ5n+pc1ms/FXdDyeeeYZpKamaiJ9PKhTolzAy5cv50faH8rJToIWLOeddx4+/fRTXpLDqlWrtLzTgwcP5kf08cADD2j2yRZoOg9twVBdXY3x48dj7dq1/IhBkEAbyaOPPsr3JFO73rfwsXxfPt8WltfyP1T48pDuy5yS7Mt+tY4fa05tcarPPqeKl/xU3AdfzGP82J4iX6o9z1f/isN1h/leILW+omvgm1nOiyazfv1631tvvcVLCqO5++67fUVFRbzUOsxL99144428ZA2Y98z3guOcc87he/L417/+5du6dSsv6Yd1OL4VK1bwkjxY58b39MM8aN/IkSN5yTg6bgzanoysqdnInpqF+L05KHfz4xzb0TqU7nDxkg4OlaNkSSKyRsXzAwx3BQofL8CjOdPw8JJFKGD7tBW+p/nRDbj2NTm5IizQG4uk8Em4zOIwYwYD1atInJdsMyMObaVVjoYLtEjFh8ShCpStTEVKnzqUbyhnWxVIlqOjY3CYUvRWl2JcYhpy7hmDuGuLtb81x4vKebko7epGybIy/2v21cJlT0Im6wTu/edDmHpbFusMshFfl49yV/3Q3obIHny3HRBt6Ap9UGxez4VHAs2cHV6yBqL2mPE9qDMTETSz6li0s5Uh0oZf3eY2VL+wFuyqhWMvkBCfwLYY2PlfgR9R/lQWbDMKkT83F6kbCzHp2nHIYV7wwjXHpNr1QiYyNoxB0ZYqFEQXYMy0ci2+6oi3Qwstn8iEONLGRLsMpcsTkHxR/RkiERXNdxXN8Ho88B43j70XHs+xOLYcPHBu4PcOgoSeV6inPdOzEK02zU7UHjM81FA6NLPsCxayq0MItJl41uQimwlrxZ4CRD85Bpmr6piQRiGC/12DjVZcW8tQODkPzhn5KHlpKfKZJzxpdAx/AfO2Ry/C9rUzkRgZicTp67H9sWTYutqRmRiDKP4autDLZk1C3eQUOG4diZyXXUxeOgbOJWko2MwLHG91JR9x0NZYwDzb6o+zbTP/nkfLkXtCBkqPG82hh7PyXbhROj4KBe/5hdrTZNNeVlOKzKgCNHvE7T5ngG2VcNEzbt+bjeiUQjiqHaxMwh7wWfWdwK5CjImeDQcvamxehOR7+KiI0ei7baDP4n9gVM46ATkbGv+qeob89KBcq4U4RJ/wYkaIg+pKVKDNGDGK1p0M2zqwQHtQa0tDUSkT1t6JmLl2OwqvIdFlnu7ACNh7xCKu60lIfsiBvMvsSJhWgpI74+mvzbAxYbbVh50OOVH6ZAEK1gBZdyb7PWgmJ5WPZGCRbSHypmdh4doiZMRGtfhZ7Qvz+l/wx8lpW7SOZMkN58ZSeF3FSGsQLyae07JQfjQOCbFA+T25KKvW/qBh600jkQTEdXFgdmKx/z0nRrCOjwlws7ZbidknzPaL7OYCRNxUzD49EC9qd5Qj/9oo5MzNR1pUGvKZXcd1nLtG+0dDsRFwPJKE4m3sGDuvu2sEnM8nsM7xQzgdVahylCH/yijkbfS/DbYI2NjJAz/aUVnC7KlC+RrWCZHte8sxO7lYm7UD1MFVU981ueHaAURFHPtVyZPSE48kD9pqAi3qQZshgKF498qD7jBEInZEwPQ2CkNo11Y8Zn60FJm35WE9E2ScaEf8iGTE924sp5GxacgZ2HRunBflc8agyJaEGFcuFm2olxob4icUoWRuCjS/mz6TvzfSnoqYru0j1c0vJgfK0ssQOTYb2Yl1mLSkUhNLzavtYUeMuw51DeoVg7hYO7M/DnHnlsIVoKrUYVFd6p8idxh15M3WHeblQGyIGZqEOFZdMbFx7FeLR/KV8bAf76Nt7Px+A1ruBG2/RSL7TZMH2eB+JwtJAfd1G8NE1+FA1qxcJHlKkTUsCVlbujMbYpBA76dtQCT38Ov89ywCoDAXhTnaQgl0cIjaRljZvg7hQZvRwxmBbXA6sq88FuY4xmHUrszDIk8uskYdi2ZrXjbfDyT2thLkjW4q9ObRvFFEQnMCmceLnaux8PGFWL2TlU+LQBQb6Lv3aS9i2leKojnkaeejaCPrZHr7j4P5louS+2HMjEKU7InFTEcmEvlfwN5fy9/fGBJC5tEeApK1c9Ln8vM2IwrerYV+L/+p1S3etHU+PRL9rspF4UoXYqdXITNgPUNk13iU7qJ3sdHCknwUDm76u9SyzoLvsn3nOtY5D4pF4vUzUVRZgaL0s9jxQmRf4b8XUfB4Ico0b9zZKNxB0FzvSPa7twUJudUEWjSEYEaIg2wT0Ql6j1n2BQtdhzJsk98ddShsSJ5Ti/LiEqwvzkK8hVcREs2HVczjHMxEaG4BchevBgalYdLUSUgbxP/cgB2pK3xYPSMaFdOikFtbgvR6gXY7UbEhHhn3ZCNzLPMwBx/rpMhDPxZjDqQOtugExNm82K6dk6Y/TsKYc/mfD/m908OHyMOuhbdvGrKmsNdMHOMfkTTCDWdlOeKvz0H2LazjOFSOonlMSFdUaH+Nsvvf4d1cgKxXx6BkFjB72DiUNoRoauFpENp4ZDtLkNGfFwkaSbAuJ2eF/15E9tRMpGretN/LD4QW5NCCiragVZTh4kGLTDELFqor0foyQ6BF6o5EXQm0Sdj8sZIOCBMkRy1Wz81G3rIK+FakMilmghRrRx0TG4orNMTaW4MJYJzdL/L+WPaiZnPMG5OIrI8yEbGuEEXVCSh6KCVgFg3hhXtHLWLuXI+EEz1IKU1FpLMKrlanVfjtrXghXzt/6Q72ewzJQPZNSfzvxLeocNhRsGomUsfmYX1lPlIaRgCcQy5Ubihnr6tiHc6xG4OlL7yNfUPWYfJfRmLkFSORscTJY9aRsPfVdhpBU+3aQtRbtSJmCLRofZGXalX7yFGSYhszxlDy8/P5nkI2Gzdu1Lag2Fniy74t05dJ2y2pvpRRqb70G1N9yezfrPtW+3bzlzVnt6/olixfyR5e1EHdRxW+3Qd5oUXqfNsrd/taWqPZjJ1FvszpzL7KpQGrRptwuMKXNyrfv/rzp8O+urq6VraWz1jnXO/bvpcXGBMnTvR98803vNQ6tJpzzJgxvGQNpkyZwveCY9iwYXxPHs8995zP4XDwkn5mz57tKysr4yV53HXXXXxPPzU1Nb6//e1vvGQcyoPu4AQ9VOyfivzFS7GUtmUlWL22BEUrSrCe/buQeb8tReX9xCB92UKkNvVUj0PkwETEHDdMFInYoTEt3whsSv90LJ3D7BuaiawRjX30Bmw0myebjSMY2tx1utnY0tbyGSMHJCM2YOERhTf0xEq7dOkSNl40fRfZ6KnT1jDDPpGbffSdZNh2Aqk03zeEefPmgfXevNQ25eXlePvtt3mpbcjc7777TstgRklqaA5qU6iCBw0ahKgo/yxmymi2YwcbKzeBKvTSSy/lpdah95IQUqavpnf1yR7KlvbVV1/xI34oYdDAgQOxZ88e7W+tVfOjjz6KSy65hJeC45133tHinyNHjuRHFEZCyYYmTZqEnj178iMts2XLFi25zurVq/mR9mfy5MlYsGABL+ln9OjRWLNmDS/JgXnQWoKvhIQEfkQfjzzyCJKSknD55ZfzI8ZD1+ndd9+N+fPn8yP6oGs8NzcXy5Yt40cMghlkKMGGOGbOnMn3GuPxeHxffPGFb9u2bb6Kigrfhg0bGrZNmzZpyVZ27dqlJao5dOgQf1fHYsKECb5XX32Vl4KHCbTvtdde4yWF0VCyJOYI8FLrUPtkwsZL1iArK4vvBcdf//pXvieP5cuX+95//31e0g8TaN/mzZt5SR6sc+N7+mEC7bvjjjt4yTgMD3EEOzxo7Y4p5falIeb555+PxMREDB8+vGGjXvTCCy/EOeecg169emlpLTsioiuW6qFhVaifoWgddn3wveNDo6tQhu0yEG0XZqWHbWnk2xZUx3rmpYcC/eaitum5oRwshgu03kZdD03y76yE2tioUYhOV1K0TUREo6QBrUJOhui0NllYXaBF7CPnT7Z9oTg9ettLMLT7TUKKoXZWjLi5pDxoeRw4cIDvHR/6DUP9HY1GtMMwY54xIWqfGdPsRGwjYRe5udgWhn8iGRoMndkDJA9axo+qMAZaSahHeOk1wbZ72Vj9uhKxz6x6Fq07Gba1e4ijMws09dShCDQ1CNkxuc4MjU70XHTU5q3WjkXtMcthELGPrhcz2ruVbGt3D5ougoMHD/JS54JuRoR6Y0F54PKgtqnX4QjWMZGNqD1meKiEiAjSe8xo76ICLcO2dhdognIedEZoCH3aaafxkhhmTNzvrFA8Vk97pteYJWx6EW0XZt3TEIklB9NhikKfL2KbSNxaD4YLtEgFdtaZHN9//z2io8UfyUI9Ni2IUchBb91SmxfxumQiOtw243tQZyZiX2e0rd3Hx1b0PsyCOqZQPGiqt1NOOYWXFEYjY9qUWYiGzszqaKwq0ITI6KPDCHSwYkvDSMqP0BmhiyjUaU0qBi2PYC462UPvYLFy50JtVmQ+s1nOnIjTI+v3b/erm3qrjroSMFR69+4d0rxOq4lCuEFCoqeOzRKOYBD1oM2YB011JWKfWXUsYpus+dmWCHF0Vui7hyKyJCDKg5aH3osu1N9RBqLtwozrUfQc1HmYUc8i9smqt3a/us2KK1mR/fv3h/zDKoGWBw119eRloN8wXEYzsoQmENH6oveZoRcidUDXoQzbDE83+sQTT2jp+vRC6RwXLlzIS52LzMxM7buLxgspzWV1dXWb6TBDgW5kvv/++1oDvOiiizpsh1BTU4Ndu3bxUnNIjCk5l91ub7hAi4uLMX36dMTEtJ4lm6C0r5SadP369fxI+0PpT2kLlvHjx2Px4sW8JAeqV2pL555b/0w0fcyZMwc33HADfvvb3/IjcqDf8sEHH+QlfVD7Wr58Oe677z5+xBja/Wozo8e2KqHOwKBG/pvf/IaX5EB32ymbIOWslinOtFhp8+bNePPNN6VsxxNnguakf/LJJ3jrrbe0jo86pvT0dE2w20LUI5SJqDdnhodKc4ZF6oveY4Z9lqo78qCNZO7cuXxPHyKPlwkXbrrpJh8TBl5SdFQqKyt9w4cP5yVrMGvWLL4XHGxUx/fk8fzzz/s+/fRTXtIP86B9LpeLl+TRWo7647Fnzx4f87x5yTgMd4nYZ/I9fYhOqA8H9CbjUVgbK4Z9RNuVGR5qKLaZYZ/oqF7GtdzuLSvUpc4dmc66gjLckDXFSqEwXKCD7X066k0nI1Dec3hAo8BwacdWb5NWtq9DeNDBDkE6s0DTIp3OfJM0XKDf0WrCYaVhupGYYV9YhziCNbIzCxQ9d1HR8enWrRvfsw5Wvq7INhH7zHLmrOQ0dl731QKYtTJKIRcSaKuNBK3kBTZF1DYanVv5elEetEJhQajNW004rBw6FLXNrO8kko9Elm3tLtCdGdGk6gprYcU2LzqzxAyHSTQhE9lmxjQ7Eftk2Wa4QKubhPqhrFlmNDiFfKw2EhTt/M24HkXXPpgVEhSpO1m2Gf5ryHr0SzhCOXG9Xi8vKToqVmzzoiJodYE2A5F0o2SbjE7a8F8j2F7Eap6HmdAiHbVYpeNjxVGQqNCacT2GYpsZHrSIfWRbWIY4OrNA03dXHnTHx4oetOh1Zdb1KHIeEk4rxvsJWbYZLtBU8VatRKtx5MgRJdBhAOWMNkvYZCPq3ZqBWTFoEWTZZng+6IcffhgzZ87U/UPPmzcPU6ZM4aXOBeUavuaaa5CQkMCPBIfD4cCKFSt0LXihjmDr1q2W6RDoOZSU1/f000/nR8T4+OOPsXfvXsTHxzfUA3V827Zt01KYEiSeFE6iv9N56ZytCarH49HSjlJ6UtpefvllXH311fyvLUM5uW+77TasW7eOH2l/Fi1ahKysLF7Sz4QJE/D000/zkhxee+01LRf0Oeecw4/o46mnnsLll1+O888/nx+RA+Vopzz1wUBP6Kcc0o899hg/YhAk0EbCBJrv6SM/P5/vdT7uuOMO37vvvstLwbN+/XrfW2+9xUsKo7nnnnt8xcXFvNQ6lDpz1KhRvGQNmMjwveCYOHEi35PHmjVrfKzz4yX9sI7D99FHH/GSPETqjtIG5+Tk8JJxtPt4htnA9zof5PmpWS/Whe6n6GmfR48e5XvWQTRUYdb1KGIfhRHMqGsR2+ipSHoejxYsUgQ6GEM78zxgGmaHItD0fivHDDs6epNZWVGgRaEc5VaF6lmGCBoB1ZuMdtDuVzdVeGf1ouniD/VHNb7uvGgzTH2oc9zY1JuljjpZPUJuJqLtwiwBFLGP6tkMrRA5B13HHWKaHRHMFyQP0GqN2yzoYgjVgza87t7JQ8RD5cC+ShQ+XoACbVuEsl31ouxC8U1pKDz+I/6k49lWDuc+XpAELVjQM0IJpzCVGd9FtM2SAFp1xK03HBYsUgQ6mJVC9KU661Qz+u7tNWTzvFPIxbcAi9a5tNkLtDmdTgqoAT3ikXZbJjJvy0D8wULkvuzgr3Fi+0obImz8g5rhwKIrclHm4cUGvHBtLkf5Br5toxe4UXrTCchd54aTyof8Nvi3Y22ifMYJyHjZzUtEJRaNykFZDS8ySLAbPnuDA65D/A+MylknIGdD8G2MxErP6jW6OK3mZIiGvmSITFNEnTIzbCNEbZNhX7uHOKgyzKp4q0EXf/t4BG6ULSiG7cpsZCfWYdLjhSh3VKGKbc499cpq06ak2XDYH/Koc2l/r3K42LuPhxeedUBUJC82YEP0gAQkxCcgxl2MkQ+VaZ9Dnx2xrxy5gxZhXbXfhqrncxCVXsR8dT/UX3gDI0FbK1DC3ly1oeyYF723HLOTi8G6F0YdXDX138MN1w5mT+s9SqvQsFVP0iErtl9Rm/bv38/35CHqbdbV1fE960FOhYxOWopA0zxUvdAP1VlvdNEQOhQPOtTwkI2050SmfpHRiGT/NGJbIcYMGolJSyqB0YUomRjL/xBANRPF8WlImzgbpTsCPdSmH+bHxgQ/kp0zwtayWHYdmIzkEcmI8lYhfhQTcn68Ke6dVXDcmYvcRA9KJychKb0QtTFxiGTvSGDvp89IHhAJr+aJ1+GwYJj/8OHDOPXUU3mpdaw67BZBz4jBCETaLbV3q2qFLNukfNtgKp++lEhyknCAFk6E4n1RPYs1ikjEjo5F+YxxGDe3ApkjkpDAvdvYPn7X1+NyoCw2E3lT05EyIh4xvWO1vyfEx8CuvcKFwok5sE0sQck1h5F2SwbGjWefNz4fq5kHe7hpRMFThpxzkzDusSKU21JRMSeFfw6jaySiUcW8XrZfU4r8uQ7EMDEPxOWu5XtA7a5yJA+KR+zQdMwsrkBFcSZiNUe3ENlXjEOOFropRJnm8TsbhTuCge7M9+rVi5dax4oetGjHbUYKXGqzVhZoEduoYxOt8+Nh+LclI4OJQcv4Uh2FM888k++ZjQ3xtyxE0UtLsfSl1Vg6IV4LZ9AW3TsaMSfaEBkTj1RPEbJuJdHNRZnbH/KIjIxB9FAb876Zd1obBRuFFuZVIm9eEZYuZp+3OAdjmHi7m97A2+VA0a4xyHwoC+mJEdi+kmLgC7F6J/tbzygm0IQLxTNygIdWI2XjGIx8pBL1Ou8ImDkSf6cTJTc28a972Jn/nIicFUuRPzUb2VMzkap500mIaxZu0QeNBHv27MlLx8csz1M2ZlyPoiEOs7RCtMPtEAJNBDNspwnenZlQL2xjhtdeuNYwwVxehrrEhdg9PR4YmImStatRsoxENw8pNgeKn1yE4s1RyKosQqo9Hlkr8zTPNWXxesxkon1cmAeezHzrwlnMu11SAQ+T05QpkzDmXP534hMH6say19yWgsxlVShhHUfjT+U3Grcwz7gy4KYgif2Tb+Pnv1QgZ+xIjLxiJDKWOLm4R8LeV9sJGr2eHr3Gil60CKKJ/oNB1IOma8WMjtBKtrV7iOOUU07he52PYGL1LWGUMHhW5aDfmghEO8Yg6WkHPxqIAwWjclDXAyhMzEYpv0to65uoxXvjG2IVhB3xj6Uhlr22EfZUFPkqsPQh8m5pS2XiboN9UCbsXfl7Lk1F1thYLsrksfv37H0zkTWQPOZjNxobbSPSkHnb3XjkXy7srlyP9WvXo+i2Y5+TcOt6pPbXCkFBzxrUM+Q3Q9TMwowQQiiIiGdHxvBfg37gcGqwMqFkPqEKrFGrl+y7SlCyJROLrmfec0vY6lC2sgy2OZOQ0kiQm8I846npiG/DofYTieT7liKTie/x3hNz41IsHOs/qXajsZWttVNGDkhu3mHoIDraH3hpCxJxqwubXswYCYiGOOg9Ztgngiy7DG9VVPnBDLvNGLJYlUOHDoXsERixsCDyyoVwFRehpHIpUlsMB8Qje2MFilasxurpia0KYbhRnw2vLazYhq3saZJtVrfPKhgu0NSThIs3IRtRT6IeqmejFrrYeDihVejGYWdRZo7eOcH0O1hNcESvQWPuaRwf0bqi95lhn0jdkW0yVmEarqTBehNWa9hmQnUVyveX1SgUfuiZkXqw6rBbBBkJf4yC2rpV61qWbYYn7H/00Udx77338lLbFBUV4ayzzuKl4CAP58MPP9QlUhdeeCGioqJ4KXjo2YFbtmxp8FgpPklJx6m3pQUNtNG82cB/21rC/p///AcPPPAA/vznP/MjwVFRUaGlLP3LX/7CjyiMhB4kMWPGjDan2tHDAeh1r776Kj/S/jz77LO4/fbbeUk/f/zjH/H666/zkhzWrl2L8847D337Bje9Jjc3V2vrF110ET8ih8WLF2P8+PG8pI+dO3di/vz5WrJ/IzHcgw52eHDFFVfwveChhR7Dhg3D8OHD29xCEWeC5nZfeumlDZ/3u9/9TvuuJNz041BHQU/g+PLLL7UlqXryi5AwU0MVxawhX2dF7z0C8nGsNhIUtcfK94ToerNaPdcjrd7IgzaSgoICvqeQDfOgfStXruQlhdHceOONvm+++YaXWoee8sE8O16yBsyD5nvBwTxovicP5qH7Pv/8c17SD/OgfWwUy0vyEKk75qT5srKyeMk4DPegrdrDhSNU12Ysze2sUOhMT3tm1xHfsw6i12Goc/P1QLaJ2GeGbYTITUJZthku0EowzMXKQ9KOTjCzbEQF0Wp89913fM96uN3Hz6PYnrCRFt8zFiXQHZxg8p4ogoNmcYSL8OrFjNEAnUPk3olZbV2kDkKdkdUahgu08ujMg+qaliMr5BBM3VpNyEXtMSOzpOjNPrOcPxHbqPOQ0bkpge7gdNZUrWagNxZJqQ2sJtCi8+P15L82AhEP2sq26Z0zHyyGC7Sa9mUuVhOGcEJvW6bXmREaCAbR61Dv8vZQEA1xfP/996bUs4htsh7bZ7hAK8EwD6uJQrhBo0E9dUxtPlzaPS2wko1oXdFMCavWc4eZxaEwDxqCq5CSPGTFFc1A1G6zBFAkBGPWMnSRuhMNKbWFEugOTrh4blaEHiZBK0U7IrIEwyisJIJNETmPLNsMz8WxfPly3HLLLbykkMkHH3yg5TIJfOgBDbUqKyt5qTl0Q+s3v/lNw7P2KI+Enox4JFaUA0FkEn8gTqcTX3/9tbZPHmr//v01e6gZ1ucwabqJxPeo4+rTp4+W74Fsrqmp0ZbitwbVIb3ebrc3dHqbNm3Sclr069dPK7cGfaf77rsPr7zyCj/S/jzxxBO4++67eUkf1HYGDx6sfR+ZrFu3Dr1790ZsbAsPIj4O1113HbKzs6Xn4liwYAEmT57MS/pYs2YNVq9ebXguDiXQCktAN6c+/vhjaTdbCBLhrl27Nmynn346/0toWFGg582bpyV7Cgaq+9///vfa7yCTN954Q3seZ1xcHD+iDxLonJwcDBkyhB+Rg0jnJkugyXMxFCbQfE+h6BwwgfZdc801vGQNHn/8cb6nHzaC8Q0YMICX5ME8aN+HH37IS/qhOv7vf//LS/IQySf0n//8p2Pk4lAoOiOi09pkYTV7msK0h+9ZDyvZpgRaoQgRillbTXBE7KHvEeo9Br2I3Nym94i8zwxk1ZsSaIXCAKwm0KIetFmet+isBzPqWaQOZNlluEBbtYdTKGRBbT4cQhxmec+EiKCZaV+wKA9aobAwVvOgRaBpj1YXQas6gLIWjBn+aygPWtEZsZpAh0OH0RQSaKt+L1m6pzxohSJE6OIMF0E0y8ESiUGbldbASrYpgVYoDCBcPGgzvodoJ2DlvDMqxKFQWBQretBWvg4pVCEiaGbFx0VsUx60QmFhwkWgzfBSaYaJSH2RbWbUs8g5ZMXHDc/FsXXrVrz++utakpuOCuUk+Oyzz7B3715+RD6UJ2LgwIH4/PPPG5IJBRITE4Ozzz6bl4KDvg8lIqpPRlS/T7G2nj17asmKoqKi+KvDhwMHDmgPGqUHespMVUl1esYZZ6CsrIwfaX8eeeQRTJ8+nZf0Q3ku3nvvPV6Sw4YNG7T2RomZgoESGN14443SkyXl5+drOT+C4f3339fyEFk+F4dCoWh/mEDzveC47LLL+J483njjDZ/D4eAl/UydOtX37rvv8pI8mEDzPf1s27bNN3HiRF4yDhXiUCjCENF4bWDqWllQ+EXEPrOevykSHpL1BHgl0ApFGCIq0GasiGSOId8LDtH3BYuI0IrG1dtCCbRCEYaI3uwzQwSp8xDpQMg2GV5qU0TPoTxohUKhC3pyjgiyHt0UCHmbIvaRbWZ0IF26dOF7+qGb0MqDVigUuqBHlIlglgctYp9ZHrRo3SkPWqFQ6EI0xGFWDFrEg5YV522KqHcvAyXQCkUYIurNmSHQZJuI0JJtZnjQIueQ1XEogVYoFA2Y4aGKYmXblAetUCikY4YI0jlEvFQSQdHpg8EgUgfk3cuwTQm0QqFowAwBFIWE06r2ybJNCbRCoWjAjBivKCSCZiRzEo1By7BNCbRCEYaICq1ZHqqIfRRGMEOgRZBlmxJohULRgOgCF7OwqgdNKIFWKBS6sJLINEXUNsKqHjShBFqhUEjFLAEMxw5ECbRCodCFqFiYkdKT4twiIkjhFzMEWiQOT99HJIdHWxj+RBWFQqFQGIPyoBUKhcKiKIFWKBQKi6IEWqFQKCyKEmiFQqGwKEqgFQqFwqIogVYoFAqLogRaoVAoLIoSaIVCobAoSqAVCoXCoiiBVigUCouiBFqhUCgsCfD/ASqvHisYGsM/AAAAAElFTkSuQmCC;" vertex="1" parent="1">
          <mxGeometry x="73.25999999999999" y="26" width="360" height="249" as="geometry" />
        </mxCell>
        <mxCell id="gsk0wDziKHdw3YsIVp2X-36" value="&lt;font color=&quot;#cc0066&quot;&gt;2000&lt;/font&gt;" style="rounded=0;whiteSpace=wrap;html=1;fillColor=#f8cecc;strokeColor=none;" vertex="1" parent="1">
          <mxGeometry x="203.26" y="86" width="50" height="10" as="geometry" />
        </mxCell>
        <mxCell id="gsk0wDziKHdw3YsIVp2X-37" value="" style="shape=image;verticalLabelPosition=bottom;labelBackgroundColor=default;verticalAlign=top;aspect=fixed;imageAspect=0;image=data:image/png,iVBORw0KGgoAAAANSUhEUgAAAWUAAAD8CAYAAACvm7WEAAAAAXNSR0IArs4c6QAAAARnQU1BAACxjwv8YQUAAAAJcEhZcwAADsMAAA7DAcdvqGQAAFItSURBVHhe7Z0NXFRV/v8/trYNm9lQWlBaYlrBajlUq9DThmu7Ye3+hayEta0wK/EhBd1UsjKwUrAHpQcVbW3BthbcHsRNY7RUoIcf46oxlg9jG8WYFqSWY7nN/3zvHGBAwDtn7r1chvN+va7ec2eGe+bMuZ/zPd9zzvd08zIgkUgkElNwCv9fIpFIJCZAirJEIpGYCCnKEolEYiKkKEskEomJkKIskUgkJkKKskQikZgIKcoSiURiIqQoSyQSiYmQoiyRSCQmQoqyRCKRmAgpyhKJRGIipChLJBKJiZCiLJFIJCZCirJEIpGYCCnKEolEYiKkKEskEomJkKIskUgkJkKKskQSYtTU1PCzwPjss8/4mX588803OHr0KE+pZ//+/aivr+cpffjf//6H2tpanlLPsWPHsG/fPp4KHinKEkmIMX36dH4WGNdffz0/049XXnkF27Zt4yn1LFy4ECUlJTylD9999x0ef/xxnlLPnj17cNddd/FU8EhRlkhCjJ9//pmfBcYvfvELfqYvItuCUt66devGU/pAf180b1oiRVkiCTGoGy6CEaJMomcG4WsNasxEGjQpyhKJpF3MbimLNBpdqcGQoiyRhBiilvIpp+gvB9RgmNVSpnyJNGhal5sU5c7OERdKV+Qhb0EeCta64KFrBx0oWsTSq+2wb3DCN2ZdD2fjOeOgE/atbp6QhBI//vgjPwsMEj5RQVfL8ePHhYVPRMwDQTRvVG5a5k2KcqfGhYI7R6IECUi7Nw3x4fWoZ6rs3pCLjAM2JN8QBc/6NERPLkV9TSmyUkrYJzgsnTm6EA6elIQOJC4idO/eXXeLVNRSprzpTTB503IQUopyZ6ayCFnds5B9tw1WqxXRw2yIsLDrx5kyh4Wza1FIHD8R8a874PIcbbKSiV6RiDqi2NWSEEPE2jMKUeEj0dPbvSKaN0KKskTB7aqCe0AEInjaH7ejCs56F0qXLIZjtA1RB92w89ckoY2opWyEmJN7ROQ+9Dm9p8SJ5o0+I0VZohARHQ/bWkeTC4JZyB72PFp7RQFfVKBwqR2ePxagamEirH2ikOQ+irqG55Us5x5kVktCDVGB0NIv2hZk7YrmT2/XCuVLNG9aWvFSlDszQ1KRNTgX6ZMLULqhBDlJMRi51AnLGeHAwERMnJ6GpGHRsJI7rk8cEkcVIGt8PkrWFiFrWg4wPgHRvr8kCSFExUtLa68tKG9mtZRPPfVU4bxJUZZwIpC00oXSabGwwIrE56pR9gCT2V425N4Uxa74E4W0EvbehalIiEtE5kr23uk29jlJqEHiIoLelijxy1/+kp8Fjt6DfZQ30d6ClnmTotzpYXLcz4aEGxJg68cldkAiMsa0JrjsvVYrP6QchyqiomwEonmjaX56fy/Rv//TTz9pmjcpyhJJiCEqENQN1xvR6WMejycoK1sNlDcRN8QPP/ygad6kKEskIUZYWBg/CwwjBvosFouQ8JEo02f15PTTTxdqMMiKP+2003gqeKQoSyQhxhlnnMHPAkNvS5SgvIkIH7kIevTowVP6QcIcKNRgiJZ5a0hRlkhCDNFBp1/96lf8TD9E3RdkjdJYiN6IuH5oXnh4eDhPBU831mXRv8/C+Pzzz5UdEajFMyPU/WgYBDvzzDNPWkH37t2L//73vzwVGtB0oIbfqaV/kSyIc889F+edd17jQ08V+JxzzlGu9+zZU7kWKLQLBd3P7XYb4tPUg7POOguXXXYZT3U8EydOxOLFi3lKPddccw02b97MU/pAgep79eqF6667jl9Rx1/+8hc88sgj6N+/P7+iDw8++CCeeeYZnlKH3W7He++9h8cee4xfCQ5NRXn27NnYuHGjUknJ/0MHiZ3/uZajlBJJR0NbFH3yySdYv349v9LxTJ48Gc899xxPqYMaZBJKI0T57LPPDniXk7FjxyqiPGDAAH5FH6ZMmYJnn32Wp9Tx7rvvYtOmTZqJMjn3NeOhhx7ybtu2jackktBn165d3uHDh/OUOZg6dSo/C4yrr76an+lHcXGxlwk/T6nnzjvvVMpab6ZNm8bP1FNWVuZlDQZPBY+mPmXyFWm5skUiMTsiK8D0JjU1lZ8FhmaWXjtceeWVuPjii3lKPRMmTEBERGtRXrQlJSWFn6ln8ODBSEpK4qngkaIskQSBGUX5iiuu4GeBwSx+fqYfF1xwAXr37s1T6hk6dKghsy9Eyo6+j5ZjCporqMjIqkTSWWG9TX4mkWiDpqJMVoMUZUlXwowzRjw1Dtg30K4zdFTAdYS/IOkUaCrK5LowIqiJRGIWzGeEeFDvruPngHNVPOIXtb6/TP3aTIx83O7bQsxAPCpuWL/TDkcNT7SJB65KB9xi4aNV4oZ9RSlcJ7uHp14Jm6sF0gEskQSB+cZQLIi4MkEJUJVgY6K1IQnZo238NX/qUf5WIayXxugTKfC4G45Ga913OGqYGtcUITUqB/Z9FXAe5O9tBefrw5G13gXP+iwMv3F44zFuRgEqGj/nQFFcLsrb+TuqcduRv8C31yUd+Rsa9q90oeKeQuTMGI7Mt5rt3dOMigXhSFutzZ6X0n0hkQSBaev7vhJMTMqDc6ATRSvtzbcCU3Ci/IUwOBYmIfXxIlRovYdufR3KVw1H3uamO9f5bT9W8Uo8E13fTT1b8zHutnFITRqH/K1N76ly18MyYiLSI6qRMK8MZevKsGx+GuJ68TdoSUQC0qdnIGN6OmwHMmFvUR6W43Uo2dm4w6WuSPeFRBIEZqzvno/zkTyjHPHPr8Ga0iosji5F2p1FTZvmErurURGRhoKKcuSPtqJqbjJSX9FQdHpFI7YvmCUe77Pa6bi0aZl09IAklO+rZZm1M0veiaTnl6FwUgQmLiwF6aGlR5N17/G4UbXdifp6l2J9O3dUoECxaAtRzt+jGUfKUbo6CYl967iFX6WUW2RkFI4eZ3mpzMHIxHHIvIdZ7o+31tgFj+aWskTSlTCjpWy5Mh3Fr+Ui5VJyTFgQPSYXxStTEOV72Qft2XhtFCIOOuHsHo/054tROLbZOzTBvpsJL7PKC1K4C+LO7OZC6vGgfjf770gF8l6wI2NMgrLnZGREQ14iEHUpULupEIVrnSBvee3xCCTfm4a0exPRmmNGHA8qns5CHsuz4wAQa4tlBysj/irwJQrnrGFW+zLkzkmDdWUe0u6ZiCzWQBRW8LdogLSUJZIgMFd998A+p8n/OjyuP7oNjG9K35aHioaZGMMyULc8BWHrs5D0uj7d8ihmDbtrXXDXRyKZif6adWUoW5mFeP66gjUR2ZtscL1ejeh5pci9qZWgQ6cC4demIX1Mos/iHhLF49SEQyxIaevUr81CxoaRKP8iD5GLRiLtrboT79HdBddHJciZUYiohYtRvHwxsqdnIDWOv64B3WhZHz8PGop98cADD6BPnz78isQIvvnmGyVA0vfff8+v+AIs0UojCgBVW1uLgwcPttqTofdRgBiKR0AxS0T54osvlHx89913rc7dJfGiCfYU7InYtWsXvvzyS+W8LSjwEQWgoSBIrUExJw4cOACbzdb4d/2hIEd0H9Fpa7/+9a9PutBh3759GD9+PNatW8evmAjW1e72fDRqVya1uuM54V6VDNu+LNTO1NbmVDhYgYIV5Y1d/MgR6UjpVYLkq1xIXViF9Hbu65+v+g05SHu6CuERFInNisQZuUhSQmBUIKfbYkTXFiIp6MV+9XBucMJii0MUtQvHmQV/3AKrxYGcwfmImByBIk8yysZaUeFwwzo4DtF+vu2Kx7th8aW1KBwd/KpDTUV55syZSoSq888/n1+R6MWGDRvwyiuvKCuk9IRixdLOChTNzf9/ut4AdeEpqh5FkqNVV/Q/HXoHJdcTCjBEEcNGjx7Nr7QORdUjUX7nnXf4FRPRqiiTNT0SOZVM3iKiEO6phau+4beMgu2WFGRO8rkQ9IGJHVNpaw8mgx4mem0s0iOrNa0mFcX3tr+1r3srE9Ih0S32ozQe94Z8rAlLRdqw4HOiuaU8adIkQ9aod3VIlMmSvPbaa/kViZZMnToVv/nNbzBmzBh+pXUo7Oi9996LtWvX8ismYkcBkosiUTAvscNFS6IezSdZytgXkrZhVpJGq8s8zNxqNPB0QO0AHrllTFvnB6WhWApyp0Pz2RdynrJx6FrW9TTtKAsTbxuO4fdkIm9BPuwnXWHlh8eF0kVNk/ELKlmftTIP4fcUwfFWJpKXOvkb28HjQNEiuzJFqol62GcMR/ILxchP6o+Ja/WYlOTztatBw46mRKKg+ewLaSkbQ1CCvDUfIxtG5BuOP+bA7m/FWuOQNj0bi18rQ9nydERWTERFM1GuRykTx+E3JmPiHCa800YisttElDZopCUKCWNp2lIaEnuVY9zKpgEfzxEXStwtxNTDLF+yfvmhLFk96ETx5IoW82uLmcjHIWtmKuKGHIXLXYf6Hf4rxxzNYj1UzOmGzA2Bm9Rq96uj30HOOJJoibSUOylkoQlbaUPSsWZ5GqzrE5C9rhBpVjsSZs1GQotBF88+HthmdQnWuCKAZlu/WZE4n1ZZFWPx3AxkLMxCGmqbuScsViss8DSPdXD8KOpOcGF44FhdgIKlviN3WiLC/ljQXIwb6BOL+GF25KYkI+tgNnJHRwEH7MhJKILP9q6Dq6ZB8N1w7QTCwwIfcKR6rKYu08yOTlHna0owcZpvYUYDHRX74kTcKJmQidJmXSIH8m9LRdFunuxAPB/nYVyL+CGOFzRebOOH5paytBqMQa1otEkNs1b5aWt41mcibFQh6iNjEHtDGvIrajH7Sv5ia7C/50QUIhqmCdWXInNwDFLnrYHr0kxUz+W+TWYlu75o6XKwwDaGlrj6jsxRscCgKETyV5thsWF2RTmKi9agfEkaollDYh0Yw/52FMtn08oxxedcX6eswhKBDAy1G5CaqXdYv8MBt6KyLYL11DiRf9BffnWOfdEarOejxL9gePZV+AUcYnXnhdrmjcNWOwocMYjWd/cnP6i8nLw3Vw/nZldjz65+VznWNDMkmLGyxIGYaO0X2xDSUu6kBFPOnq1FyFtJ66pcqNpQjmpW+6pK8n1+X396RyLSehQuRxWqKirgaqml/vSwInpEFMIbnvB9Tth3pCJzfhqSbvCb02llIh994tCT6/WJSP4juUPiEfvHfKRfG8vFohyF5Jde+nKzgDHNjhdLsRdLkHHjOGQq1wpQSnl2OIXDVtLuyWr2kzRXnXejlDV+BTvovBYV89NRzHoKraNz7ItWcK/PQuIrvv5M7aZcpK9ue1zBtb0ctZZCpCdORP7aJoHUDwpulM1jXjhReG0eytuqO6xul7stKJw0EhMXlbb/XAigeRMvfcrGEIz/3nJpItLmFaKuLhepUVFIXlKHglmpSB7SJJaWuHSUz7Th6OocxD7B1/i3ZzjSyqx16U3LXvtFI3GEHbl3jsO48eNQ8DGzg7pbkTCA2bR9Y5EU0VyYo0YvRvGbZSibn4yIIdlIHcFeV6y8eKSSBX3vXUifmq74qOmIrstEObunkn7wHgzHNchcuQy5irVNDQFZzfGIOVH/VUFzsdXs0E0uJHPVeTdcH/l869XUK3FU+FxQjhZdbb1jX7SB21Wu5Mexq571mByoUMYBfPElmmBW6/YSxM+yo7wkC7H1RchsOeahC25UbfLlx80aNadyzvLgbK66nl1VKLk2C/aKYmRdVY+iaSORIzBu0Raa1iayGKQoG4N4WbMKv5WsSH646lDnYv9vKEbBojwUNUTp6hGFOBI2G+uiMes2nlm7UY0+Z+rq+Spss2N1gWK5Kn9DEekyFDOhXLYwHWEb8pHHKm5iuBPFP6W1sSigHqVF5Uh+IQNxZCa7XSiJIOcGp3s97NNikb/binBa+9oj3LfcthfL390VyBzlG7RMXerkXWErIvopJwFDoqx2EZS5XHYRiBhAMRuild/L4znKr7eAx76gDriVNdJ6xb5oSUREtBJTIrovay2PHEXruauHe18EYqPox49A3JjZWPbmiWMe2sMMhsEN8S5ajIX4UX/QhYjB9B4LIoalYPbyNZh9g4ZOINbSawbtZs0qM09J9OT999/3lpeX81RgHK2r89a1cRyl1zflepkF6jvGJnkTbknypoxO9CaMSPNmLC/31qn4G82oyPZidKG3lp3WFiV5MVdlvr8o8y57c6/f36v1Fo6GN7uCnR5l9zrhRidS5yzzVh/giQC46667vF999RVPtc2ePXu8Y8aM4amOps675gF4k56v8ta6ir3pEUnewi/4S/QbRGR7q3iSFaC37jA/NYi6N9NZPVjsrard6y1+IMKbVEQ1gij3ZiPCm/0RTxKHW6lHulLlzR1i82aw+lZbketNZGXVUEuVOju2WKm/Cj+xstMxc93oH67PQUMr+nJycnhKoiebN29WLOX4+GbhXcwJLfddGIXa11KAVcmI3J0J78MiEVyYJT0hHPmRxci4hvslesciYZCgj6Id7rvvPsydOxfnnnsuv9I6FFsjOzsbf/vb3/iVDqbehQqHy2eBhscgYQhfXUu/wSigqjYD1rcKYD/OLOmGYqOQmLsbuuiRSHggBTZdrNJ61sOqgsuXOcRca0OE4hKjGBZJwEe1mN2vAgWrXIgcRHYo4YF7hxO1DVbroCRk3KSTRe92wO707doS1jcWcQN8BURxOCLXpqJ2ZQJcKwrhYtZ+BDeMPW4nnHzwEt2jkTQ1sXk0PgE0FWWKfUHblKuZ40kBcijYTGxsLL8ixqBBg5SAOv4cO3YMTzzxBE8FxzPPPIP//Oc/uPDCCxX/YXV1tRL/ISYmRon3oAaaNnXkyBGlS0wHBQ6iYDy0e/C8efP4uwKDRJny0ymWWdfYkb/KwV0KrJN4bZp4jACaz8z6lbU7q+GJiGXCYoGVHVpDgpyenq4EamoPCoqUl5eH5cuX8ytmpR7OHUA0NWBHWBm2MSvFN43ReOqZ8GIQxbCg2Bht+A26W9uMlaErR1ijdTAStn4WZVZP67nTsB6SKGsFuS9+/PFHnjo5V199NT/Tlt27d3sXLlzIU+Js377de8stt/CUtrz00kvet99+m6cCZ9OmTV673c5TEq1houz9+uuveaptHA6Hd/z48TwlkQSPpqNy1J1WM42ogaFDh+Kjjz7iKe246KKLFAvn//7v//gVMaZNm4alS5fylLaUlZUpAW+CgcJySvTh0KFDymDqyaBekNrVfxKJGjQVZZqzSYdamKWsuAb04M4778Srr77aLMRkIDCrX4kUdjKfoigUf/hksXrbg0b8jx8XXBkhOSnkAlMDzWeWoizRkg6dEkeiHKw12x6zZs3C/PnzeUo9FLicBO+mm27iV7SFYvAOHDiQp8RgvRzh4O2Sk0PxoNVA9SQsTMv9LyRdHU1FOVCRICuUBvz0Ijw8HH379g041u2jjz6Kxx9/nKe0Z8uWLUqDFCzSUtYPGpilhu9kUM9Q7YCvUdDgowhbt27lZ/rx3//+F4cPH+Yp9Xz66afCvV61kH7t3NnmEsg2obqyZ88engoezS3lQKGdKmgLIb24++67Fb8wbRukBrKsaccJPa2f8vLyoKeyUY9EpLz1wwP3xydZit2JoBk2asqXRFltjAyjWLx4MT8LDJFeZaC8/fbbSk80UFasWKH6GRaFRH/ZsmU8pR5yRa5atYqngkdTUVZjWbSExIkGvfTk2WefxZQpU3iqbT7++GNloHLIkCH8ij5s27ZNmcoXDFTWgbiK9Kce9vlJLaJ6MaHeSqv9/ALjMDw1vuhzDv94C8fr4aRVgpVGxDk4OfSAqqnPZF2RgJsJkeeQMKI+Ud5EjAkaQ9HbCBEtN61XdHb4U01zdd977z2e0gdyYdx8883tzqSgB4tep8E9PaGujhbdXaqgZrPQmuNC0Z0xSJjvgKsyC7boLFSw3qdrVSpibsqFY18Fsmz9kbWZXTxSgZxrY5FZ4oSzKBXRSUWth+00ELWuOPM1juIYJcoimKtX2Byt86bpryAy8EQLSMj815uUlBRs375d2fW5NWixAPmS9eb999/HNddcw1PBEcj0Q6PxbChA1pHZWFOUgbSZWZi4uwD2KjsK5ngwe3UhMu6ejawJLhRscsL1ejYKbliG4vnpSJ8xEfGr1zS3ojsAte4hEplAZhwZgchzSBghyqJ5M8IAoTEaEatX6+dQ019BtBWkHZmN6AKSz+zJJ5/kqSZKS0uVOcORka1G8NUUEuXExESeEoceILMNMPlT72Zia4vxLTndXY3yiGTYerjh3B2LGCVGrgvVFRFIHhQFd00pbIN9cX09ziqUD4sFxaLpSNSWLQm32aw40fnrRgRWEs0bibKooKtFNG/0LGrZMHe4pUyMGDFCWTasN7TlPc0/pqXTDdDgwaZNmzBq1Ch+RV/IWg92aXkDaqdtdQQR0fGIez4bOSvykDwqD5HPZSDxsmjED1uM7CcKkHfbSOT1yUfGLVZED0lH+XPZyF+UiZHTnMh82i8EaAehtmxpLz8jLMxAEDWOjLD4RfNGZaz3bCPRXo/WawZMIcrXXXedsmW+EZC7ZMCAAfjwww+VNAWTycrKUs71hvzJdG+tMJcYRCBxXilSLuXJIRko356LhH7xyN5QjWW0bROT2oxNTuTeEIX4ueWoXpLkCx15y2K4Xk9D9KBUFH60BhnDOiL6QnPUiocZRVkUM/ttjbCURdE6b5rWJtFW8IwzzlA2yzQKGvT797//rUwdSk1NNczipKlwv//973kqOOgBMpsYWAfY/GIuM3pFI85/1xGiO7OMhyUg7tLmAYksfWxIuMHWGH2ro1FbtlR3Q0WUjXBfiCJFWRBRUSYoVoXe8xD9mTx5suLOCDb+RCCQKN9www08FRxmFOVQgh40NZjRhSRq8RoxcCyaN+qRGCHKIvnTOm+aPtXB+KRoapzdbucp/aEdK8aNG8dTxkCzTLRclCJFWT/oQVPjJyRLORhjRA/Mlh9/RPNGDYYRK1hF8qd13kwjysOGDdN9vnJHQosRzNr9ao+Kigp88MEHPNU5qampwcaNG9s8aHyhtraWv9sHWcBqghKJWn56Ipons1qiBH1O7/zRPUQMHbUNuFo0DXI/fvx4LFmyhKcC56677sLLL7/MU6EFTYWjiHiTJk3iV4KDXD209JSC5nd2KBYCxWvQO7aBGkiML7/8ciXyG7m4zjrrLP5K61DsFqrzFPzKLNx+++34xz/+wVPq+ctf/qL7DioUU4ZmOgW6ovXFF19UVtqS8aYXFJdj0aJFWLBgAb+iDprOS2F+X3jhBX4lSEiUtWLcuHFeZi3zVOBQYHHa8ywUoe9Gwfe7Et//Z2u7RyhA+/jl5OTwlDlITk7mZ4HBxJyf6cdjjz3m3bo18N9+8eLFysYOerJv3z7v1KlTeUo9zKhQtE8rNHVfsL8XlD/rt7/9rWFT44yGokhR8P2uxA/btuK/M6a1etBroUAobTSgNoZ0MIi6CMh1YYRPWcS9QnnT0rWi+UhRMINPcXFxqKys5KnQgSqTqC9NYm7MKMqidc2owEoiY09UznqXNZWbiFFJ+aLNDrRCU1Gmwg6m4GgaUijOKKDBsuuvv56nJKGEGUVZdL6xlsLSFpQ3kWecDJtgJhKogfIm0qBR3oLxELREcwUMdq7jmWeeia+//pqnQgNyyWi1aERiLoyYsRAoottTGTFoTHkTETByregtyqJ503pmlenM0ujo6JCbGldXV2dIsCOJ8Rjh5wwUmjstghHuC9rUQsQaJeHTW5Sp3ETyRg2GaS1l+kLB/rA0HYlWvoUSZo7mJgkOehhFHmQ9Oeecc/hZYIhs0xQoohsRk67oLcq0wpcajUChHoaWjbOmokyFFmzmBg8erEzo1w4PHE8nY/i0UjSE6PVsLULe2hZh1I+4UPGxm73bB+2OUbE7+HgcND852K2fOhMH//63xuNkBPJes0J+SC2tpI7k22+/5Wf6IiKu1GAY4SoSaWAp0JiWDYamokwO/GAzRz5pquiaVZCDpch/nonrhiwU8llY9c5iZK5yNIq0wo4ixD9X3rgVkcdRgPh59qC3JqIGhqLgdRV6/fkv+PGrr5jQrlSOtvB/nT7TWaHVXGazlM08WE5lJZI/o3z3Ir8l5c207gtCi8xR0B6t/MqutwpQPSEXyyZHIrekQrlm7aWEXm+G53AdP/Nh7R0JMKM/2DVm+/fvF/bxdVbOmzET1j+cPJB/rz/f2akFmSBRNhuiLkQjxJx60iK9aXItGOG/F5mrTXkz7UAfWclaZC4hIUEjF4YDJUssmHiLDVG3pGHk42tgZ7+r5Yxw/noT9Qf12RVOy25NZyLiwQyE/7HtjQNCQZAJra0kLRBdrm5ElDjRaXeUNyOeJZGy0zpvmjeNWmSO9rDTQpQ9G4qRe7AWBROGY3hKPqoH5MC+ib/YgoioWNanrkODjUGWc0SQ24KRPzkmJoanuh7nTpiIs5JG81QToSLIhBGr4AJFNE9GzFOmed0ihht9zghRFpl3Tha8aUWZuj9aWA3U3aduIQV7CQbH5iLEzylE2boy5SiclYiCSofvRXcVyjfQ9vd0OFE/KA6zd2Vh4qwilK7Ox8Q5JRh5SzyC2SqOXDDnnXceT3VNzhl/P86+bQxPhZYgE/QQm82nLGopG9HAUN5ENELU7REIonmjOqBl3jS3lLXKHLkwysrKeEqM6FGFyB3V5D+OGr0YJbew9LAM1L2WiQRbLGKVIwrWHgnIdrpQOCMR8TekIndtNZaNCm73TrL2tQpq35npfc849EoZG3KCTOgtFCKIWrxGzFMWLS8SS73dRCSuIvfQOm+ahu5MS0tT9rzTYqEEbddUXFyMpUuX8iudD9q1mnbK1gPX3r3424oVPNU1+aS6GgdYb8p2+eXKSlCt+PKrr7Br9248NnfuSZfHU6xp2pxh5syZ/ErHc9ttt+G1117jKfWQxa+luLTG008/rcS4CTQEJ2kLzWKi8KJ6QTO+aL/O559/nl9RB228/Mgjj2i2SYfmovzEE08IT173h+b+0Zxll0ufATi9oaXV33zzDW699VZ+RVs2sArw8343rr7ySn6lbTysW7rN6WT/6+8zVIO15xnoe955CNdQSP1x7PgEh7//Xjknz8IZp5+Onmecwe7bE2dZm+8N6M93hw7hM1bfjnqOYemrr+LWsWOV2MTtsWXLFsVNZaZ4yv/v//0//Otf/+Ip9VDsGXJhiMbOUMP8+fNx7bXXKsIcCPfcc48y1kT/6wXNlCJxpdjNgUC//5w5czSbMaapKNP2Sk899ZSy354W0P55hYWFGDhwIL/SeaCHlA6RFUJqCESUJYGTOe8JXH3jjRgzpskf3ho0mLt582ZTibJoD80IS3nevHmKSy9QUSaDj0T57rvv5le05yvWQ3rsscfw0ksv8SvqIEuZLGytRFnzgT4tp9VQd2X9+vU81bmgFUh6CXIDZhtgCiV+qbIe06i72X4H0WmpZCHr7SOnvInkjxoLvWdf0HcXuQd9RsvGTFNRpsqpZdeHgt6/++67PNV5IEEODz9xLrTW6G3VdGVOPbW7qvI1428gKl4klmp38Q4GkTIjg0/vxS2iPQXKl5YNs6bfkr6Qlj8qDbLQDAy9W0itoVkXQ4cO5Sl9oEpgCgvtWDVezpqNB+iYOQmjpryAjYf4a804hJ2Ve/AdTxmD+D0pjKMaESAhM5swd7bnRQ16CzIhavFqnTdN/xplTstlpzRfecCAAdi5cye/0jkg39IVV1zBUx3Lztcm4dkWOy95vnRgY2UlP5qL1nefNVxnx9Ya3zLz/1Xi0Ysz8cYB5S3NOS0Gd2Xn4AU67h0GTy0Q3loV2FqIPzzxHvbxZJvU7fHLmwP7KMTvjhfQb9w/8Z8vq1n6mDIg13B4GnrCn/8To65+Af/hSYUW92z23Srpb/EXGB88ewkeqvSbp8ueTbUPmykaRz9E8xMWFsbP9IPyJuK+0HPwsQG6R8iJsh4WA1nLnW2L+23btiEiIrg5zoFzDP95ezmeXeY7XtxSw64dxKcfr4On5i3c0ShYB/HG/LnY+L8BsF3ErPonnsG/v1ReUDgtIga2mBhEn1qNp257y/eZX5yGMPb3GwWwNb5ch6kPzYX7oj44s5XO0n8c67Af1dj4PmsE2vs7v+qt3N920Wn4z0t34B+fsWvHgf2nn4ad/xqFh9Z+hp3V1XBUv4en77sKT37k+xizBnAaazT8l02ccM9vK/HUnW/B18Qfwj53g0l/EPv2ssbE0tSaqO3Km9FSFs2PET5lEmVR4TOiByByD1ExbwtNRZkCc2hNZxvso6l8eg/wEVRJm1tE1fj3tPdw5oh7MMV2CFNfczBBoulw7J/w3uh34BDqGg3BPoi+qBfO7D0A0f3WYZ+fBWzp2RNnMm2yBNDj2f/+Uxj1iAPDmEL++08H8NCYSXiZiVwTTPSc1bh/4gMYdmgdpoy5A3e9toe/1oLT2P17snuTyPJLzTgtEkOHDcNvLzkN+/8vFcPaXMV+4j2n7DgDZ7LvbqPP09G/JzyKxf0djrbQIppGqMZyNJsgE6KWMrls9PYpi1q8at1JwUDfXeT31DpSoKbfUo8uBolyZxrsI3/y7373O57SD6oEp5xQEXoijJSMWbbY9x5eWPZ3rKW+O7Myw1GD/TwQnuW0dXj1RbKoC/DqxzeiX6NRvwcv3jkcoxb+E6trL8Jf3xiNJs94DdzNA+k1cu7QB7Fq2V9xOxO5c4fdg1dX5eKOC/mLCl9j55ZhuJxZ0Zdedw9efu1VvHxb6zt77yz6C6LvfwYvr6/Bpfetxl2D+QuMM38Vgzc+/4KdsV7Ba8vxcnRPNDcDDqCu0Z/N73nxRRh68wO+e95M8+f/ib/ePRsPKT2Kf+Idxere08yVQfzgOap6aqeWD2RHoodR1RISVhH3hVGuFVFR1hLTuy/OOussJX7E3r3NTC/TQv7kESNG8JR+UFk3L+7TYImuwqsrluPRf7wHXHIjHhj3Z4y6hL/cSC/8af6nWH1/b1TM74mHtizC7Q2ifGAPKitjcMfd9+CuEcySjO7FXyCqfVZ3M2rwxuOTMOr+8Rh1919wU8MxeTamPjIbz/5fwwdiMGXtItzBGoP7rlyOtp1RB/Hp1kpcfnMapiSzxuKHSuX7PPsvX7yS8N59lP89W5djStn1eHUi8FTKbLzR6H45gO8axZXf079xoB4DbJg6PwdPjmM9inG34k+K1RwLpu/NOOrxqHJBiQ4OmRF61oxwX4i4CGg2k97uC8qbSINB5aZlHTC9KBM0NW7r1hajVSaFViAasdiFKlBzA42J0BtbsHrmPXj0iVdxdP6NOJcJcL+LeqGO1LQ3E+2TdWSY6EX39gm7zzddiI2tDe410gd/engRVq/4G9ay49ErK3Fmch7W5ucqA39TrmiyIMgtctL78/xWvl2g3P8N1g6fNuiPmPL/bPx1oh6V1b3x1EsP4E8jHsTa1/6K37fUzh9q8EFlJXtfNWtkmgb33nj7I3wzeAumPeBrPMiF4vNBn4Fzz1dOmmFEKEs9EO2x9mS/kd7uixPdbuqgQX+93Reif190b7+20PdbagSJ8scff8xT5oX8ydRqGoFicahoBC+/bwueZNbgX7fk4k8/rMNDDdPXnl2HY1dX44UZk5hATcLUZ2mWQgx7n0/YpyiWZCp+25v+CrMwk1NxqcjY5ecnu2dzKL/7Xvwrv/89uH8Ys9bD++CuC3ri3D7X4+krBuO3KbdiaMM08F9xsWfvsV1t8+XxtN64lAYLWxy/HfEX5K7YiD3/9DUi5ELxddhPg+3Wv+FPflZ1GOvKqxEoX+MYGu4LESsxUETdF0b0RqgxE7HGtbbgNV1mPWXKFDz77LM8pR0UKOQPf/gDPvzwQ37FnFAQJcprSkoKv6IfmzdtwrGaL0y1zPo/r0zCRlsupgzS1sfWEeQVFOC+zOno1cvfhXMi9JtXVVWZapk1uc9EBsevuuoqVFRU6GotP/PMM0pPcuTIkfyKOhYtWqRsQEzLrfWCdp2/7777Ag7mdOjQIdx8883Kknst6BSWMlmfFI7w888/51fMCQ3ynSyqmJb8KBCQW08uH7soJASZOHpUXWxd0e64nojaWWTBGjH7QtQa1bucRfOmdQ+jU/iUCXJhvPHGGzxlTnbt2oXzz2/FOakDVEGPH9e/u9lVOXTkiCoRIFHWs94bCQV513ugT9R9IRqAPhBE86b15gCaui8mTZqkdDP0gASZQhK2hEZladUfdW0aZmq01uWkr7lnzx7U1NCiCh/UMvbr10/5Ifbt26f8DZvNpgwO0bUDBw6guroal112mapYFnTvoqIintKX8i1bsL/6E9zEGiuJ9sx48inMeeqpk7ovzBi6k6Zkikwj7d+/v+6znCgsJoX2TUpK4lfUQdHbLrjgAl2jxFGQ/zvuuCNg44+0g+I8mzJ0p56iLGnOls2b8dX27bjld8P5FYmWzFqQi5k5OejdWxnpbBOHw4G1a9eGhCiTUUHhK/VkyZIlioEzevSJeze2B5Uv+aL1FGWCfMNvv/02T6mDwkCQL9qUoTs11HfJSaCutder77zNroxa9wUtatDb12kUIpuGBoqoi0B0q6ZAEc2blnWgUwz0SU7EfELwE47s2oHDR3iyk0PLrNWIAA0Mmc0YEa0bIoIUKKIDieTrJkHXG5HfUutyk6LcSaEHT3SRgD58h+/fXILDtTxJ/MyEet8OfLNjL773M+p/OrCXXduB777lF4ifD+EQE/VvdrnhMUEH4H//O65K3MzYOwxG+PT+PlRnRe6h9wBkAyINGuVNSyNJinInRu/pS0Hx80Hsfy4DB//1KX7a+SoOzPg7vjkGHHlvAb5cWIxjXzFRzp6ML3ewLvPRT/HVI1mo37IXP773NNwL3sVh/mc6ip9/VrdDMb1HywdSC0QbayO+i6goG1XOImWndd40FWWzVc5QR+2WRR3BT9vfxNFjf8RZk5MRcWsyfnnsQxzb48B3b/0Ey+TpOO/GO9Bj2E9MsPficPmr+PHiu3HuXX9EZFIiTqlx4Gg9/0MdBC2xVlOf6YEUERk9Ee3ma70yrTVI9ER0gsrYCPeF6D1MK8oS46DKc7oBkbNE+bH+GyCqL3qyGvZz7V4cP/USnHr6IfzvWH/8MpK94Wc3ftx9KrpfEImfvnHjlAv6KqE6j32+Bz9b+1MEzw6lx+m/4medD1GBoPCYeiMqekb1CkXKjr6TaUXZiJZM4oMqgRHhDEUJu7A/ulUW46t1xah5bj26jbodZ/fti1Ot5Tjyz7X4Km8+POHJsF7ZE2H9BuHnd0tQu2YJ3K99gV+mJuLMDq5Kp6kUKFHLz4wYFYBJpGehtufSEWjdmEkV7aSYrctMEd7OTHkQZ/iia+KUfsno8+hYWM4bBOvMheh7bS/WaPdH5GPZsF7eF5Yxj6LvA9ejB6uBYb9Jx/mTf4dfXvg7nD33EZx3acc3NrRaUm0Zm+23ELUqtY4L3BqieTOqwRDJn9YNhrSUOzGndDNXeVsi++MMPz39Rc++OGvQJejp74o4pSd6DhyEs/r0hP+Qyqm9++PsQf3RwyRucrUDPlp3XbVAZLDKKKi8RHzX1PAZUc4iGqZ13jR9qk09GyDEoMpzyinm7M6FAt0DEDbz9VrEMPP36Ep5k6LciZE9E/34VViYqhVuZvwNzOp7JYIpLyPKWuQeVN5a5k3T2BcPP/wwHn/8cZ6S6MlHH36IXR9UopdfUP1jP/6IDxxt79DSvfsv0Puss3FOL9/ec9Wf7cJPKiblh1lOU+7zK0sYzu3dfoCe9ti5Zw++PviNck7T+S668AL0PvtsxdL4weNRIoHRNkxHPcdw9Jgv7Tn2o/L+QCBN6hMZiQvP78Melm740u3Gns//y189kV+FWZT3n9urV6Og/ePtNciaNw9RUVFKui12796txN81U+wLCqrz6quv8pR6+vbtiy++oD0Q9YOC/Xz//fcBxxyfMWOGEixszJgx/Io+3H777fjHP/7BU+r45JNPkJGRocTW1gJNRfnRRx9VDokxUAAUDX++DuPw4cNKxSYR1guKAEi7jPsfJxs1Hzp06ElnuFBUNYoMmJWVxa90PCR4ItEKKQrbf//bduOlBSTKDdHYAoFEOTY2NuDPBQqJ/qpVq3hKHVR3MzMzlcBUmkCirBU5OTn8TCLpGuzbt8/Leoc8ZQ7Gjh3LzwKD9Qr4mX68+eab3tdff52n1PPXv/7Vy6x/ntKPP//5z/xMPU6n05uYmMhTwaOpk8bMviyJRA+ozhsVl0Etos8h0wN+ph/B7CBiRP5E8kb50nI1pP6ec4kkhKHpZ0YsTw4EM0+JI0TyZ5TBZ4a8SVGWSIKARt3NJsqiMwGMEj4jZlGIYoa8SVGWSIJAWsqBI2qNGuG+MEPepChLJEFAc/NDxVI2Cmkpt4+mOTCq+yORmAWyrIyw4AIhVC1lIzBD3qSlLJEEAQWjMZulLLqy1ggrke4hKnxGCLNI3rQuNynKEkkQkFAYsbddIIiKlxEWPzVgoiJmROMnkjcqN9P6lI1oySQSM0F1XvqUA0Mkf0ZpixnyZu5fTyIxOSTIZrOUQ1GUjcIMeZOiLJEEgRlFWXSgzyhrVA70tY8UZYkkCEiUpfsiMETzZ4TP2wx50/TXM3tlCATPEX4ikbSD1oM8WiBqKRuFtJTbR9PQnQsWLMD06dN5qiNww76iClFjExHV3qyg4x7UH7fAerwCedMK4GSXjh50wROXjcLpcbDUFCH5KheyamfDdtyJkrn5KKx0Qtn1fkgGiucnwgoP3B87cHRAHKKs9IKxOBwOrFy5EmeeeSa/0jYUEnPr1q3o2bMnBg4cGNB+Z/TZH374QQm36P+/f5jNH3/8EUeOHFGuUVeewmSefvrpsFgs/B2+yn7ZZZc15nfXrl348ssvlXPKF71eV1en7BNHITPVNPAUMvHAgQNKnN3WysHtdiv3aeleuOiii2C1WpVYyN999x2/2gQ9Etu2bcPSpUtx66238qut8+233yp1vqCggF/peERD6F588cX47LPPeEof3nrrLZx//vlKGM5AoO9zySWX6B5P+ZFHHsFjjz3GU+pwuVy4//778c477/ArQUKirBVPPfUUP9OZ2jLv4vm53lx+LLbX8hfKvdlI8aZNTfBmvFnHr51IbVGSN2JeFU/5KH8Y3qj5/NoXhd6kiGxvwzuO1h3lZ/7UegtHwzvbzpMGU1ZW5n3vvfd4SqI1U6dO9RYVFfFU2+zfv184VKZeMAHjZ4HBGit+ph//+te/vFVVzZ89NTCx9DIjhKf0g+4TKHv37vUOHz6cp4Knc/obIhKQPj0DGdPTYTuQCbubX+dYjtehZKeLp1RwxI7ipXFIH2HjFxjuchQsyMNTmTPw+NJ85LFzOgo+VuzlRlwHW9xcEhKQn5g9HzzVNmSFm82nHIruC6MwQ940FWWj/D6NHClH6eokJPatg32DnR1VICmOjIzCUQpxu68E4+KSkTltJGJuK1JeOxEPKp7OQkkPN4qXl/rec7AWroh4pDHh/+uTczH93nTWAGTAVpcLu6uh226BVXxnpKChsg4lH77ZoF1J1NRnteJtJKLCYoQgUZ0VqbeUNyP0RaQMtM5XJ36qfWKat7sWjgNArC2WHVGI4K8CP8L+fDosswqQuzALSZsKMPG2cchk1u7itU3y7FqVhtQNI1H4URXyIvMwcoZd8Y06bBFQXMXdmfhaLUyoS1GyIhYJVzXcwYrwSH7aQZhNDEIJ8rurKV/aXNVsU+JE82NEfaK8idzHqN6IaNlpKcydVpTr12Yhg4lp+Rd5iFw0Emlv1THxDEezHdW6M9HdWoqCydlwzspF8WvLkMss3ok3NW2GGXlTPqrXzUac1Yq4mWWonp8AS48IpMVFIZy/h90NpXMmom5yIhz3DEfm6y7WJHQsVAmMsBxE8dTXw9Puhhwe1NfrXYr1cG7gA7QBQgOOaiw6GuQ0m/tCVFiM6HmJlhXVdSPyJ1J2Wuetk4pyPWotySgsYWLaJw6z11WjYDQJLbNoB4Uholc0Ynr8EglzHci+JgKxM4pRPMlGr56AhYmxpWGmxhEnShblIW8tkD4pwWcpk0X+RCryLYuRPTMdi9cVIjU6vNW/ZUacS5ORV8kTHM++Cu7uoaO5aNXvaLjOjkre+By3I6tbKkradZ/T7tP8FG6UjA9H3sc+ca5vcShvqylBWngeKpT3+3HQ6Ze3CrhoauLHOYhMLIBjn4OlScz9/laD8O8uwMjIHDh4UqEyHwnTuEuK0ey7baC/xV9gVMzphswNTY0EPZxqurJkKYeKKBvhvqC8iVjKUpQFMc5ysyL6Br+paORiUFTShtnblyHt3myUMRFG9wjYbkiArU9zCbVGJyNzUMt5bB7Y541EoSUeUa4s5G9oUCALbA8UonhhIhT7mv4m/6w1IglRPcwizx44VvkGI+nIX09S5IZzUwk8riIkNwoWE8wZ6bAfj0FsNGCfloXSfcoLCpY+5AaKRcypDuTEFfk+0z2M9UCY6J5g+VYgp1uOT1gr8xB2ZxH76/54ULvTjtzbwpG5MBfJ4cnIZflq10DuEelzRUWHwfFEPIp2sGvsvu4eYXC+Est6KdvgdFShylGK3FvCkb3J9zFYwmBhN/f/046KYpafKtjXsoaH8n7AjpyEImUKJFAHV01Dc+SGaycQHtb0W9K+e2qirZEom82NJCrKZhW9BozQF9H8aZm3TmopB4dlSAoybmlyYTRxFLWrs5Ffn4X0EU3eacWa5uf+RN9bjOybWoq7MdAD1LwiOFCaUgrrqAxkxNVh4tIKRSAV67VXBKLcdahrVKwoxERHsEYlBjEDS+DyU1L6rtTA+c8xbp+jqCOrte4oT/tjQdSweMSwIoqKjmFNqQ0Jt9gQ0d6ftrD7+zLQem/EcgHiWEObMNgC9+Z0xPtNmGkOE1qHA+lzshBfX4L0a+OR/tGZLA9RiKXP03GplVvydb6BYT9oPjbNtT4Zx44dC0po9EDUcjfCUqYGTETA6DNG5E+k7OhZ1DJvXVKUW8eChHm1sBcVo6woHbYe/LJJoUp6omVjhWLsMcsWu9Zg8YLFWLOLpc8IQzjrxLsPKm9ieleCwnlkUeeicBOz9vv4roPZkPkJ/TFyVgGKv4jGbEca4vgrYJ+v5Z9vDokfs1yPAAnKPenv8vueQDg8Wwt81vzza1qdDeN8YTj6/zELBatdiJ5ZhbQr+QsMaw8bSnbTp1ivYGkuCoa0bCxrWQPBT9m5cz3rJQ2ORtyY2SisKEdhyvnsegEybvQN+OYtKECpYnU7m7kyCFogc+655/JU25Aom819IZof0TjMgRBMA2bm/ElR1hGLzw/SCWGW5RAmPAvzkLVkDTA4GROnT0TyYP5yIxFIWunFmlmRKJ8RjqzaYqQ0iLLbifINNqROy0DaKGZJDmnqLZAl7reIz486WCJjEWPxoFq5J80fn4iRA/nLR3xW6NEjZEnXwtMvGelT2XsmjPS5g5rhhrPCDtuYTGTczRqLI3YUPs3Ec2W58mp4hO8Tnso8pL85EsVzgJxrx6Gk0f1Si/pGcbUhw1mM1AE8SVCPgTUzmSt9A74Z09OQpFjNPmveHxLb3r1781Tb0PtCxX1hlKUs0mi0boRojxl6GVKUOzHNxYCJkKMWaxZmIHt5Obwrk5j8MhGKjkAd64qTz6BxQLMtmOjFRPiE3eebzj9hYU5z4pC+PQ1h6wtQuC8WhXMT/aYkEh64d9YialIZYrvXI7EkCVZnFVxtTofw5bd8Va5y/5KdrKm5MhUZd8bz14lvUO6IQN5bs5E0KhtlFblIbLT0OUdcqNhgZ++rYo1M0+Beyar3cfDK9Zj8p+EYfuNwpC51ch+0FRH9lJNG6CFT082m95nNUhZtJIywRClvZs+fCJrmjWVCM3Jzc/mZRG82bdqkHAGxq9ibcW+aN42Ou5O8iSOSvCljk7wJ7P/0h9d49/K3ncheb+Hd6d7iL3hSBXXby717D/NEq9R5qyv2eltbwH4Cuwq9aTNZ/iqW+S2pb8HRcm/2iFzf0vifjnrr6uraOFq/Y52zzFt9gCcYM2bM8B444HehDeg3SExM5ClzQEvERbj++uv5mX68/PLLXofDwVPqycnJ8b7zzjs8pR9TpkzhZ+qpqanxpqSk8FTwSEv5JOzcuRPV1dU8pQ0fffQRNm7cqASzCYaALbQBSchdsgzL6FhejDXrilG4shhl7P/FzMptbejTRxRSli9GUkuLtB2sg+IQ1a5f3oroYVGtD+a1ZEAKls1j+RuWhvQbmtvijVhoamQG6y8wlAU/NGDY2tH6Ha2XJiDab4VmeHjTLPX2ULvIxEhE80OrGM1MIIG0RBEdhNQyb91Imfl50OTl5SEjI4OnTk5WVhbef//9gHxFVHFoVLxHjx6Nh5pRci05dOgQnE6nMkJPUNel4aGnh/lk+SExLSkpwVNPPYWRI0fyq4GxefNmxZ85fPhwfkWiJQ899BAyMzPRq1f7a+k//PBDJbLY2rVr+ZWOZ9KkSVi0aBFPqefmm2/G22+/zVP6wCxlDB48GFdccQW/oo4nnngC1113Ha6++mp+RXtICpmljOeee45fUcdXX32lRLFbsmQJvxIkJMpaEaj7YtasWfys6zF+/Hjvm2++yVOBs2XLFi8TAp6SaM3EiRNVuS/Ky8u9v//973nKHEyYMIGfBcatt97Kz/RjxYoVXtaQ8ZR6nnzySS/rYfKUftDvHihMlL2sIeSp4NHUfRGo6U8T77sqIt0kf+jzZpsfG0qEhTVbsN8mZvwNRJ8rioNtBCL5o9602t8kGGjRUKDQs6h+Xv/J6VCfMsUN6KpQbIVgYA2qUAWSqEPtSj1yRal5n5GIirIRU+IIkXpL5ax3/uh3FNWkkJkS15VFhUQ5GGuZPmu2qVihBO2koub3oQfZbKIsmh8j5gETIvmjvOktyvR7i+SNPhcyotyVu99aPMjBiLqkfdQuCtHid9QaM+bJHxFjgrTCCEteJG/0GS0btA4X5YYZDF0N+u7BTKMhQTZiilBXhX4ftZay2XososaOEYszCFHhM2LKnkiDRnkL1h3pj6aiHGhrQV/GfwPOrgS5boIduDDCcuiqUN1U84CasbciaimLinmgiOTPqLyJNBiUN9Eyb40OtZSJrirK5LM866yzeCpwSAzMPtm/M0Oj6Z3VPSRaL4wSPpEentbC1xr090XzpiWairJIoXXVaXHktomMFN9PinolrW2rL9GGnj178rP2oTqvt1gEiuj0LCO+B/XuRPJHedO7kaS/L+KG0LrcOtRSph/IqLmRZoNa12B9eNJS1g+jZiLogZktZRIws1rKRMhZyoG2ZFTxT7aMNVShJdnBDNQZYTl0ZQLxLRohFoEgOlZhxBgFPfMiljLlzYj6LmIkat2Ad6g50JUtvYiIiKAqmRRkfaFejBqxpd/BbL+FaGNv1PcQyR/lzayWckiJsshIZ6hw+PBhfiYGVVI5+0I/yGBQK8pmq8ei9cIIl43oPYyq6yL3CSlRNlu3z0i+++47fiaO2Sy0UIK6sWqW3NIDabbfQfS5MuJ7iN7DiAaDECk7EnIttUzT0J3PPPMMHnzwQZ46ORMnTsTixYt5qmuRnp6O3NxcYf/fp59+iu3btzfzydMqtIqKEzbtV6bfHThwQDlo7zktoTClffv2VWaS0EwaEjI6qBt4shCmFFf6+++/56mOYc+ePfjmm2+U7+DvUvriiy+wfv169O/fX0m3BYVQnTNnDux2O7/S8VB+5s6dy1PqGTduHJYtW8ZT+vD3v/8dv/nNb3DxxRfzK+rIyclBamoq+vVrsUWMxoiUXU1NDQoKCpQQrppAoqwVCxcu5Gfq0DLcXWfj3nvv9TJB4imJFrDeh3f//v3ezz//3Ltz507v1q1bvZWVld6NGzd6P/jgA+8nn3yivMZEmH8ieCiEqhE7dgTCww8/zM8CIy0tjZ/pxyuvvOL97LPPeEo98+bN87pcLp7SD5GyYw2497HHHuOp4OlQ94VRyzrNiNqANxL10Nzic845BxdccAEuueQSXH755Rg6dCiYaCrWWUxMjPJaMIt2WmJUtzoQRH3cTA/4mX7QPUTuQ9/JiPyJlp2W4wodWqO66hxlglYyGlHJJPpixsFW0cbeqPpo5vyZIW+ainKgrYURQavNioyFHBqEUm/P7EaCmfNnWlEOtCtnxq6fUVCLLN0XnR8zzrU3c70SrfdGfSczlF2HWspmb5n1hFw3Xfn7hwq0Os1sLgxRYTFzfaTvZET+Qk6UAy20rmwp0y7cks4PDS5qOcijBWYWZVFxpTI2syiHzEBfV4YqmBlaZUlwUI/HbMaFmY0dyptIvTfqO4ncR+vnWNNvGmhrYcaRa6Poyt89lKDG1QgLLhBEBcwII8HMeSNE8qf1ij5NRVmiHhl2MzQwY49HdEaIEd8jmLwZ4SYSzZ9pRVlO81IPLUPuqgH+Qwmz+ZMJM0eJE82b1tZoW4jkz9SWshGFFiqQL7KrboUVSphRlEV7YUb4bYMRZSMQKTsqN9OKcqAV1GzdPiOhYD1qopBJzA09jGarx6L5MeJ70D1E7kOfMcLoE8mb1o2Zpn8t0C8kUgChAm0hQ/v0STo3oeSCMsJSFsUo94UIWudN09Cdjz/+OGbPnq36x124cCGmTZvGU12LrKws3H777Rg8eDC/Ig6Fnty7d69QGEzaKJLCf5599tkBBeqhMKBOp1N174gq7mWXXda42euuXbvw5ZdfKudtQYMuFDrzvPPOw9dff43PPvus2bhFdXW1ct1msylhNyn4kD9ut1u5j+gear/+9a/Ru3dvnmodCtt411134d133+VXOh4Kh0thcQPl/vvvx4svvshT+vDvf/8bAwcOxEUXXcSvqCM/Px+//e1vld9ET0TKjoKLUbjP+fPn8yvBobkoz5o1S7X/5+mnn8bUqVN5qmuRmZmJMWPG4IorruBXAmPDhg145ZVXlKhnekJ+b4rBTFa9///+/nDq8ZCPnFwytCiG/qdDdFdlM0CxlCk2+OjRo/mV1qHGcPz48SEhyhMmTMDzzz/PU/ogKsovvPACrr32WgwaNIhf0QcSf4p1Hgj0PFAs5QULFvArQUKirBWstfCy7hxPnRz2JfhZ12Ps2LHeiooKngocu93uff/993lKojVMkL1FRUU81TYUt/l3v/sdT5kDJqz8LDCYGPEz/Vi7dq2XNWQ8pZ4lS5Z4t23bxlP6IVp2GRkZ/Cx4OtSnzO7Pz7oetB2UEVu6S8RQW5dDaRoo7VxjVshNZtaBceo1apk3zT37gQhtVxYl6u4H+/21Hyj1sArGT9viSNeYxke+djWYsQ6LTtMzaoqmiDFGA6pGlLUZ8tahotyVLWVqWYOxsnSZubI5G2Fz7cDBChQsyEOecuSjdHfDw+pC0Z3JKNjNkx1E/Q47nAd5QifUzlelh1GX36IDMLPVTw2NaGOjN1rnrUPnwNAX6apzdelhDuYhoAZNtFGr31zABTcP+etdqK+vVw6aTQHaeKCXDcn3piHt3lTYDhcg63UHf48T1astCGtz/M6B/BuzUFrPk4144Kq0w76BHzvoDW6U3NkNWevdcFL6iC8PvqPJYrPP6obU1908RVQgf0QmSmt4kkEi3fi3NzjgOsJfYFTM6YbMDYFbgCS0asTWjEIhOrXNiO9CkwBEGjGjDDjRvGmZP81FOZAVMVR5zNj9MwL68YN5CNSKxom4UfpcESy3ZCAjrg4TFxTA7qhCFTucXzSoqQVWq5X9e9TnzqhzKa9XOVzs0+3hQf16INzKk41YEHlpLGJtsYhyF2H43FLl79DfDjtoR9bgfKzf58tD1SuZCE8pZDa5D2ojPP5t19ZyFLMPV20obbKWD9iRk1AE1qQw6uCqafgebrh2svy03Yq0Cf02auIg0PvMPL83EMy8wtTMeaMZSVrWgQ6tTUa1fmYk2NgXYoLchIX0pjtTPGskrC135dpRgJGDh2Pi0grgpgIUT4jmL/ixjwnh+GQkT8hByU7/B6b1Lb4sTOSt7J5hbUyT6zEoAQk3JCDcUwXbCCbe/HpL3Luq4JiUhay4epRMjkd8SgFqo2JgZZ+IZZ+nv5FwqRUexeKuw1HBzgj14ESXBHc0os+VEb1WUUOERDnYOq8XWg+Qai7KgWSQWpeuuk8ffe9geglUdmKtsxXRN0XDPmscxi0sR9oN8YjlVmx0X5+JW+9yoDQ6DdnTU5B4gw1RfaKV12NtUYhQ3uFCwYRMWCYUo3j0USTfnYpx49nfG5+LNcxSPdrSqKkvRebAeIybXwi7JQnl8xL532H0sCISVcy6Zec1Jchd6EAUE3B/XO5afgbU7rYjYbAN0cNSMLuoHOVFaYhWDNoCZNw4DpmKW6YApYpl72zmyggEmntKAexPBv2GZjMuRMVLNEJaIFCdFcmfeH0PDJG8kUtGy7xp/i3VjloTRviwzAqtoAsGqjxiFcEC292LUfjaMix7bQ2WPWBTXBV0RPaJRFR3C6xRNiTVFyL9HhLaLJS6fe4MqzUKkcMszMpmVmhtOCzkNni6AtlPF2LZEvb3lmRiJBNsd8tBuN0OFO4eibS56UiJC0P1avJpL8aaXey13uFMlAkXimZlAnPXIHHTSAx/ogIN2u7wm/Fhm+RE8dgWdnSvCGYnxyFz5TLkTs9AxvQ0JClWczxiTnClqINE+fzzz+ep9jGrBRcoRogePfMijRiVsRHlLNrAapk3TX+FQDPWWbuHWkCiHMwPSZVHGwvNA9daJpIrSlEXtxh7Z9qAQWkoXrcGxctJaLORaHGgaFE+iirDkV5RiKQIG9JXZysWauKSMsxmQt0uzNJOYDZ0wRxmxS4tRz2T0MSpEzFyIH+d+NSBulHsPfcmIm15FYpZY9H8r/LBwo+YBVzhN7BHAr/offzvT+XIHDUcw28cjtSlTi7oVkT0U04ChizgM844g6faxwixMAK1K3E7AmowjChnkXtonTfNm8ZA/KS0FLerQjMvgrFMqBJoIcr1b2Wi/9owRDpGIv4FB7/qjwN5IzJR1wsoiMtACR/ps/SLU/y3tkY/BBEB2/xkRLP3NiMiCYXeciybS1YsHUlM0C2IGJyGiB78M1cnIX1UNBdissx9ZxH90pA+iCzjpsHCZscNyUi790E88S8X9laUoWxdGQrvbfo7sfeUIWmAkggIGrBW8/sYYV0GiqhASPeFGFrnTfNvGUiBi8Z9DQUoiEmw7hutZq5E7C5G8UdpyB/DrOTWsNShdHUpLPMmIrGZCLeEWcDTU2A7ieHsw4qEh5chjQlue5+JGrsMi0f5bqoMFrZxtHVL66UJJzYSKiDXhRqREp3ipSfa9KD0QbTOm/k7aZ03TUWZWotAWluzVWYjOXz4cNDfX4vJ/tZbFsNVVIjiimVIarWrb0PGpnIUrlyDNTPj2hS/UIN+GzUCovUgjxaY+bky+zNvhvxpWpsCbTHM2h0xAi2m+AQzpc4fC3cVtAkN/nUVNeYcOnRI1e9jRJc/lBCt80aJpYgmUd60tJY1VcWuPJsiUIIdVKHPm3lZbGdH7dTOUDIsjKhPouJFnzMifyIaRnnTchGcpjUqUKuhK1vKwfoita4IkuaoHYSm38EoK05vtOp5tYdoWVHejChnEU3Sutw0DXJPkfdnzJjBUydnzZo1ijhRvAMKZUkHzQ9VA71327ZtbQoT7RgRHh6u7FZx+eWXK+cN0Gf37NmjdFEpKPuVV17JXwkMWgG1c+dOfPvtt/yKej799FMsXboUN998M78SGOXl5di/fz9GjRrFr0i0ZNKkSZgzZ85Jdx7ZsWMHZs6cibfeeotf6Xheeukl3HfffTylnj/84Q9KEHo9WbduHS655BJceOGF/Io6Hn30UYwcORJXXXUVv6IPS5YsUTYtCITdu3fjmWeeUTYX0AQSZa3oykHrjYYC5K9evZqnJFqTlpbmPXDgAE+1DQVev+WWW3jKHLz44ov8LDB+//vf8zP9eOedd7z79u3jKfUwUfZ++OGHPKUfrEHjZ+rZtWuXphsEaOo/6MruCKNhv50sbx2hgVgq45NBXWqz/Q6i3XyjxoRE8kc9YrO6L7QuN01rkxyJNg6qoLK89aMz++tFxYvciHpDeRPJH22Qa1YOHtQ2uLemotyVl013BLK89YMsJiMsMzNh5tjmZt6qSuty01SUg53mJVEPiQZtKSXRB7Vlq8bFYTRmzFMD1NCJ5M/MrjqtdU9ayp2Yrhw7RG/Uli09kKFijBgVRldElC1txOHWGpG8aR0uQlNRlotHjMXM1kNnR+3DSe8zW70XzY9RYxQi/nqj4uSIlJ2pRbmr+eA6EiprKcr6EUjZhkq9V7tGIFhEysuovIlYylpvVSWf6k6KFGV9UWs1mlGQRYSFMGofPBFL2ahBSJGyM/12UBLjkKKsH7SDTmeNLSIietRtN8INI+ruoaXMoo1NIIjmTUs0fapDpRvXFaCl5lu2bMHGjRvbPL788ktUVFTggw8+4J8yLzSPtSHf7733Hvbu3ctfAWpqapp9r5bHhx9+iNrapn0ACRroU2MBUZ03W70XERYjBLkBM+dPRPi1zpumsS9WrFiBu+++m6ckenLgwAGlvI3ytekJxZb+5JNPDOs+tweJMcVKocGbyZMn46yzzuKvtI7T6URWVhaKi4v5lY7n6aefxtSpU3lKHeQeoO9N30dP1q9fr2wgEBMTw6+o44477kBGRobusS8WLVqkxD0JhLVr1ypxfEwZ+2L58uX8TCLpGjAR8yYlJfGUOcjLy+NngREdHc3P9IOJsnf79u08pZ7bb7/d+9FHH/GUfjz77LP8TD1MkM0b+0K6LyRdEbPVexGfMrlqmB7wlL6IdPcpb0bkzwzjCHKkSCIJAjMaIkb6h0UwSvxFMEPZSVGWSILEbCIoIno028TMPV3KmxH5CzlRNvOPKpHohdksP2kpiyNSdlrrnrSUJZIgMKMhIiJ6Rs0DJkSFz4j8idxDirJEYjLMZvmJ5IeCiRm1GElExChvZmwACVNHiTNroUkkemGUBRdKiFjKJHxmLWetGzNpKUskQRIKlrKRiOTPzCEFTG0pSySSjke0x2qEmJOAiQismWNWS/eFRGIiQsl9YYTwic4MobyZtZypkdEyb5rGvvj73/+OP//5zzwVGLT54I4dO3hKIukcUNCmVatW4e233+ZXOp6cnBzMnj2bp9QzZMgQbN26laf0oaysTIknYrPZ+BV1PPDAA0pcnd/85jf8ij48+eSTeOihh3hKHZWVlXjllVeQn5/PrwSHpqJ86NAhVFVV8VTHQUsladkoBVlpOFqm6eisoRmNgCxAiinc1kGWS2vX/Q+9OXLkiFLfOnpe7oABA4SNET0QERZi6NChukcE3LBhA8LDw5UGIBAefPBBpKam6h6QaMGCBZg+fTpPqYMasmXLlpkzIJFEIul4mCjzs8C47rrr+Jl+vPvuu14mYjylHtbIeFmDwVP6wUSZn6mHglJNmDCBp4JHDvRJJCGG6EwFWmptBCJjT0b0vAiRstM6b1KUJZIQQ1SUjXIDiYiyUXkTKTut8yZFWSIJMUQtN9Zz5mf6QaIn2mgYMbtLdAaKlnmToiyRhBiibgijrFGLxcLP1CMSI1oEkbLTOm9SlCWSEEPUUjZC+Mgap622AoXyZoQlb4a8SVGWSEIM0S64EaJH3XyRrj7lzazuC63zJkVZIgkxRMXVKEtZBKMsZREXjrSUJRJJu4habUZYosHcQ3SAMBBE76Fl3qQoSyQSwxDt6pMFa4Qoi1i8WudNirJEIlEwwlIWhYRP1FceCKINhpZ5k6IskYQYouJqhCUqClmwZs2f1nmToiyRSBSMsEQJ0UbDiKXWInkjUZaWskQi0RyzugcIM1vKhBRliUTSJqLCZ5SlLILW1mhbmKHspChLJCGGmUWZ8iZi8UpRlkgknZZf//rX/CwwRo8ezc/0o2/fvjj99NN5Sj0jRoyA1WrlKf2Ijo7mZ+qJjIzENddcw1PBo+nOIxKJRCIJDmkpSyQSiYmQoiyRSCQmQoqyRCKRmAgpyhKJRGIipChLJBKJiZCiLJFIJCZCirJEIpGYBuD/A5+LekhtsvNiAAAAAElFTkSuQmCC;" vertex="1" parent="1">
          <mxGeometry x="73.25999999999999" y="300.5" width="357" height="252" as="geometry" />
        </mxCell>
        <mxCell id="gsk0wDziKHdw3YsIVp2X-38" value="" style="rounded=0;whiteSpace=wrap;html=1;" vertex="1" parent="1">
          <mxGeometry x="443.26" y="360.5" width="120" height="160" as="geometry" />
        </mxCell>
        <mxCell id="gsk0wDziKHdw3YsIVp2X-39" value="" style="rounded=0;whiteSpace=wrap;html=1;" vertex="1" parent="1">
          <mxGeometry x="443.26" y="360.5" width="120" height="20" as="geometry" />
        </mxCell>
        <mxCell id="gsk0wDziKHdw3YsIVp2X-40" value="&lt;b&gt;메모리&lt;/b&gt;" style="text;html=1;align=center;verticalAlign=middle;whiteSpace=wrap;rounded=0;" vertex="1" parent="1">
          <mxGeometry x="473.26" y="320.5" width="60" height="30" as="geometry" />
        </mxCell>
        <mxCell id="gsk0wDziKHdw3YsIVp2X-41" value="1101" style="rounded=0;whiteSpace=wrap;html=1;fillColor=#f8cecc;strokeColor=#b85450;" vertex="1" parent="1">
          <mxGeometry x="443.26" y="380.5" width="120" height="20" as="geometry" />
        </mxCell>
        <mxCell id="gsk0wDziKHdw3YsIVp2X-42" value="1111" style="rounded=0;whiteSpace=wrap;html=1;fillColor=#f8cecc;strokeColor=#b85450;" vertex="1" parent="1">
          <mxGeometry x="443.26" y="400.5" width="120" height="20" as="geometry" />
        </mxCell>
        <mxCell id="gsk0wDziKHdw3YsIVp2X-43" value="" style="rounded=0;whiteSpace=wrap;html=1;fillColor=#f8cecc;strokeColor=#b85450;" vertex="1" parent="1">
          <mxGeometry x="443.26" y="420.5" width="120" height="20" as="geometry" />
        </mxCell>
        <mxCell id="gsk0wDziKHdw3YsIVp2X-44" value="" style="rounded=0;whiteSpace=wrap;html=1;fillColor=#f8cecc;strokeColor=#b85450;" vertex="1" parent="1">
          <mxGeometry x="443.26" y="440.5" width="120" height="20" as="geometry" />
        </mxCell>
        <mxCell id="gsk0wDziKHdw3YsIVp2X-45" value="" style="rounded=0;whiteSpace=wrap;html=1;fillColor=#f8cecc;strokeColor=#b85450;" vertex="1" parent="1">
          <mxGeometry x="443.26" y="460.5" width="120" height="20" as="geometry" />
        </mxCell>
        <mxCell id="gsk0wDziKHdw3YsIVp2X-46" value="1000" style="rounded=0;whiteSpace=wrap;html=1;fillColor=#f8cecc;strokeColor=#b85450;" vertex="1" parent="1">
          <mxGeometry x="443.26" y="480.5" width="120" height="20" as="geometry" />
        </mxCell>
        <mxCell id="gsk0wDziKHdw3YsIVp2X-47" value="2000번지" style="text;html=1;align=center;verticalAlign=middle;whiteSpace=wrap;rounded=0;" vertex="1" parent="1">
          <mxGeometry x="573.26" y="383" width="60" height="15" as="geometry" />
        </mxCell>
        <mxCell id="gsk0wDziKHdw3YsIVp2X-48" value="2001번지" style="text;html=1;align=center;verticalAlign=middle;whiteSpace=wrap;rounded=0;" vertex="1" parent="1">
          <mxGeometry x="573.26" y="403" width="60" height="15" as="geometry" />
        </mxCell>
        <mxCell id="gsk0wDziKHdw3YsIVp2X-49" value="2500번지" style="text;html=1;align=center;verticalAlign=middle;whiteSpace=wrap;rounded=0;" vertex="1" parent="1">
          <mxGeometry x="573.26" y="483" width="60" height="15" as="geometry" />
        </mxCell>
        <mxCell id="gsk0wDziKHdw3YsIVp2X-50" value="&lt;b&gt;&lt;font style=&quot;font-size: 30px;&quot;&gt;.....&lt;/font&gt;&lt;/b&gt;" style="text;html=1;align=center;verticalAlign=middle;whiteSpace=wrap;rounded=0;horizontal=0;" vertex="1" parent="1">
          <mxGeometry x="563.26" y="425.5" width="60" height="50" as="geometry" />
        </mxCell>
        <mxCell id="gsk0wDziKHdw3YsIVp2X-51" value="&lt;font color=&quot;#cc0066&quot;&gt;2000&lt;/font&gt;" style="rounded=0;whiteSpace=wrap;html=1;fillColor=#f8cecc;strokeColor=none;" vertex="1" parent="1">
          <mxGeometry x="203.26" y="410.5" width="50" height="10" as="geometry" />
        </mxCell>
        <mxCell id="gsk0wDziKHdw3YsIVp2X-52" value="&lt;font&gt;2000&lt;/font&gt;" style="rounded=0;whiteSpace=wrap;html=1;strokeColor=none;fontColor=default;" vertex="1" parent="1">
          <mxGeometry x="203.26" y="365.5" width="50" height="10" as="geometry" />
        </mxCell>
        <mxCell id="gsk0wDziKHdw3YsIVp2X-53" value="" style="shape=image;verticalLabelPosition=bottom;labelBackgroundColor=default;verticalAlign=top;aspect=fixed;imageAspect=0;image=data:image/png,iVBORw0KGgoAAAANSUhEUgAAAWUAAAD8CAYAAACvm7WEAAAAAXNSR0IArs4c6QAAAARnQU1BAACxjwv8YQUAAAAJcEhZcwAADsMAAA7DAcdvqGQAAFItSURBVHhe7Z0NXFRV/v8/trYNm9lQWlBaYlrBajlUq9DThmu7Ye3+hayEta0wK/EhBd1UsjKwUrAHpQcVbW3BthbcHsRNY7RUoIcf46oxlg9jG8WYFqSWY7nN/3zvHGBAwDtn7r1chvN+va7ec2eGe+bMuZ/zPd9zzvd08zIgkUgkElNwCv9fIpFIJCZAirJEIpGYCCnKEolEYiKkKEskEomJkKIskUgkJkKKskQikZgIKcoSiURiIqQoSyQSiYmQoiyRSCQmQoqyRCKRmAgpyhKJRGIipChLJBKJiZCiLJFIJCZCirJEIpGYCCnKEolEYiKkKEskEomJkKIskUgkJkKKskQSYtTU1PCzwPjss8/4mX588803OHr0KE+pZ//+/aivr+cpffjf//6H2tpanlLPsWPHsG/fPp4KHinKEkmIMX36dH4WGNdffz0/049XXnkF27Zt4yn1LFy4ECUlJTylD9999x0ef/xxnlLPnj17cNddd/FU8EhRlkhCjJ9//pmfBcYvfvELfqYvItuCUt66devGU/pAf180b1oiRVkiCTGoGy6CEaJMomcG4WsNasxEGjQpyhKJpF3MbimLNBpdqcGQoiyRhBiilvIpp+gvB9RgmNVSpnyJNGhal5sU5c7OERdKV+Qhb0EeCta64KFrBx0oWsTSq+2wb3DCN2ZdD2fjOeOgE/atbp6QhBI//vgjPwsMEj5RQVfL8ePHhYVPRMwDQTRvVG5a5k2KcqfGhYI7R6IECUi7Nw3x4fWoZ6rs3pCLjAM2JN8QBc/6NERPLkV9TSmyUkrYJzgsnTm6EA6elIQOJC4idO/eXXeLVNRSprzpTTB503IQUopyZ6ayCFnds5B9tw1WqxXRw2yIsLDrx5kyh4Wza1FIHD8R8a874PIcbbKSiV6RiDqi2NWSEEPE2jMKUeEj0dPbvSKaN0KKskTB7aqCe0AEInjaH7ejCs56F0qXLIZjtA1RB92w89ckoY2opWyEmJN7ROQ+9Dm9p8SJ5o0+I0VZohARHQ/bWkeTC4JZyB72PFp7RQFfVKBwqR2ePxagamEirH2ikOQ+irqG55Us5x5kVktCDVGB0NIv2hZk7YrmT2/XCuVLNG9aWvFSlDszQ1KRNTgX6ZMLULqhBDlJMRi51AnLGeHAwERMnJ6GpGHRsJI7rk8cEkcVIGt8PkrWFiFrWg4wPgHRvr8kCSFExUtLa68tKG9mtZRPPfVU4bxJUZZwIpC00oXSabGwwIrE56pR9gCT2V425N4Uxa74E4W0EvbehalIiEtE5kr23uk29jlJqEHiIoLelijxy1/+kp8Fjt6DfZQ30d6ClnmTotzpYXLcz4aEGxJg68cldkAiMsa0JrjsvVYrP6QchyqiomwEonmjaX56fy/Rv//TTz9pmjcpyhJJiCEqENQN1xvR6WMejycoK1sNlDcRN8QPP/ygad6kKEskIUZYWBg/CwwjBvosFouQ8JEo02f15PTTTxdqMMiKP+2003gqeKQoSyQhxhlnnMHPAkNvS5SgvIkIH7kIevTowVP6QcIcKNRgiJZ5a0hRlkhCDNFBp1/96lf8TD9E3RdkjdJYiN6IuH5oXnh4eDhPBU831mXRv8/C+Pzzz5UdEajFMyPU/WgYBDvzzDNPWkH37t2L//73vzwVGtB0oIbfqaV/kSyIc889F+edd17jQ08V+JxzzlGu9+zZU7kWKLQLBd3P7XYb4tPUg7POOguXXXYZT3U8EydOxOLFi3lKPddccw02b97MU/pAgep79eqF6667jl9Rx1/+8hc88sgj6N+/P7+iDw8++CCeeeYZnlKH3W7He++9h8cee4xfCQ5NRXn27NnYuHGjUknJ/0MHiZ3/uZajlBJJR0NbFH3yySdYv349v9LxTJ48Gc899xxPqYMaZBJKI0T57LPPDniXk7FjxyqiPGDAAH5FH6ZMmYJnn32Wp9Tx7rvvYtOmTZqJMjn3NeOhhx7ybtu2jackktBn165d3uHDh/OUOZg6dSo/C4yrr76an+lHcXGxlwk/T6nnzjvvVMpab6ZNm8bP1FNWVuZlDQZPBY+mPmXyFWm5skUiMTsiK8D0JjU1lZ8FhmaWXjtceeWVuPjii3lKPRMmTEBERGtRXrQlJSWFn6ln8ODBSEpK4qngkaIskQSBGUX5iiuu4GeBwSx+fqYfF1xwAXr37s1T6hk6dKghsy9Eyo6+j5ZjCporqMjIqkTSWWG9TX4mkWiDpqJMVoMUZUlXwowzRjw1Dtg30K4zdFTAdYS/IOkUaCrK5LowIqiJRGIWzGeEeFDvruPngHNVPOIXtb6/TP3aTIx83O7bQsxAPCpuWL/TDkcNT7SJB65KB9xi4aNV4oZ9RSlcJ7uHp14Jm6sF0gEskQSB+cZQLIi4MkEJUJVgY6K1IQnZo238NX/qUf5WIayXxugTKfC4G45Ga913OGqYGtcUITUqB/Z9FXAe5O9tBefrw5G13gXP+iwMv3F44zFuRgEqGj/nQFFcLsrb+TuqcduRv8C31yUd+Rsa9q90oeKeQuTMGI7Mt5rt3dOMigXhSFutzZ6X0n0hkQSBaev7vhJMTMqDc6ATRSvtzbcCU3Ci/IUwOBYmIfXxIlRovYdufR3KVw1H3uamO9f5bT9W8Uo8E13fTT1b8zHutnFITRqH/K1N76ly18MyYiLSI6qRMK8MZevKsGx+GuJ68TdoSUQC0qdnIGN6OmwHMmFvUR6W43Uo2dm4w6WuSPeFRBIEZqzvno/zkTyjHPHPr8Ga0iosji5F2p1FTZvmErurURGRhoKKcuSPtqJqbjJSX9FQdHpFI7YvmCUe77Pa6bi0aZl09IAklO+rZZm1M0veiaTnl6FwUgQmLiwF6aGlR5N17/G4UbXdifp6l2J9O3dUoECxaAtRzt+jGUfKUbo6CYl967iFX6WUW2RkFI4eZ3mpzMHIxHHIvIdZ7o+31tgFj+aWskTSlTCjpWy5Mh3Fr+Ui5VJyTFgQPSYXxStTEOV72Qft2XhtFCIOOuHsHo/054tROLbZOzTBvpsJL7PKC1K4C+LO7OZC6vGgfjf770gF8l6wI2NMgrLnZGREQ14iEHUpULupEIVrnSBvee3xCCTfm4a0exPRmmNGHA8qns5CHsuz4wAQa4tlBysj/irwJQrnrGFW+zLkzkmDdWUe0u6ZiCzWQBRW8LdogLSUJZIgMFd998A+p8n/OjyuP7oNjG9K35aHioaZGMMyULc8BWHrs5D0uj7d8ihmDbtrXXDXRyKZif6adWUoW5mFeP66gjUR2ZtscL1ejeh5pci9qZWgQ6cC4demIX1Mos/iHhLF49SEQyxIaevUr81CxoaRKP8iD5GLRiLtrboT79HdBddHJciZUYiohYtRvHwxsqdnIDWOv64B3WhZHz8PGop98cADD6BPnz78isQIvvnmGyVA0vfff8+v+AIs0UojCgBVW1uLgwcPttqTofdRgBiKR0AxS0T54osvlHx89913rc7dJfGiCfYU7InYtWsXvvzyS+W8LSjwEQWgoSBIrUExJw4cOACbzdb4d/2hIEd0H9Fpa7/+9a9PutBh3759GD9+PNatW8evmAjW1e72fDRqVya1uuM54V6VDNu+LNTO1NbmVDhYgYIV5Y1d/MgR6UjpVYLkq1xIXViF9Hbu65+v+g05SHu6CuERFInNisQZuUhSQmBUIKfbYkTXFiIp6MV+9XBucMJii0MUtQvHmQV/3AKrxYGcwfmImByBIk8yysZaUeFwwzo4DtF+vu2Kx7th8aW1KBwd/KpDTUV55syZSoSq888/n1+R6MWGDRvwyiuvKCuk9IRixdLOChTNzf9/ut4AdeEpqh5FkqNVV/Q/HXoHJdcTCjBEEcNGjx7Nr7QORdUjUX7nnXf4FRPRqiiTNT0SOZVM3iKiEO6phau+4beMgu2WFGRO8rkQ9IGJHVNpaw8mgx4mem0s0iOrNa0mFcX3tr+1r3srE9Ih0S32ozQe94Z8rAlLRdqw4HOiuaU8adIkQ9aod3VIlMmSvPbaa/kViZZMnToVv/nNbzBmzBh+pXUo7Oi9996LtWvX8ismYkcBkosiUTAvscNFS6IezSdZytgXkrZhVpJGq8s8zNxqNPB0QO0AHrllTFvnB6WhWApyp0Pz2RdynrJx6FrW9TTtKAsTbxuO4fdkIm9BPuwnXWHlh8eF0kVNk/ELKlmftTIP4fcUwfFWJpKXOvkb28HjQNEiuzJFqol62GcMR/ILxchP6o+Ja/WYlOTztatBw46mRKKg+ewLaSkbQ1CCvDUfIxtG5BuOP+bA7m/FWuOQNj0bi18rQ9nydERWTERFM1GuRykTx+E3JmPiHCa800YisttElDZopCUKCWNp2lIaEnuVY9zKpgEfzxEXStwtxNTDLF+yfvmhLFk96ETx5IoW82uLmcjHIWtmKuKGHIXLXYf6Hf4rxxzNYj1UzOmGzA2Bm9Rq96uj30HOOJJoibSUOylkoQlbaUPSsWZ5GqzrE5C9rhBpVjsSZs1GQotBF88+HthmdQnWuCKAZlu/WZE4n1ZZFWPx3AxkLMxCGmqbuScsViss8DSPdXD8KOpOcGF44FhdgIKlviN3WiLC/ljQXIwb6BOL+GF25KYkI+tgNnJHRwEH7MhJKILP9q6Dq6ZB8N1w7QTCwwIfcKR6rKYu08yOTlHna0owcZpvYUYDHRX74kTcKJmQidJmXSIH8m9LRdFunuxAPB/nYVyL+CGOFzRebOOH5paytBqMQa1otEkNs1b5aWt41mcibFQh6iNjEHtDGvIrajH7Sv5ia7C/50QUIhqmCdWXInNwDFLnrYHr0kxUz+W+TWYlu75o6XKwwDaGlrj6jsxRscCgKETyV5thsWF2RTmKi9agfEkaollDYh0Yw/52FMtn08oxxedcX6eswhKBDAy1G5CaqXdYv8MBt6KyLYL11DiRf9BffnWOfdEarOejxL9gePZV+AUcYnXnhdrmjcNWOwocMYjWd/cnP6i8nLw3Vw/nZldjz65+VznWNDMkmLGyxIGYaO0X2xDSUu6kBFPOnq1FyFtJ66pcqNpQjmpW+6pK8n1+X396RyLSehQuRxWqKirgaqml/vSwInpEFMIbnvB9Tth3pCJzfhqSbvCb02llIh994tCT6/WJSP4juUPiEfvHfKRfG8vFohyF5Jde+nKzgDHNjhdLsRdLkHHjOGQq1wpQSnl2OIXDVtLuyWr2kzRXnXejlDV+BTvovBYV89NRzHoKraNz7ItWcK/PQuIrvv5M7aZcpK9ue1zBtb0ctZZCpCdORP7aJoHUDwpulM1jXjhReG0eytuqO6xul7stKJw0EhMXlbb/XAigeRMvfcrGEIz/3nJpItLmFaKuLhepUVFIXlKHglmpSB7SJJaWuHSUz7Th6OocxD7B1/i3ZzjSyqx16U3LXvtFI3GEHbl3jsO48eNQ8DGzg7pbkTCA2bR9Y5EU0VyYo0YvRvGbZSibn4yIIdlIHcFeV6y8eKSSBX3vXUifmq74qOmIrstEObunkn7wHgzHNchcuQy5irVNDQFZzfGIOVH/VUFzsdXs0E0uJHPVeTdcH/l869XUK3FU+FxQjhZdbb1jX7SB21Wu5Mexq571mByoUMYBfPElmmBW6/YSxM+yo7wkC7H1RchsOeahC25UbfLlx80aNadyzvLgbK66nl1VKLk2C/aKYmRdVY+iaSORIzBu0Raa1iayGKQoG4N4WbMKv5WsSH646lDnYv9vKEbBojwUNUTp6hGFOBI2G+uiMes2nlm7UY0+Z+rq+Spss2N1gWK5Kn9DEekyFDOhXLYwHWEb8pHHKm5iuBPFP6W1sSigHqVF5Uh+IQNxZCa7XSiJIOcGp3s97NNikb/binBa+9oj3LfcthfL390VyBzlG7RMXerkXWErIvopJwFDoqx2EZS5XHYRiBhAMRuild/L4znKr7eAx76gDriVNdJ6xb5oSUREtBJTIrovay2PHEXruauHe18EYqPox49A3JjZWPbmiWMe2sMMhsEN8S5ajIX4UX/QhYjB9B4LIoalYPbyNZh9g4ZOINbSawbtZs0qM09J9OT999/3lpeX81RgHK2r89a1cRyl1zflepkF6jvGJnkTbknypoxO9CaMSPNmLC/31qn4G82oyPZidKG3lp3WFiV5MVdlvr8o8y57c6/f36v1Fo6GN7uCnR5l9zrhRidS5yzzVh/giQC46667vF999RVPtc2ePXu8Y8aM4amOps675gF4k56v8ta6ir3pEUnewi/4S/QbRGR7q3iSFaC37jA/NYi6N9NZPVjsrard6y1+IMKbVEQ1gij3ZiPCm/0RTxKHW6lHulLlzR1i82aw+lZbketNZGXVUEuVOju2WKm/Cj+xstMxc93oH67PQUMr+nJycnhKoiebN29WLOX4+GbhXcwJLfddGIXa11KAVcmI3J0J78MiEVyYJT0hHPmRxci4hvslesciYZCgj6Id7rvvPsydOxfnnnsuv9I6FFsjOzsbf/vb3/iVDqbehQqHy2eBhscgYQhfXUu/wSigqjYD1rcKYD/OLOmGYqOQmLsbuuiRSHggBTZdrNJ61sOqgsuXOcRca0OE4hKjGBZJwEe1mN2vAgWrXIgcRHYo4YF7hxO1DVbroCRk3KSTRe92wO707doS1jcWcQN8BURxOCLXpqJ2ZQJcKwrhYtZ+BDeMPW4nnHzwEt2jkTQ1sXk0PgE0FWWKfUHblKuZ40kBcijYTGxsLL8ixqBBg5SAOv4cO3YMTzzxBE8FxzPPPIP//Oc/uPDCCxX/YXV1tRL/ISYmRon3oAaaNnXkyBGlS0wHBQ6iYDy0e/C8efP4uwKDRJny0ymWWdfYkb/KwV0KrJN4bZp4jACaz8z6lbU7q+GJiGXCYoGVHVpDgpyenq4EamoPCoqUl5eH5cuX8ytmpR7OHUA0NWBHWBm2MSvFN43ReOqZ8GIQxbCg2Bht+A26W9uMlaErR1ijdTAStn4WZVZP67nTsB6SKGsFuS9+/PFHnjo5V199NT/Tlt27d3sXLlzIU+Js377de8stt/CUtrz00kvet99+m6cCZ9OmTV673c5TEq1houz9+uuveaptHA6Hd/z48TwlkQSPpqNy1J1WM42ogaFDh+Kjjz7iKe246KKLFAvn//7v//gVMaZNm4alS5fylLaUlZUpAW+CgcJySvTh0KFDymDqyaBekNrVfxKJGjQVZZqzSYdamKWsuAb04M4778Srr77aLMRkIDCrX4kUdjKfoigUf/hksXrbg0b8jx8XXBkhOSnkAlMDzWeWoizRkg6dEkeiHKw12x6zZs3C/PnzeUo9FLicBO+mm27iV7SFYvAOHDiQp8RgvRzh4O2Sk0PxoNVA9SQsTMv9LyRdHU1FOVCRICuUBvz0Ijw8HH379g041u2jjz6Kxx9/nKe0Z8uWLUqDFCzSUtYPGpilhu9kUM9Q7YCvUdDgowhbt27lZ/rx3//+F4cPH+Yp9Xz66afCvV61kH7t3NnmEsg2obqyZ88engoezS3lQKGdKmgLIb24++67Fb8wbRukBrKsaccJPa2f8vLyoKeyUY9EpLz1wwP3xydZit2JoBk2asqXRFltjAyjWLx4MT8LDJFeZaC8/fbbSk80UFasWKH6GRaFRH/ZsmU8pR5yRa5atYqngkdTUVZjWbSExIkGvfTk2WefxZQpU3iqbT7++GNloHLIkCH8ij5s27ZNmcoXDFTWgbiK9Kce9vlJLaJ6MaHeSqv9/ALjMDw1vuhzDv94C8fr4aRVgpVGxDk4OfSAqqnPZF2RgJsJkeeQMKI+Ud5EjAkaQ9HbCBEtN61XdHb4U01zdd977z2e0gdyYdx8883tzqSgB4tep8E9PaGujhbdXaqgZrPQmuNC0Z0xSJjvgKsyC7boLFSw3qdrVSpibsqFY18Fsmz9kbWZXTxSgZxrY5FZ4oSzKBXRSUWth+00ELWuOPM1juIYJcoimKtX2Byt86bpryAy8EQLSMj815uUlBRs375d2fW5NWixAPmS9eb999/HNddcw1PBEcj0Q6PxbChA1pHZWFOUgbSZWZi4uwD2KjsK5ngwe3UhMu6ejawJLhRscsL1ejYKbliG4vnpSJ8xEfGr1zS3ojsAte4hEplAZhwZgchzSBghyqJ5M8IAoTEaEatX6+dQ019BtBWkHZmN6AKSz+zJJ5/kqSZKS0uVOcORka1G8NUUEuXExESeEoceILMNMPlT72Zia4vxLTndXY3yiGTYerjh3B2LGCVGrgvVFRFIHhQFd00pbIN9cX09ziqUD4sFxaLpSNSWLQm32aw40fnrRgRWEs0bibKooKtFNG/0LGrZMHe4pUyMGDFCWTasN7TlPc0/pqXTDdDgwaZNmzBq1Ch+RV/IWg92aXkDaqdtdQQR0fGIez4bOSvykDwqD5HPZSDxsmjED1uM7CcKkHfbSOT1yUfGLVZED0lH+XPZyF+UiZHTnMh82i8EaAehtmxpLz8jLMxAEDWOjLD4RfNGZaz3bCPRXo/WawZMIcrXXXedsmW+EZC7ZMCAAfjwww+VNAWTycrKUs71hvzJdG+tMJcYRCBxXilSLuXJIRko356LhH7xyN5QjWW0bROT2oxNTuTeEIX4ueWoXpLkCx15y2K4Xk9D9KBUFH60BhnDOiL6QnPUiocZRVkUM/ttjbCURdE6b5rWJtFW8IwzzlA2yzQKGvT797//rUwdSk1NNczipKlwv//973kqOOgBMpsYWAfY/GIuM3pFI85/1xGiO7OMhyUg7tLmAYksfWxIuMHWGH2ro1FbtlR3Q0WUjXBfiCJFWRBRUSYoVoXe8xD9mTx5suLOCDb+RCCQKN9www08FRxmFOVQgh40NZjRhSRq8RoxcCyaN+qRGCHKIvnTOm+aPtXB+KRoapzdbucp/aEdK8aNG8dTxkCzTLRclCJFWT/oQVPjJyRLORhjRA/Mlh9/RPNGDYYRK1hF8qd13kwjysOGDdN9vnJHQosRzNr9ao+Kigp88MEHPNU5qampwcaNG9s8aHyhtraWv9sHWcBqghKJWn56Ipons1qiBH1O7/zRPUQMHbUNuFo0DXI/fvx4LFmyhKcC56677sLLL7/MU6EFTYWjiHiTJk3iV4KDXD209JSC5nd2KBYCxWvQO7aBGkiML7/8ciXyG7m4zjrrLP5K61DsFqrzFPzKLNx+++34xz/+wVPq+ctf/qL7DioUU4ZmOgW6ovXFF19UVtqS8aYXFJdj0aJFWLBgAb+iDprOS2F+X3jhBX4lSEiUtWLcuHFeZi3zVOBQYHHa8ywUoe9Gwfe7Et//Z2u7RyhA+/jl5OTwlDlITk7mZ4HBxJyf6cdjjz3m3bo18N9+8eLFysYOerJv3z7v1KlTeUo9zKhQtE8rNHVfsL8XlD/rt7/9rWFT44yGokhR8P2uxA/btuK/M6a1etBroUAobTSgNoZ0MIi6CMh1YYRPWcS9QnnT0rWi+UhRMINPcXFxqKys5KnQgSqTqC9NYm7MKMqidc2owEoiY09UznqXNZWbiFFJ+aLNDrRCU1Gmwg6m4GgaUijOKKDBsuuvv56nJKGEGUVZdL6xlsLSFpQ3kWecDJtgJhKogfIm0qBR3oLxELREcwUMdq7jmWeeia+//pqnQgNyyWi1aERiLoyYsRAoottTGTFoTHkTETByregtyqJ503pmlenM0ujo6JCbGldXV2dIsCOJ8Rjh5wwUmjstghHuC9rUQsQaJeHTW5Sp3ETyRg2GaS1l+kLB/rA0HYlWvoUSZo7mJgkOehhFHmQ9Oeecc/hZYIhs0xQoohsRk67oLcq0wpcajUChHoaWjbOmokyFFmzmBg8erEzo1w4PHE8nY/i0UjSE6PVsLULe2hZh1I+4UPGxm73bB+2OUbE7+HgcND852K2fOhMH//63xuNkBPJes0J+SC2tpI7k22+/5Wf6IiKu1GAY4SoSaWAp0JiWDYamokwO/GAzRz5pquiaVZCDpch/nonrhiwU8llY9c5iZK5yNIq0wo4ixD9X3rgVkcdRgPh59qC3JqIGhqLgdRV6/fkv+PGrr5jQrlSOtvB/nT7TWaHVXGazlM08WE5lJZI/o3z3Ir8l5c207gtCi8xR0B6t/MqutwpQPSEXyyZHIrekQrlm7aWEXm+G53AdP/Nh7R0JMKM/2DVm+/fvF/bxdVbOmzET1j+cPJB/rz/f2akFmSBRNhuiLkQjxJx60iK9aXItGOG/F5mrTXkz7UAfWclaZC4hIUEjF4YDJUssmHiLDVG3pGHk42tgZ7+r5Yxw/noT9Qf12RVOy25NZyLiwQyE/7HtjQNCQZAJra0kLRBdrm5ElDjRaXeUNyOeJZGy0zpvmjeNWmSO9rDTQpQ9G4qRe7AWBROGY3hKPqoH5MC+ib/YgoioWNanrkODjUGWc0SQ24KRPzkmJoanuh7nTpiIs5JG81QToSLIhBGr4AJFNE9GzFOmed0ihht9zghRFpl3Tha8aUWZuj9aWA3U3aduIQV7CQbH5iLEzylE2boy5SiclYiCSofvRXcVyjfQ9vd0OFE/KA6zd2Vh4qwilK7Ox8Q5JRh5SzyC2SqOXDDnnXceT3VNzhl/P86+bQxPhZYgE/QQm82nLGopG9HAUN5ENELU7REIonmjOqBl3jS3lLXKHLkwysrKeEqM6FGFyB3V5D+OGr0YJbew9LAM1L2WiQRbLGKVIwrWHgnIdrpQOCMR8TekIndtNZaNCm73TrL2tQpq35npfc849EoZG3KCTOgtFCKIWrxGzFMWLS8SS73dRCSuIvfQOm+ahu5MS0tT9rzTYqEEbddUXFyMpUuX8iudD9q1mnbK1gPX3r3424oVPNU1+aS6GgdYb8p2+eXKSlCt+PKrr7Br9248NnfuSZfHU6xp2pxh5syZ/ErHc9ttt+G1117jKfWQxa+luLTG008/rcS4CTQEJ2kLzWKi8KJ6QTO+aL/O559/nl9RB228/Mgjj2i2SYfmovzEE08IT173h+b+0Zxll0ufATi9oaXV33zzDW699VZ+RVs2sArw8343rr7ySn6lbTysW7rN6WT/6+8zVIO15xnoe955CNdQSP1x7PgEh7//Xjknz8IZp5+Onmecwe7bE2dZm+8N6M93hw7hM1bfjnqOYemrr+LWsWOV2MTtsWXLFsVNZaZ4yv/v//0//Otf/+Ip9VDsGXJhiMbOUMP8+fNx7bXXKsIcCPfcc48y1kT/6wXNlCJxpdjNgUC//5w5czSbMaapKNP2Sk899ZSy354W0P55hYWFGDhwIL/SeaCHlA6RFUJqCESUJYGTOe8JXH3jjRgzpskf3ho0mLt582ZTibJoD80IS3nevHmKSy9QUSaDj0T57rvv5le05yvWQ3rsscfw0ksv8SvqIEuZLGytRFnzgT4tp9VQd2X9+vU81bmgFUh6CXIDZhtgCiV+qbIe06i72X4H0WmpZCHr7SOnvInkjxoLvWdf0HcXuQd9RsvGTFNRpsqpZdeHgt6/++67PNV5IEEODz9xLrTW6G3VdGVOPbW7qvI1428gKl4klmp38Q4GkTIjg0/vxS2iPQXKl5YNs6bfkr6Qlj8qDbLQDAy9W0itoVkXQ4cO5Sl9oEpgCgvtWDVezpqNB+iYOQmjpryAjYf4a804hJ2Ve/AdTxmD+D0pjKMaESAhM5swd7bnRQ16CzIhavFqnTdN/xplTstlpzRfecCAAdi5cye/0jkg39IVV1zBUx3Lztcm4dkWOy95vnRgY2UlP5qL1nefNVxnx9Ya3zLz/1Xi0Ysz8cYB5S3NOS0Gd2Xn4AU67h0GTy0Q3loV2FqIPzzxHvbxZJvU7fHLmwP7KMTvjhfQb9w/8Z8vq1n6mDIg13B4GnrCn/8To65+Af/hSYUW92z23Srpb/EXGB88ewkeqvSbp8ueTbUPmykaRz9E8xMWFsbP9IPyJuK+0HPwsQG6R8iJsh4WA1nLnW2L+23btiEiIrg5zoFzDP95ezmeXeY7XtxSw64dxKcfr4On5i3c0ShYB/HG/LnY+L8BsF3ErPonnsG/v1ReUDgtIga2mBhEn1qNp257y/eZX5yGMPb3GwWwNb5ch6kPzYX7oj44s5XO0n8c67Af1dj4PmsE2vs7v+qt3N920Wn4z0t34B+fsWvHgf2nn4ad/xqFh9Z+hp3V1XBUv4en77sKT37k+xizBnAaazT8l02ccM9vK/HUnW/B18Qfwj53g0l/EPv2ssbE0tSaqO3Km9FSFs2PET5lEmVR4TOiByByD1ExbwtNRZkCc2hNZxvso6l8eg/wEVRJm1tE1fj3tPdw5oh7MMV2CFNfczBBoulw7J/w3uh34BDqGg3BPoi+qBfO7D0A0f3WYZ+fBWzp2RNnMm2yBNDj2f/+Uxj1iAPDmEL++08H8NCYSXiZiVwTTPSc1bh/4gMYdmgdpoy5A3e9toe/1oLT2P17snuTyPJLzTgtEkOHDcNvLzkN+/8vFcPaXMV+4j2n7DgDZ7LvbqPP09G/JzyKxf0djrbQIppGqMZyNJsgE6KWMrls9PYpi1q8at1JwUDfXeT31DpSoKbfUo8uBolyZxrsI3/y7373O57SD6oEp5xQEXoijJSMWbbY9x5eWPZ3rKW+O7Myw1GD/TwQnuW0dXj1RbKoC/DqxzeiX6NRvwcv3jkcoxb+E6trL8Jf3xiNJs94DdzNA+k1cu7QB7Fq2V9xOxO5c4fdg1dX5eKOC/mLCl9j55ZhuJxZ0Zdedw9efu1VvHxb6zt77yz6C6LvfwYvr6/Bpfetxl2D+QuMM38Vgzc+/4KdsV7Ba8vxcnRPNDcDDqCu0Z/N73nxRRh68wO+e95M8+f/ib/ePRsPKT2Kf+Idxere08yVQfzgOap6aqeWD2RHoodR1RISVhH3hVGuFVFR1hLTuy/OOussJX7E3r3NTC/TQv7kESNG8JR+UFk3L+7TYImuwqsrluPRf7wHXHIjHhj3Z4y6hL/cSC/8af6nWH1/b1TM74mHtizC7Q2ifGAPKitjcMfd9+CuEcySjO7FXyCqfVZ3M2rwxuOTMOr+8Rh1919wU8MxeTamPjIbz/5fwwdiMGXtItzBGoP7rlyOtp1RB/Hp1kpcfnMapiSzxuKHSuX7PPsvX7yS8N59lP89W5djStn1eHUi8FTKbLzR6H45gO8axZXf079xoB4DbJg6PwdPjmM9inG34k+K1RwLpu/NOOrxqHJBiQ4OmRF61oxwX4i4CGg2k97uC8qbSINB5aZlHTC9KBM0NW7r1hajVSaFViAasdiFKlBzA42J0BtbsHrmPXj0iVdxdP6NOJcJcL+LeqGO1LQ3E+2TdWSY6EX39gm7zzddiI2tDe410gd/engRVq/4G9ay49ErK3Fmch7W5ucqA39TrmiyIMgtctL78/xWvl2g3P8N1g6fNuiPmPL/bPx1oh6V1b3x1EsP4E8jHsTa1/6K37fUzh9q8EFlJXtfNWtkmgb33nj7I3wzeAumPeBrPMiF4vNBn4Fzz1dOmmFEKEs9EO2x9mS/kd7uixPdbuqgQX+93Reif190b7+20PdbagSJ8scff8xT5oX8ydRqGoFicahoBC+/bwueZNbgX7fk4k8/rMNDDdPXnl2HY1dX44UZk5hATcLUZ2mWQgx7n0/YpyiWZCp+25v+CrMwk1NxqcjY5ecnu2dzKL/7Xvwrv/89uH8Ys9bD++CuC3ri3D7X4+krBuO3KbdiaMM08F9xsWfvsV1t8+XxtN64lAYLWxy/HfEX5K7YiD3/9DUi5ELxddhPg+3Wv+FPflZ1GOvKqxEoX+MYGu4LESsxUETdF0b0RqgxE7HGtbbgNV1mPWXKFDz77LM8pR0UKOQPf/gDPvzwQ37FnFAQJcprSkoKv6IfmzdtwrGaL0y1zPo/r0zCRlsupgzS1sfWEeQVFOC+zOno1cvfhXMi9JtXVVWZapk1uc9EBsevuuoqVFRU6GotP/PMM0pPcuTIkfyKOhYtWqRsQEzLrfWCdp2/7777Ag7mdOjQIdx8883Kknst6BSWMlmfFI7w888/51fMCQ3ynSyqmJb8KBCQW08uH7soJASZOHpUXWxd0e64nojaWWTBGjH7QtQa1bucRfOmdQ+jU/iUCXJhvPHGGzxlTnbt2oXzz2/FOakDVEGPH9e/u9lVOXTkiCoRIFHWs94bCQV513ugT9R9IRqAPhBE86b15gCaui8mTZqkdDP0gASZQhK2hEZladUfdW0aZmq01uWkr7lnzx7U1NCiCh/UMvbr10/5Ifbt26f8DZvNpgwO0bUDBw6guroal112mapYFnTvoqIintKX8i1bsL/6E9zEGiuJ9sx48inMeeqpk7ovzBi6k6Zkikwj7d+/v+6znCgsJoX2TUpK4lfUQdHbLrjgAl2jxFGQ/zvuuCNg44+0g+I8mzJ0p56iLGnOls2b8dX27bjld8P5FYmWzFqQi5k5OejdWxnpbBOHw4G1a9eGhCiTUUHhK/VkyZIlioEzevSJeze2B5Uv+aL1FGWCfMNvv/02T6mDwkCQL9qUoTs11HfJSaCutder77zNroxa9wUtatDb12kUIpuGBoqoi0B0q6ZAEc2blnWgUwz0SU7EfELwE47s2oHDR3iyk0PLrNWIAA0Mmc0YEa0bIoIUKKIDieTrJkHXG5HfUutyk6LcSaEHT3SRgD58h+/fXILDtTxJ/MyEet8OfLNjL773M+p/OrCXXduB777lF4ifD+EQE/VvdrnhMUEH4H//O65K3MzYOwxG+PT+PlRnRe6h9wBkAyINGuVNSyNJinInRu/pS0Hx80Hsfy4DB//1KX7a+SoOzPg7vjkGHHlvAb5cWIxjXzFRzp6ML3ewLvPRT/HVI1mo37IXP773NNwL3sVh/mc6ip9/VrdDMb1HywdSC0QbayO+i6goG1XOImWndd40FWWzVc5QR+2WRR3BT9vfxNFjf8RZk5MRcWsyfnnsQxzb48B3b/0Ey+TpOO/GO9Bj2E9MsPficPmr+PHiu3HuXX9EZFIiTqlx4Gg9/0MdBC2xVlOf6YEUERk9Ee3ma70yrTVI9ER0gsrYCPeF6D1MK8oS46DKc7oBkbNE+bH+GyCqL3qyGvZz7V4cP/USnHr6IfzvWH/8MpK94Wc3ftx9KrpfEImfvnHjlAv6KqE6j32+Bz9b+1MEzw6lx+m/4medD1GBoPCYeiMqekb1CkXKjr6TaUXZiJZM4oMqgRHhDEUJu7A/ulUW46t1xah5bj26jbodZ/fti1Ot5Tjyz7X4Km8+POHJsF7ZE2H9BuHnd0tQu2YJ3K99gV+mJuLMDq5Kp6kUKFHLz4wYFYBJpGehtufSEWjdmEkV7aSYrctMEd7OTHkQZ/iia+KUfsno8+hYWM4bBOvMheh7bS/WaPdH5GPZsF7eF5Yxj6LvA9ejB6uBYb9Jx/mTf4dfXvg7nD33EZx3acc3NrRaUm0Zm+23ELUqtY4L3BqieTOqwRDJn9YNhrSUOzGndDNXeVsi++MMPz39Rc++OGvQJejp74o4pSd6DhyEs/r0hP+Qyqm9++PsQf3RwyRucrUDPlp3XbVAZLDKKKi8RHzX1PAZUc4iGqZ13jR9qk09GyDEoMpzyinm7M6FAt0DEDbz9VrEMPP36Ep5k6LciZE9E/34VViYqhVuZvwNzOp7JYIpLyPKWuQeVN5a5k3T2BcPP/wwHn/8cZ6S6MlHH36IXR9UopdfUP1jP/6IDxxt79DSvfsv0Puss3FOL9/ec9Wf7cJPKiblh1lOU+7zK0sYzu3dfoCe9ti5Zw++PviNck7T+S668AL0PvtsxdL4weNRIoHRNkxHPcdw9Jgv7Tn2o/L+QCBN6hMZiQvP78Melm740u3Gns//y189kV+FWZT3n9urV6Og/ePtNciaNw9RUVFKui12796txN81U+wLCqrz6quv8pR6+vbtiy++oD0Q9YOC/Xz//fcBxxyfMWOGEixszJgx/Io+3H777fjHP/7BU+r45JNPkJGRocTW1gJNRfnRRx9VDokxUAAUDX++DuPw4cNKxSYR1guKAEi7jPsfJxs1Hzp06ElnuFBUNYoMmJWVxa90PCR4ItEKKQrbf//bduOlBSTKDdHYAoFEOTY2NuDPBQqJ/qpVq3hKHVR3MzMzlcBUmkCirBU5OTn8TCLpGuzbt8/Leoc8ZQ7Gjh3LzwKD9Qr4mX68+eab3tdff52n1PPXv/7Vy6x/ntKPP//5z/xMPU6n05uYmMhTwaOpk8bMviyJRA+ozhsVl0Etos8h0wN+ph/B7CBiRP5E8kb50nI1pP6ec4kkhKHpZ0YsTw4EM0+JI0TyZ5TBZ4a8SVGWSIKARt3NJsqiMwGMEj4jZlGIYoa8SVGWSIJAWsqBI2qNGuG+MEPepChLJEFAc/NDxVI2Cmkpt4+mOTCq+yORmAWyrIyw4AIhVC1lIzBD3qSlLJEEAQWjMZulLLqy1ggrke4hKnxGCLNI3rQuNynKEkkQkFAYsbddIIiKlxEWPzVgoiJmROMnkjcqN9P6lI1oySQSM0F1XvqUA0Mkf0ZpixnyZu5fTyIxOSTIZrOUQ1GUjcIMeZOiLJEEgRlFWXSgzyhrVA70tY8UZYkkCEiUpfsiMETzZ4TP2wx50/TXM3tlCATPEX4ikbSD1oM8WiBqKRuFtJTbR9PQnQsWLMD06dN5qiNww76iClFjExHV3qyg4x7UH7fAerwCedMK4GSXjh50wROXjcLpcbDUFCH5KheyamfDdtyJkrn5KKx0Qtn1fkgGiucnwgoP3B87cHRAHKKs9IKxOBwOrFy5EmeeeSa/0jYUEnPr1q3o2bMnBg4cGNB+Z/TZH374QQm36P+/f5jNH3/8EUeOHFGuUVeewmSefvrpsFgs/B2+yn7ZZZc15nfXrl348ssvlXPKF71eV1en7BNHITPVNPAUMvHAgQNKnN3WysHtdiv3aeleuOiii2C1WpVYyN999x2/2gQ9Etu2bcPSpUtx66238qut8+233yp1vqCggF/peERD6F588cX47LPPeEof3nrrLZx//vlKGM5AoO9zySWX6B5P+ZFHHsFjjz3GU+pwuVy4//778c477/ArQUKirBVPPfUUP9OZ2jLv4vm53lx+LLbX8hfKvdlI8aZNTfBmvFnHr51IbVGSN2JeFU/5KH8Y3qj5/NoXhd6kiGxvwzuO1h3lZ/7UegtHwzvbzpMGU1ZW5n3vvfd4SqI1U6dO9RYVFfFU2+zfv184VKZeMAHjZ4HBGit+ph//+te/vFVVzZ89NTCx9DIjhKf0g+4TKHv37vUOHz6cp4Knc/obIhKQPj0DGdPTYTuQCbubX+dYjtehZKeLp1RwxI7ipXFIH2HjFxjuchQsyMNTmTPw+NJ85LFzOgo+VuzlRlwHW9xcEhKQn5g9HzzVNmSFm82nHIruC6MwQ940FWWj/D6NHClH6eokJPatg32DnR1VICmOjIzCUQpxu68E4+KSkTltJGJuK1JeOxEPKp7OQkkPN4qXl/rec7AWroh4pDHh/+uTczH93nTWAGTAVpcLu6uh226BVXxnpKChsg4lH77ZoF1J1NRnteJtJKLCYoQgUZ0VqbeUNyP0RaQMtM5XJ36qfWKat7sWjgNArC2WHVGI4K8CP8L+fDosswqQuzALSZsKMPG2cchk1u7itU3y7FqVhtQNI1H4URXyIvMwcoZd8Y06bBFQXMXdmfhaLUyoS1GyIhYJVzXcwYrwSH7aQZhNDEIJ8rurKV/aXNVsU+JE82NEfaK8idzHqN6IaNlpKcydVpTr12Yhg4lp+Rd5iFw0Emlv1THxDEezHdW6M9HdWoqCydlwzspF8WvLkMss3ok3NW2GGXlTPqrXzUac1Yq4mWWonp8AS48IpMVFIZy/h90NpXMmom5yIhz3DEfm6y7WJHQsVAmMsBxE8dTXw9Puhhwe1NfrXYr1cG7gA7QBQgOOaiw6GuQ0m/tCVFiM6HmJlhXVdSPyJ1J2Wuetk4pyPWotySgsYWLaJw6z11WjYDQJLbNoB4Uholc0Ynr8EglzHci+JgKxM4pRPMlGr56AhYmxpWGmxhEnShblIW8tkD4pwWcpk0X+RCryLYuRPTMdi9cVIjU6vNW/ZUacS5ORV8kTHM++Cu7uoaO5aNXvaLjOjkre+By3I6tbKkradZ/T7tP8FG6UjA9H3sc+ca5vcShvqylBWngeKpT3+3HQ6Ze3CrhoauLHOYhMLIBjn4OlScz9/laD8O8uwMjIHDh4UqEyHwnTuEuK0ey7baC/xV9gVMzphswNTY0EPZxqurJkKYeKKBvhvqC8iVjKUpQFMc5ysyL6Br+paORiUFTShtnblyHt3myUMRFG9wjYbkiArU9zCbVGJyNzUMt5bB7Y541EoSUeUa4s5G9oUCALbA8UonhhIhT7mv4m/6w1IglRPcwizx44VvkGI+nIX09S5IZzUwk8riIkNwoWE8wZ6bAfj0FsNGCfloXSfcoLCpY+5AaKRcypDuTEFfk+0z2M9UCY6J5g+VYgp1uOT1gr8xB2ZxH76/54ULvTjtzbwpG5MBfJ4cnIZflq10DuEelzRUWHwfFEPIp2sGvsvu4eYXC+Est6KdvgdFShylGK3FvCkb3J9zFYwmBhN/f/046KYpafKtjXsoaH8n7AjpyEImUKJFAHV01Dc+SGaycQHtb0W9K+e2qirZEom82NJCrKZhW9BozQF9H8aZm3TmopB4dlSAoybmlyYTRxFLWrs5Ffn4X0EU3eacWa5uf+RN9bjOybWoq7MdAD1LwiOFCaUgrrqAxkxNVh4tIKRSAV67VXBKLcdahrVKwoxERHsEYlBjEDS+DyU1L6rtTA+c8xbp+jqCOrte4oT/tjQdSweMSwIoqKjmFNqQ0Jt9gQ0d6ftrD7+zLQem/EcgHiWEObMNgC9+Z0xPtNmGkOE1qHA+lzshBfX4L0a+OR/tGZLA9RiKXP03GplVvydb6BYT9oPjbNtT4Zx44dC0po9EDUcjfCUqYGTETA6DNG5E+k7OhZ1DJvXVKUW8eChHm1sBcVo6woHbYe/LJJoUp6omVjhWLsMcsWu9Zg8YLFWLOLpc8IQzjrxLsPKm9ieleCwnlkUeeicBOz9vv4roPZkPkJ/TFyVgGKv4jGbEca4vgrYJ+v5Z9vDokfs1yPAAnKPenv8vueQDg8Wwt81vzza1qdDeN8YTj6/zELBatdiJ5ZhbQr+QsMaw8bSnbTp1ivYGkuCoa0bCxrWQPBT9m5cz3rJQ2ORtyY2SisKEdhyvnsegEybvQN+OYtKECpYnU7m7kyCFogc+655/JU25Aom819IZof0TjMgRBMA2bm/ElR1hGLzw/SCWGW5RAmPAvzkLVkDTA4GROnT0TyYP5yIxFIWunFmlmRKJ8RjqzaYqQ0iLLbifINNqROy0DaKGZJDmnqLZAl7reIz486WCJjEWPxoFq5J80fn4iRA/nLR3xW6NEjZEnXwtMvGelT2XsmjPS5g5rhhrPCDtuYTGTczRqLI3YUPs3Ec2W58mp4hO8Tnso8pL85EsVzgJxrx6Gk0f1Si/pGcbUhw1mM1AE8SVCPgTUzmSt9A74Z09OQpFjNPmveHxLb3r1781Tb0PtCxX1hlKUs0mi0boRojxl6GVKUOzHNxYCJkKMWaxZmIHt5Obwrk5j8MhGKjkAd64qTz6BxQLMtmOjFRPiE3eebzj9hYU5z4pC+PQ1h6wtQuC8WhXMT/aYkEh64d9YialIZYrvXI7EkCVZnFVxtTofw5bd8Va5y/5KdrKm5MhUZd8bz14lvUO6IQN5bs5E0KhtlFblIbLT0OUdcqNhgZ++rYo1M0+Beyar3cfDK9Zj8p+EYfuNwpC51ch+0FRH9lJNG6CFT082m95nNUhZtJIywRClvZs+fCJrmjWVCM3Jzc/mZRG82bdqkHAGxq9ibcW+aN42Ou5O8iSOSvCljk7wJ7P/0h9d49/K3ncheb+Hd6d7iL3hSBXXby717D/NEq9R5qyv2eltbwH4Cuwq9aTNZ/iqW+S2pb8HRcm/2iFzf0vifjnrr6uraOFq/Y52zzFt9gCcYM2bM8B444HehDeg3SExM5ClzQEvERbj++uv5mX68/PLLXofDwVPqycnJ8b7zzjs8pR9TpkzhZ+qpqanxpqSk8FTwSEv5JOzcuRPV1dU8pQ0fffQRNm7cqASzCYaALbQBSchdsgzL6FhejDXrilG4shhl7P/FzMptbejTRxRSli9GUkuLtB2sg+IQ1a5f3oroYVGtD+a1ZEAKls1j+RuWhvQbmtvijVhoamQG6y8wlAU/NGDY2tH6Ha2XJiDab4VmeHjTLPX2ULvIxEhE80OrGM1MIIG0RBEdhNQyb91Imfl50OTl5SEjI4OnTk5WVhbef//9gHxFVHFoVLxHjx6Nh5pRci05dOgQnE6nMkJPUNel4aGnh/lk+SExLSkpwVNPPYWRI0fyq4GxefNmxZ85fPhwfkWiJQ899BAyMzPRq1f7a+k//PBDJbLY2rVr+ZWOZ9KkSVi0aBFPqefmm2/G22+/zVP6wCxlDB48GFdccQW/oo4nnngC1113Ha6++mp+RXtICpmljOeee45fUcdXX32lRLFbsmQJvxIkJMpaEaj7YtasWfys6zF+/Hjvm2++yVOBs2XLFi8TAp6SaM3EiRNVuS/Ky8u9v//973nKHEyYMIGfBcatt97Kz/RjxYoVXtaQ8ZR6nnzySS/rYfKUftDvHihMlL2sIeSp4NHUfRGo6U8T77sqIt0kf+jzZpsfG0qEhTVbsN8mZvwNRJ8rioNtBCL5o9602t8kGGjRUKDQs6h+Xv/J6VCfMsUN6KpQbIVgYA2qUAWSqEPtSj1yRal5n5GIirIRU+IIkXpL5ax3/uh3FNWkkJkS15VFhUQ5GGuZPmu2qVihBO2koub3oQfZbKIsmh8j5gETIvmjvOktyvR7i+SNPhcyotyVu99aPMjBiLqkfdQuCtHid9QaM+bJHxFjgrTCCEteJG/0GS0btA4X5YYZDF0N+u7BTKMhQTZiilBXhX4ftZay2XososaOEYszCFHhM2LKnkiDRnkL1h3pj6aiHGhrQV/GfwPOrgS5boIduDDCcuiqUN1U84CasbciaimLinmgiOTPqLyJNBiUN9Eyb40OtZSJrirK5LM866yzeCpwSAzMPtm/M0Oj6Z3VPSRaL4wSPpEentbC1xr090XzpiWairJIoXXVaXHktomMFN9PinolrW2rL9GGnj178rP2oTqvt1gEiuj0LCO+B/XuRPJHedO7kaS/L+KG0LrcOtRSph/IqLmRZoNa12B9eNJS1g+jZiLogZktZRIws1rKRMhZyoG2ZFTxT7aMNVShJdnBDNQZYTl0ZQLxLRohFoEgOlZhxBgFPfMiljLlzYj6LmIkat2Ad6g50JUtvYiIiKAqmRRkfaFejBqxpd/BbL+FaGNv1PcQyR/lzayWckiJsshIZ6hw+PBhfiYGVVI5+0I/yGBQK8pmq8ei9cIIl43oPYyq6yL3CSlRNlu3z0i+++47fiaO2Sy0UIK6sWqW3NIDabbfQfS5MuJ7iN7DiAaDECk7EnIttUzT0J3PPPMMHnzwQZ46ORMnTsTixYt5qmuRnp6O3NxcYf/fp59+iu3btzfzydMqtIqKEzbtV6bfHThwQDlo7zktoTClffv2VWaS0EwaEjI6qBt4shCmFFf6+++/56mOYc+ePfjmm2+U7+DvUvriiy+wfv169O/fX0m3BYVQnTNnDux2O7/S8VB+5s6dy1PqGTduHJYtW8ZT+vD3v/8dv/nNb3DxxRfzK+rIyclBamoq+vVrsUWMxoiUXU1NDQoKCpQQrppAoqwVCxcu5Gfq0DLcXWfj3nvv9TJB4imJFrDeh3f//v3ezz//3Ltz507v1q1bvZWVld6NGzd6P/jgA+8nn3yivMZEmH8ieCiEqhE7dgTCww8/zM8CIy0tjZ/pxyuvvOL97LPPeEo98+bN87pcLp7SD5GyYw2497HHHuOp4OlQ94VRyzrNiNqANxL10Nzic845BxdccAEuueQSXH755Rg6dCiYaCrWWUxMjPJaMIt2WmJUtzoQRH3cTA/4mX7QPUTuQ9/JiPyJlp2W4wodWqO66hxlglYyGlHJJPpixsFW0cbeqPpo5vyZIW+ainKgrYURQavNioyFHBqEUm/P7EaCmfNnWlEOtCtnxq6fUVCLLN0XnR8zzrU3c70SrfdGfSczlF2HWspmb5n1hFw3Xfn7hwq0Os1sLgxRYTFzfaTvZET+Qk6UAy20rmwp0y7cks4PDS5qOcijBWYWZVFxpTI2syiHzEBfV4YqmBlaZUlwUI/HbMaFmY0dyptIvTfqO4ncR+vnWNNvGmhrYcaRa6Poyt89lKDG1QgLLhBEBcwII8HMeSNE8qf1ij5NRVmiHhl2MzQwY49HdEaIEd8jmLwZ4SYSzZ9pRVlO81IPLUPuqgH+Qwmz+ZMJM0eJE82b1tZoW4jkz9SWshGFFiqQL7KrboUVSphRlEV7YUb4bYMRZSMQKTsqN9OKcqAV1GzdPiOhYD1qopBJzA09jGarx6L5MeJ70D1E7kOfMcLoE8mb1o2Zpn8t0C8kUgChAm0hQ/v0STo3oeSCMsJSFsUo94UIWudN09Cdjz/+OGbPnq36x124cCGmTZvGU12LrKws3H777Rg8eDC/Ig6Fnty7d69QGEzaKJLCf5599tkBBeqhMKBOp1N174gq7mWXXda42euuXbvw5ZdfKudtQYMuFDrzvPPOw9dff43PPvus2bhFdXW1ct1msylhNyn4kD9ut1u5j+gear/+9a/Ru3dvnmodCtt411134d133+VXOh4Kh0thcQPl/vvvx4svvshT+vDvf/8bAwcOxEUXXcSvqCM/Px+//e1vld9ET0TKjoKLUbjP+fPn8yvBobkoz5o1S7X/5+mnn8bUqVN5qmuRmZmJMWPG4IorruBXAmPDhg145ZVXlKhnekJ+b4rBTFa9///+/nDq8ZCPnFwytCiG/qdDdFdlM0CxlCk2+OjRo/mV1qHGcPz48SEhyhMmTMDzzz/PU/ogKsovvPACrr32WgwaNIhf0QcSf4p1Hgj0PFAs5QULFvArQUKirBWstfCy7hxPnRz2JfhZ12Ps2LHeiooKngocu93uff/993lKojVMkL1FRUU81TYUt/l3v/sdT5kDJqz8LDCYGPEz/Vi7dq2XNWQ8pZ4lS5Z4t23bxlP6IVp2GRkZ/Cx4OtSnzO7Pz7oetB2UEVu6S8RQW5dDaRoo7VxjVshNZtaBceo1apk3zT37gQhtVxYl6u4H+/21Hyj1sArGT9viSNeYxke+djWYsQ6LTtMzaoqmiDFGA6pGlLUZ8tahotyVLWVqWYOxsnSZubI5G2Fz7cDBChQsyEOecuSjdHfDw+pC0Z3JKNjNkx1E/Q47nAd5QifUzlelh1GX36IDMLPVTw2NaGOjN1rnrUPnwNAX6apzdelhDuYhoAZNtFGr31zABTcP+etdqK+vVw6aTQHaeKCXDcn3piHt3lTYDhcg63UHf48T1astCGtz/M6B/BuzUFrPk4144Kq0w76BHzvoDW6U3NkNWevdcFL6iC8PvqPJYrPP6obU1908RVQgf0QmSmt4kkEi3fi3NzjgOsJfYFTM6YbMDYFbgCS0asTWjEIhOrXNiO9CkwBEGjGjDDjRvGmZP81FOZAVMVR5zNj9MwL68YN5CNSKxom4UfpcESy3ZCAjrg4TFxTA7qhCFTucXzSoqQVWq5X9e9TnzqhzKa9XOVzs0+3hQf16INzKk41YEHlpLGJtsYhyF2H43FLl79DfDjtoR9bgfKzf58tD1SuZCE8pZDa5D2ojPP5t19ZyFLMPV20obbKWD9iRk1AE1qQw6uCqafgebrh2svy03Yq0Cf02auIg0PvMPL83EMy8wtTMeaMZSVrWgQ6tTUa1fmYk2NgXYoLchIX0pjtTPGskrC135dpRgJGDh2Pi0grgpgIUT4jmL/ixjwnh+GQkT8hByU7/B6b1Lb4sTOSt7J5hbUyT6zEoAQk3JCDcUwXbCCbe/HpL3Luq4JiUhay4epRMjkd8SgFqo2JgZZ+IZZ+nv5FwqRUexeKuw1HBzgj14ESXBHc0os+VEb1WUUOERDnYOq8XWg+Qai7KgWSQWpeuuk8ffe9geglUdmKtsxXRN0XDPmscxi0sR9oN8YjlVmx0X5+JW+9yoDQ6DdnTU5B4gw1RfaKV12NtUYhQ3uFCwYRMWCYUo3j0USTfnYpx49nfG5+LNcxSPdrSqKkvRebAeIybXwi7JQnl8xL532H0sCISVcy6Zec1Jchd6EAUE3B/XO5afgbU7rYjYbAN0cNSMLuoHOVFaYhWDNoCZNw4DpmKW6YApYpl72zmyggEmntKAexPBv2GZjMuRMVLNEJaIFCdFcmfeH0PDJG8kUtGy7xp/i3VjloTRviwzAqtoAsGqjxiFcEC292LUfjaMix7bQ2WPWBTXBV0RPaJRFR3C6xRNiTVFyL9HhLaLJS6fe4MqzUKkcMszMpmVmhtOCzkNni6AtlPF2LZEvb3lmRiJBNsd8tBuN0OFO4eibS56UiJC0P1avJpL8aaXey13uFMlAkXimZlAnPXIHHTSAx/ogIN2u7wm/Fhm+RE8dgWdnSvCGYnxyFz5TLkTs9AxvQ0JClWczxiTnClqINE+fzzz+ep9jGrBRcoRogePfMijRiVsRHlLNrAapk3TX+FQDPWWbuHWkCiHMwPSZVHGwvNA9daJpIrSlEXtxh7Z9qAQWkoXrcGxctJaLORaHGgaFE+iirDkV5RiKQIG9JXZysWauKSMsxmQt0uzNJOYDZ0wRxmxS4tRz2T0MSpEzFyIH+d+NSBulHsPfcmIm15FYpZY9H8r/LBwo+YBVzhN7BHAr/offzvT+XIHDUcw28cjtSlTi7oVkT0U04ChizgM844g6faxwixMAK1K3E7AmowjChnkXtonTfNm8ZA/KS0FLerQjMvgrFMqBJoIcr1b2Wi/9owRDpGIv4FB7/qjwN5IzJR1wsoiMtACR/ps/SLU/y3tkY/BBEB2/xkRLP3NiMiCYXeciybS1YsHUlM0C2IGJyGiB78M1cnIX1UNBdissx9ZxH90pA+iCzjpsHCZscNyUi790E88S8X9laUoWxdGQrvbfo7sfeUIWmAkggIGrBW8/sYYV0GiqhASPeFGFrnTfNvGUiBi8Z9DQUoiEmw7hutZq5E7C5G8UdpyB/DrOTWsNShdHUpLPMmIrGZCLeEWcDTU2A7ieHsw4qEh5chjQlue5+JGrsMi0f5bqoMFrZxtHVL66UJJzYSKiDXhRqREp3ipSfa9KD0QbTOm/k7aZ03TUWZWotAWluzVWYjOXz4cNDfX4vJ/tZbFsNVVIjiimVIarWrb0PGpnIUrlyDNTPj2hS/UIN+GzUCovUgjxaY+bky+zNvhvxpWpsCbTHM2h0xAi2m+AQzpc4fC3cVtAkN/nUVNeYcOnRI1e9jRJc/lBCt80aJpYgmUd60tJY1VcWuPJsiUIIdVKHPm3lZbGdH7dTOUDIsjKhPouJFnzMifyIaRnnTchGcpjUqUKuhK1vKwfoita4IkuaoHYSm38EoK05vtOp5tYdoWVHejChnEU3Sutw0DXJPkfdnzJjBUydnzZo1ijhRvAMKZUkHzQ9VA71327ZtbQoT7RgRHh6u7FZx+eWXK+cN0Gf37NmjdFEpKPuVV17JXwkMWgG1c+dOfPvtt/yKej799FMsXboUN998M78SGOXl5di/fz9GjRrFr0i0ZNKkSZgzZ85Jdx7ZsWMHZs6cibfeeotf6Xheeukl3HfffTylnj/84Q9KEHo9WbduHS655BJceOGF/Io6Hn30UYwcORJXXXUVv6IPS5YsUTYtCITdu3fjmWeeUTYX0AQSZa3oykHrjYYC5K9evZqnJFqTlpbmPXDgAE+1DQVev+WWW3jKHLz44ov8LDB+//vf8zP9eOedd7z79u3jKfUwUfZ++OGHPKUfrEHjZ+rZtWuXphsEaOo/6MruCKNhv50sbx2hgVgq45NBXWqz/Q6i3XyjxoRE8kc9YrO6L7QuN01rkxyJNg6qoLK89aMz++tFxYvciHpDeRPJH22Qa1YOHtQ2uLemotyVl013BLK89YMsJiMsMzNh5tjmZt6qSuty01SUg53mJVEPiQZtKSXRB7Vlq8bFYTRmzFMD1NCJ5M/MrjqtdU9ayp2Yrhw7RG/Uli09kKFijBgVRldElC1txOHWGpG8aR0uQlNRlotHjMXM1kNnR+3DSe8zW70XzY9RYxQi/nqj4uSIlJ2pRbmr+eA6EiprKcr6EUjZhkq9V7tGIFhEysuovIlYylpvVSWf6k6KFGV9UWs1mlGQRYSFMGofPBFL2ahBSJGyM/12UBLjkKKsH7SDTmeNLSIietRtN8INI+ruoaXMoo1NIIjmTUs0fapDpRvXFaCl5lu2bMHGjRvbPL788ktUVFTggw8+4J8yLzSPtSHf7733Hvbu3ctfAWpqapp9r5bHhx9+iNrapn0ACRroU2MBUZ03W70XERYjBLkBM+dPRPi1zpumsS9WrFiBu+++m6ckenLgwAGlvI3ytekJxZb+5JNPDOs+tweJMcVKocGbyZMn46yzzuKvtI7T6URWVhaKi4v5lY7n6aefxtSpU3lKHeQeoO9N30dP1q9fr2wgEBMTw6+o44477kBGRobusS8WLVqkxD0JhLVr1ypxfEwZ+2L58uX8TCLpGjAR8yYlJfGUOcjLy+NngREdHc3P9IOJsnf79u08pZ7bb7/d+9FHH/GUfjz77LP8TD1MkM0b+0K6LyRdEbPVexGfMrlqmB7wlL6IdPcpb0bkzwzjCHKkSCIJAjMaIkb6h0UwSvxFMEPZSVGWSILEbCIoIno028TMPV3KmxH5CzlRNvOPKpHohdksP2kpiyNSdlrrnrSUJZIgMKMhIiJ6Rs0DJkSFz4j8idxDirJEYjLMZvmJ5IeCiRm1GElExChvZmwACVNHiTNroUkkemGUBRdKiFjKJHxmLWetGzNpKUskQRIKlrKRiOTPzCEFTG0pSySSjke0x2qEmJOAiQismWNWS/eFRGIiQsl9YYTwic4MobyZtZypkdEyb5rGvvj73/+OP//5zzwVGLT54I4dO3hKIukcUNCmVatW4e233+ZXOp6cnBzMnj2bp9QzZMgQbN26laf0oaysTIknYrPZ+BV1PPDAA0pcnd/85jf8ij48+eSTeOihh3hKHZWVlXjllVeQn5/PrwSHpqJ86NAhVFVV8VTHQUsladkoBVlpOFqm6eisoRmNgCxAiinc1kGWS2vX/Q+9OXLkiFLfOnpe7oABA4SNET0QERZi6NChukcE3LBhA8LDw5UGIBAefPBBpKam6h6QaMGCBZg+fTpPqYMasmXLlpkzIJFEIul4mCjzs8C47rrr+Jl+vPvuu14mYjylHtbIeFmDwVP6wUSZn6mHglJNmDCBp4JHDvRJJCGG6EwFWmptBCJjT0b0vAiRstM6b1KUJZIQQ1SUjXIDiYiyUXkTKTut8yZFWSIJMUQtN9Zz5mf6QaIn2mgYMbtLdAaKlnmToiyRhBiibgijrFGLxcLP1CMSI1oEkbLTOm9SlCWSEEPUUjZC+Mgap622AoXyZoQlb4a8SVGWSEIM0S64EaJH3XyRrj7lzazuC63zJkVZIgkxRMXVKEtZBKMsZREXjrSUJRJJu4habUZYosHcQ3SAMBBE76Fl3qQoSyQSwxDt6pMFa4Qoi1i8WudNirJEIlEwwlIWhYRP1FceCKINhpZ5k6IskYQYouJqhCUqClmwZs2f1nmToiyRSBSMsEQJ0UbDiKXWInkjUZaWskQi0RyzugcIM1vKhBRliUTSJqLCZ5SlLILW1mhbmKHspChLJCGGmUWZ8iZi8UpRlkgknZZf//rX/CwwRo8ezc/0o2/fvjj99NN5Sj0jRoyA1WrlKf2Ijo7mZ+qJjIzENddcw1PBo+nOIxKJRCIJDmkpSyQSiYmQoiyRSCQmQoqyRCKRmAgpyhKJRGIipChLJBKJiZCiLJFIJCZCirJEIpGYBuD/A5+LekhtsvNiAAAAAElFTkSuQmCC;" vertex="1" parent="1">
          <mxGeometry x="83.25999999999999" y="554" width="357" height="252" as="geometry" />
        </mxCell>
        <mxCell id="gsk0wDziKHdw3YsIVp2X-54" value="" style="rounded=0;whiteSpace=wrap;html=1;" vertex="1" parent="1">
          <mxGeometry x="453.26" y="614" width="120" height="160" as="geometry" />
        </mxCell>
        <mxCell id="gsk0wDziKHdw3YsIVp2X-55" value="" style="rounded=0;whiteSpace=wrap;html=1;" vertex="1" parent="1">
          <mxGeometry x="453.26" y="614" width="120" height="20" as="geometry" />
        </mxCell>
        <mxCell id="gsk0wDziKHdw3YsIVp2X-56" value="&lt;b&gt;메모리&lt;/b&gt;" style="text;html=1;align=center;verticalAlign=middle;whiteSpace=wrap;rounded=0;" vertex="1" parent="1">
          <mxGeometry x="483.26" y="574" width="60" height="30" as="geometry" />
        </mxCell>
        <mxCell id="gsk0wDziKHdw3YsIVp2X-92" value="" style="edgeStyle=orthogonalEdgeStyle;rounded=0;orthogonalLoop=1;jettySize=auto;html=1;" edge="1" parent="1" source="gsk0wDziKHdw3YsIVp2X-57" target="gsk0wDziKHdw3YsIVp2X-88">
          <mxGeometry relative="1" as="geometry" />
        </mxCell>
        <mxCell id="gsk0wDziKHdw3YsIVp2X-57" value="&lt;span style=&quot;color: rgb(204, 0, 102);&quot;&gt;1101&lt;/span&gt;" style="rounded=0;whiteSpace=wrap;html=1;fillColor=#f8cecc;strokeColor=#b85450;" vertex="1" parent="1">
          <mxGeometry x="453.26" y="634" width="120" height="20" as="geometry" />
        </mxCell>
        <mxCell id="gsk0wDziKHdw3YsIVp2X-58" value="1111" style="rounded=0;whiteSpace=wrap;html=1;fillColor=#f8cecc;strokeColor=#b85450;" vertex="1" parent="1">
          <mxGeometry x="453.26" y="654" width="120" height="20" as="geometry" />
        </mxCell>
        <mxCell id="gsk0wDziKHdw3YsIVp2X-59" value="" style="rounded=0;whiteSpace=wrap;html=1;fillColor=#f8cecc;strokeColor=#b85450;" vertex="1" parent="1">
          <mxGeometry x="453.26" y="674" width="120" height="20" as="geometry" />
        </mxCell>
        <mxCell id="gsk0wDziKHdw3YsIVp2X-60" value="" style="rounded=0;whiteSpace=wrap;html=1;fillColor=#f8cecc;strokeColor=#b85450;" vertex="1" parent="1">
          <mxGeometry x="453.26" y="694" width="120" height="20" as="geometry" />
        </mxCell>
        <mxCell id="gsk0wDziKHdw3YsIVp2X-61" value="" style="rounded=0;whiteSpace=wrap;html=1;fillColor=#f8cecc;strokeColor=#b85450;" vertex="1" parent="1">
          <mxGeometry x="453.26" y="714" width="120" height="20" as="geometry" />
        </mxCell>
        <mxCell id="gsk0wDziKHdw3YsIVp2X-62" value="1000" style="rounded=0;whiteSpace=wrap;html=1;fillColor=#f8cecc;strokeColor=#b85450;" vertex="1" parent="1">
          <mxGeometry x="453.26" y="734" width="120" height="20" as="geometry" />
        </mxCell>
        <mxCell id="gsk0wDziKHdw3YsIVp2X-63" value="2000번지" style="text;html=1;align=center;verticalAlign=middle;whiteSpace=wrap;rounded=0;" vertex="1" parent="1">
          <mxGeometry x="583.26" y="636.5" width="60" height="15" as="geometry" />
        </mxCell>
        <mxCell id="gsk0wDziKHdw3YsIVp2X-64" value="2001번지" style="text;html=1;align=center;verticalAlign=middle;whiteSpace=wrap;rounded=0;" vertex="1" parent="1">
          <mxGeometry x="583.26" y="656.5" width="60" height="15" as="geometry" />
        </mxCell>
        <mxCell id="gsk0wDziKHdw3YsIVp2X-65" value="2500번지" style="text;html=1;align=center;verticalAlign=middle;whiteSpace=wrap;rounded=0;" vertex="1" parent="1">
          <mxGeometry x="583.26" y="736.5" width="60" height="15" as="geometry" />
        </mxCell>
        <mxCell id="gsk0wDziKHdw3YsIVp2X-66" value="&lt;b&gt;&lt;font style=&quot;font-size: 30px;&quot;&gt;.....&lt;/font&gt;&lt;/b&gt;" style="text;html=1;align=center;verticalAlign=middle;whiteSpace=wrap;rounded=0;horizontal=0;" vertex="1" parent="1">
          <mxGeometry x="573.26" y="679" width="60" height="50" as="geometry" />
        </mxCell>
        <mxCell id="gsk0wDziKHdw3YsIVp2X-67" value="&lt;font color=&quot;#cc0066&quot;&gt;2000&lt;/font&gt;" style="rounded=0;whiteSpace=wrap;html=1;fillColor=#f8cecc;strokeColor=none;" vertex="1" parent="1">
          <mxGeometry x="213.26" y="664" width="50" height="10" as="geometry" />
        </mxCell>
        <mxCell id="gsk0wDziKHdw3YsIVp2X-68" value="&lt;font&gt;2000&lt;/font&gt;" style="rounded=0;whiteSpace=wrap;html=1;strokeColor=none;fontColor=default;" vertex="1" parent="1">
          <mxGeometry x="213.26" y="619" width="50" height="10" as="geometry" />
        </mxCell>
        <mxCell id="gsk0wDziKHdw3YsIVp2X-69" value="" style="endArrow=classic;html=1;rounded=0;exitX=0.588;exitY=0.278;exitDx=0;exitDy=0;exitPerimeter=0;entryX=0;entryY=0.5;entryDx=0;entryDy=0;fillColor=#f8cecc;strokeColor=#b85450;strokeWidth=2;" edge="1" parent="1" target="gsk0wDziKHdw3YsIVp2X-57">
          <mxGeometry width="50" height="50" relative="1" as="geometry">
            <mxPoint x="293.17600000000016" y="659.0559999999998" as="sourcePoint" />
            <mxPoint x="453.26" y="679" as="targetPoint" />
            <Array as="points">
              <mxPoint x="333.26" y="659" />
              <mxPoint x="333.26" y="644" />
              <mxPoint x="393.26" y="644" />
            </Array>
          </mxGeometry>
        </mxCell>
        <mxCell id="gsk0wDziKHdw3YsIVp2X-88" value="&lt;font color=&quot;#ffffff&quot;&gt;&lt;b&gt;&lt;i&gt;메모리 주소(2000번지)&lt;/i&gt;&lt;/b&gt;&lt;/font&gt;" style="rounded=1;whiteSpace=wrap;html=1;fillColor=#f8cecc;strokeColor=#b85450;" vertex="1" parent="1">
          <mxGeometry x="343.26" y="629" width="90" height="25" as="geometry" />
        </mxCell>
        <mxCell id="gsk0wDziKHdw3YsIVp2X-90" value="" style="endArrow=classic;html=1;rounded=0;exitX=0.168;exitY=0.794;exitDx=0;exitDy=0;exitPerimeter=0;fillColor=#f8cecc;strokeColor=#b85450;" edge="1" parent="1" source="gsk0wDziKHdw3YsIVp2X-53">
          <mxGeometry width="50" height="50" relative="1" as="geometry">
            <mxPoint x="243.26" y="754" as="sourcePoint" />
            <mxPoint x="443.26" y="654" as="targetPoint" />
            <Array as="points">
              <mxPoint x="143.26" y="794" />
              <mxPoint x="273.26" y="794" />
              <mxPoint x="413.26" y="794" />
              <mxPoint x="413.26" y="664" />
            </Array>
          </mxGeometry>
        </mxCell>
        <mxCell id="gsk0wDziKHdw3YsIVp2X-93" value="&lt;font color=&quot;#ffffff&quot;&gt;&lt;b&gt;제어 신호(메모리 읽기)&lt;/b&gt;&lt;/font&gt;" style="rounded=1;whiteSpace=wrap;html=1;fillColor=#f8cecc;strokeColor=#b85450;" vertex="1" parent="1">
          <mxGeometry x="203.26" y="781" width="130" height="25" as="geometry" />
        </mxCell>
        <mxCell id="gsk0wDziKHdw3YsIVp2X-94" value="" style="shape=image;verticalLabelPosition=bottom;labelBackgroundColor=default;verticalAlign=top;aspect=fixed;imageAspect=0;image=data:image/png,iVBORw0KGgoAAAANSUhEUgAAAVMAAAEPCAYAAAD/Byf4AAAAAXNSR0IArs4c6QAAAARnQU1BAACxjwv8YQUAAAAJcEhZcwAADsMAAA7DAcdvqGQAAFMXSURBVHhe7Z0LXFRF+8d/mpfFKxjmUlSSWmFWLtkb0tub4j9LzEosS8lSMd8MzUq7mKRmoGVSVpJ5IU3DS4ZmJlrmamWAb8ZqmnjLpdTAJFnxwpoX/vOcHa7uwu7Zs8OuzPfzOXpmzi5nds6c3zxze6ZeCQMSiUQicYv6/H+JRCKRuIEUU4lEItEAKaYSiUSiAVJMJRKJRAOkmEokEokGSDGVSCQSDZBiKpFIJBogxVQikUg0QIqpRCKRaIAUU4lEItEAKaYSiUSiAXJtvkTiBZw7d46f1cz58+f5GdC4cWN+JqltpJhKJBKJBshmvkQikWiAtEwlklqGmu2nTp1CixYteIxzHDlyBK1bt0b9+mJsor///hvNmjXjIec4ffo0GjVqhKZNm/IYz1JUVKTc67LLLuMxNXP27FkcP34cgYGBPEYd0jKVSGoZi8UCo9HIQ86TnJysiJUoVq1apfTRunL8+OOPyM7O5n/B81A+Un66AlVKCxcu5CH1SDGVSGqZevXq8TPXoO+p/a4oLly4oByiqM38kGIqkdQy1NOmprdNVPO+FDVpFCmkhJq81EqApZhKJLWMO5aptyNa8NXkiVZplGIqkdQyapvCooVKDbVhPbtqmUoxlUguEdQ0nwlXRqy1oOJiAWcRbT1TXrpaMUkxlUguEdRYU4RoofIF65nS6GpeapWPUkwlklpGiqm2uJovDRo04GfuIcVUIqll1FhTpYgUVF+xTF1NJ31ei3RKMZVIapmGDRsiKCiIh5znuuuuE9pves011/Az57niiivcXlnkCm3atFEWC7gC5T/lpbvI5aQSiUSiAdIylUgkEg2QYuozWGHZnYnM3fmwcteXVotFWYdssVhtEcRJC/tkOdaK1yQSiceQYuoLWE1IigxD7Oo8FOesQfISExNMFhcaiYT5aUiZ3A/XRSbBZM3H4qEBSMri3zu0GDEBScjkQYmXwp5v8vCRiH87CUkvsWcZ1A+L9/NrlTDDOD8dZq+uH62wOpE+60mBP8LKDAznfW+rRvaZ+gD5S/rBsCMO5imR0PE4MIlMrDcdIQfTMDDYjJSe1yF/cjbQNwEhP1Gc7TPx9WYiLC8V0XrlSxJvZ38Kej+Sj/jM8eha/rBtbEtC2BAgxTQGBh7lKajVUy53Ovj765Aztx9S9MmY3sdxYaKyGmSKQ/FLfkidnwHy3+Tf3oAQ/wB07GqAnn5T/grEBOVgZAn7jcq3NCLfBGNOoe3cLwQR4SHK+5L5Rj1MxzxEtmcGyQBDhXeoFAvSnwmFaWgexnfhUSqQlqkPYN6/AhE3d7RTCGxY9xuRvj4Woe1Z8c/nkRw/shQE1MoSDchdjGG9hiGdBvZP2qIqYv4pHab8dCR/kI6cAh7pAazr4xEWGoCYV1OQMpeOZKQzS9nCRNC8LQX96iXy1o4FOSuTkfR2MhZvtbm98w8MYb8jHxZ/A4IKxyLDPwr9uochJIBdLJ3OeY6VSX6qKc1CEGYIQ1hrM5K7JiOj4k12pGPkyhxF3C/GCksBe3HcfE+kmPoAIe2jkbFjl50CmIHUd5KQvBKINc9EdKAOus4ZMJcKqqUQeQiCv2v+fCW1QP7akegxNBtR64tROC0EaU/0RuLGiq9+Pkw/GBH3YSoSbrdgxbMRiHjV6BFR0t0zEvF3ARFPjMGYF21HVHt+sW0IQlmpKmRJM8+PQYwpDHFPhSDj9nikszhdc1JNRgMdAvzY/80CFKs2gH1PZzEjc6MRxsxdDkTNTZr5s3v5Q3fQhBVDItCRNe9pTKGwmF27OQzRy80wn6QulX6I6R+DsSysZf5JMfUB9H3GYuTGeIydb2SFMQUjDf2wOJeuRCDmBSrssYhqS3ZrKCL7h2Dm5ESs2JiOlAkJSBsRhQh/+qzEm9H3mokNxumIZs/Rv9NATE9fg/HdKz64POSsZ83lECYWN0Zj/OIMZFTq9vEQh9IRP3wYhrFjejoLM+vSj6XFwiznfHYt4nYmratTkT4oEmF2ylnGlFiMnJCsWLip63NAuuZRaHxhcjIMukLs2p2NbFM2zGVW/Dn8PCUKpl4sLdN6w8wENUb5bWOQYrJ9wh1kn6mvwGrZnG3ZyCv2Q9DNXREamA/jB2vgNygWXasU4or9XTqqqfm5xBvJweLhSSA/+4X5ZtDkC51/CIJKn+ldYzBvUKhySs8VlnTEhJgxVuv+xkpQH2IAUroeQNog1mznKH2P7VMRNjDN1ld/zojk5SZYAw2IYWKqp2Z8ViLqvROCvM8GonhRP1yXOxYlr1VJ6aHF6He1J36DlaUxEmMQj4RmyRi2MQppn8XB+jb1mSYAE6y4c0QCdt2+AZGmRKzpOg+pA+j35WNx/yCYXyjB+HDbX1KDFFOJxIuwCVYe0gY4GOTxmBBVxrptMZLX5/GQPyKeigU+qCKmyiBnFSqIqX5bMvpNMCJAT01/f0S9xCxv6i7w1G/IZ+K+PoAJu4HdjSofK6uYdDBNDcL0BmOBd6wYmzOQGa9m4OowdG1fWmNJMZVILjnsiun+xYh5ibVCAv1YS7UQeYeYNLHL+fkWhHSOw5gp0QjVxldH9eSbkNPAgKD8HKBTqCJYF7EzBf0WByGFNaftXldgraysQoTw0XZvIGd1EsyhFfqGVSDFVCLxImj6UWpwChJ6OZYiiXcixVQikUg0QI7mSyQSiQZoYplOnjzZrg9B2o86NzcXxcUenxDhFuTLsHnz5soctZYtWypuw5o2bQo/Pz80adJE+R1//fWXci7aIa/W/PPPP9i/f7/yeypCrtxat24NvV6v5ANBv7U0rlWrVkocQc+6qKgIJ06cKDvsPWMqWpR3hw8fVj5DTnjJ3Vnp0ahRo0rhqodWTnurQumndP35559Kuhwxf/58hISUj2aLxrLbiLzASISWebCj5aQ5CBkQhRAv6Wy0HjLBdC4UXZWpeTbM61OQExKDqPbe0iNqQc7GPAR1L+/npQG2VGsUYsM17E4hMXWX6OhofiaRXBo88sgjJTt27OAhz1J8orj0rKSwsPx8w4soGfNNaZhhml5i6Dy9JJsHhVKWRpaysjSWlByYE1kSOecADxHZJdM7G0qmm3hQKMUlxWXZV1hSnpUbSsZgTMmGsmQXlqwZgZK4Lwt5WBs0aebXxtYEEokncdVbu3oykdR8JFbQxPLcFYgdvoKvCLYgPxcIaF7B4hO0nPRiyIFORyRtpfNMJFRwnpOfb4R/M1rqxNmfjfRteUj/MBnpuz2yzskxWUnwe2aFsrrKvDwWsSv5UsCCfGbTB8CvNCut2TDOAtIXJWNxVr5mq6CkmEokdhAnpoQeugYWWE4WA8t3YZfiVrEQxZXWiotbTmofA/x1tnQB2djFhLJsqWYF8k1GGEckI3VCGCzL4xDRNR5GO34GPAZ5UqFFKyxjVuTsUtJosVRJ5M5MpHaejrQPo+H/UwL6de2NlN38mhtoooK+3o8okVRFrJgyy8mUjewcM7OqTFgxNxVpK9ORWcmwK11Oqoc+fKC45aRlWGDOoeWZZkotjAtTWBrTYNxvW51VSt5+IwwdQqAP7oqBr6UiIzMBkSJ9QxSYlSWkOQdZ5m1dgZRFaUhbn6lYq6Xkm3chv2soQgJDETVqJtZkrkHsjfyiG0gxlUjsIE5MmRzq81h7Pgwd/YHCvjEY82IcYofEIDKQidPRUhkwYEwOs0w786BgdLpdsOo6IixIh0JEYeSUMSyNseh3cw7M+aUrpVgqR+Uwy9TTDgId0IBl5SGWlYaO8GepjB4wBmNGseb+I5EsbHPOQuj7JKNwWnWLCtShyWj+448/jk8//ZSHJBLf58EHH0RiYiI6derEYzyHZX8mMn5i1pQ1CBHdo8pGxstWQ/UpRuZP5ipOQqzI35mDPKsOhgFxiLS3tFNLyFdoZjZMh/wQytIY1ckmRYr/0v20/t4Ac1YGzFVa1Nb8HOQcskLXJQZx3T3tVJdZzywNmT/loDg4ApH3dEWIYhWX+/6NshiRfVT5cDkWM0z7mdIGRyLOrr9T59BETAcNGoRFixbxkETi+0RHRytT/kSIqSOsuZkwNyOnNlZU2pqmEjbHzbVGQQ5M1hAYgnVVHEpXpnYd7liZyJoREB4K/5MWWBz4LdU1Y2l0YzaeJmL6xBNPYOHChTwkkfg+/fr1w+uvv16rYirxLeRovkRiB1mmJa4iB6AkEjtIMZW4ihRTicQOskxLXEWTPtNhw4Zh3rx5PCTRkj179iAvr3zqSV2AiuT27dvRrFkzZW08+Q3Qgj/++AMHDhzA8OHDceWVV/JY+wwcOBDjx4/HTTfdxGM8x7lz52C1WpXf6wqFhYUICOB7LglAzf3I9wH5tNDqGdaEmvuRv4qzZ88q/jjcQRMxpcI5Z84cHpJoyfgXX0Q3Q83z9qgw/LpvH4oqOO5ozl7Om66/Ho0aNuQxF0OP/9Tp0zjNXmZyVkL/n6b/2VGxaPjpdGjKCmkzdij/s4LXuFEjflUMR48dw/7cXOW3EuQMxb9Fi7KD0lgd58+fx5TkZLz17rvo2rV6H+803Y/ENDS08qR0T0BOZ7Zs2YI+ffrwGOd47733MHr0aB7yPLNnz8Z///tfHnKOzz77DN27d1cc5ohgxYoViIyMLHPW4wx79+6F2WzGvffey2PUoYmYPv300/joo494SKIliRMnYszjMTwkcZehL7+CZ154Af/+9795jH2efPJJvPrqq7jhhht4jOc4evQosrKyXBbTd1ml8Pzzz/OQ55k7dy6eeuopHnKOJUuW4P/+7/+EienKlSvRrVs3lyzo3bt3K97t7rvvPh6jDk36TGVnvcRXaNDAueYflWlR/abUJFVzLw3sIJdQ01QXuyxX3XOjfNTiWUsx9XI8+kIXHcIWZhFt4sf2qitDquUMjhcVlR3W86yG/2wUXjEewpGdJuSe5h+rBit9j5+XcvznjzFi9Fg8Fv8xtpBPDY1p1NC5rgl6wUT18xFqhFG0mPqC4FMaXb0nfV6LdEoxvVTJz8JH8z7Ge2VHKpb9XFBJvKwnjqJY1xqh7VgTLCcV4W9/gyP8msLebzBp0ij0GvIkP8Zj2e/82pkTyN21C6ZdJixJ6IXBawtw/Og3TESPYtPcx7BsL/+cQ0x4r8t4rOJe0hSKvsOkAYfw4NTpeL71W3j3xwLgdKlgn+EfKuU3LBiXiu1MxF2B+lmdEQV6uTxakVXAV94fXxBTNZYpfV6LZy3F1MtRbR21NmDA9UV4xdQC9/Zrh7xpR9GyQ/NKS/p0VxnQLbQ1dI1bQ9+CRZypIljX92Ri+gHWzv+EHUkY3OJz5JZai40DcWt4OLqF341undsj92hlz/2V+P0bvBI/HiPoGDcKfYfMwLoifq0qrY9iz9oZmPTzUDx9Z3NsXzsZ93YZi0mfpSqVwrKdPI1njmJ3GrNsXcyeEtbsdKa8kgiIKteiBUctoioXd6C8dDU/1XzHHpqUFl/I5DrHZY3RskVjoEFjBJwpQi4OMa1k4TKKsO6NO9Ft0mpsYhZm/lUjkDO1D9rwqzVyZhcWKFbreCw43Qdv9mqnROd+vxprc5XTcq7tiTcTEjGLjkkxuOHHM0zA6QKzZCtapi3uxrvrEzH4nqFYOf9ldAtojFvvvBttYcBjw4ZiNDse7WT7DdbfD7Hf5DrnL5xXtkupCerrE1Wu1VpGoo0YX3jP1eSl2vyviiZPQ1qmnkPtQ7bm78I60y6mmb8hy/QbjuMoTFsr9mX+g+MFBTBE3otuHTvC0DEYAeeqNqUro2sSrLg5U9jHmuT5d2PW/ES8OexhdNPbRK7tf/qgV1vltJzTWZhU2lXw1GQs7WeAQfl4IDbNZ9Zq0lr8WNp3+wt1HexC1k88nL0fJ/E5Jo3mlu0bM/AWs1Bnr85SJab/OnEcTQqP8ZBjyFIRaZmqsYxE9ukSWgiOp1GTl/Sc1eR/VTQpLaIfqqRmdOyR6EJjsPa/4WgZEI6XF45glh6/qBCI+4Yk4oYzmXh39O145SsmYn+ccOj1hz7/4NQNeLnU70dgMMKNszB4yCgMjmfNdmZh6hoEsvu2RtuO7J4Vve80Ccek0q6CgON47P670VK5EIbB45i1OqYXblME3XZYf3wSH/3R2hYOvQ4BeBiT3uOW7WvP4WWyUmPIYnUNy9o1uOtMMS5btADFe3J4rGNElWu1lhH1/4rEFwRfDVpt3KiJmPpCjeWrqMvbM8g9bOuUDGhJnaGlFGHL2u+Qyw3Qlp0fxtP3d0Uo+wgJYLdOTAxtl4DC32yW4bZd2L6NW4l0rP8cC7axv63vg6V7NzDL8gMsGHM38r/6GJsui4XhcBbQ/xM8bcfZknXbl1gaMBHP31mxu8GGrkUL5K4ahXd3NEYAJaJJS7RkcS1DOuHOzp/izam2gbSyPlN9MGv8Ow8JqSX9K+X8wpF8/JnwOop/3aGE7UHNfE/tjloVtYJTl4TKWcjKdPWd8Soxlc18b6Mx/LheFR5nwteSCY9i9Rlw3z3haNu4CJtm82Zz/LtYeSYcpsXsfPRw9KIRcuoKuIz9DfoD1iIUWhtD345bjnf0RF9S3woc+fFjjDhjwOhhMbj12HisPcAvVEHXeShWTurJ+2Wvxh1TY3BHBX/B1qIs+DVtjDuG/YTZ95Tub9wOT3/2I1aOq9xnSvEPLuwJZ3abqCikpZw9ehSHJk/C6W0mHlMZWi0lSgjU3qc2hMpVRKfRmf7wqlAatTAINVkBRStFpkyZwkOOKSgowMMPP8xDzkG1b5s2bXDVVVc5XDvbpUsX3H///TzkHgMGDKhxLTztsU976wcFBTlVWGhp23PPPcdDrjEtIQHPPtqfh7yTI1+NQtvfh6I4riM2TbsF6+78BW/asT5rYkvyDRh9NBGT7gu2WcitOqLb9ZWF21XsCWlF6jdpgqtenYCmXW7nMTYeeughxUdvC2Yde5rTp0/DaDS6XIbJHwb5xRDFsmXL8Oijj/KQc6xevRrh4eHCVkCtX78et99+u0vLSQ8dOoSdO3e6vQJKEzGNj49HAnvpnSEsLAzr1q1TnE7Qumd3nQsQy5cvh16vx1133cVj1DFjxgz07NkTHZkFphZa337q1CnloJfk8OHDyhpqKlRqeHPyZDw34DEe8k6sv3+HBet/g9IADwjGvZHMYlTjf+P8GRw/VWEQrAFr5jfh5yqoSUhLqccqxKviJ6FZePl6fRI2Kld+fhW2MfYQVFY2btzospiqWd7pDrTOvn9/1yr2L7/8UvGDIEpMv/76a9xxxx0ui+mvv/7q9tp84X2m119/PY4fP65Yk1oIKfHII48oNVJRkaPJizWza9cu6HQ6t4SUoJcvMDAQ1157rVJZkEegmpxqVEepUw9vRnft3XiaT10a3U+lkBLKdC4moKWHm0Jq3bcXug7XK4cjmtxyK/w63oRjK5bjxOYfeKzNk5CoPknRSy7VoiadGthqLqE2jVqkU7iY3n333fj999JlNNrx8ssv48033+Qh16EmHTls0ZqtW7fizjvv5CHXITGWuI5/r97QP/u8clQnpoGPP4lrpr2jHM3/Xd6yoUpMTf+bSEQPQKkRHNFiqgbSLy36TIUPQJFHF2rSaA1ZubQJ2tKlS3mM83jSlRm5VqM+HLX4QmG8FNGq1eQMvmKZqimLWoiUK6jNS6+xTF1JCDV99+/fz0PaQl0H1BfriuW7efNmtG3bVhlM8gTUb0rOatXiVZbp6YsdkzjFhbM44/29FZVw55mJwheESnQa1YiimulU9hBumRLUPKGBGk/w0ksvOTWzgKA+1g0bNih7pHuCnJwc3HzzzTzk6xRg1aTb8d42HizlTBGOV/UQVSXu9I8zkLdyDw/5BtRn6u34wpRE0WKqBq3y0e3RfLKcSLwmTJjAY2pm1qxZykBUjx49eIy20DSHNWvWKP2o1fHaa6/hlVde8ViT7uOPP1a2onB1BLQir7HfMH5YLA/VJgVYNvpO5A7Zg5c7U/gMtswejsGrG+PGVr+i8I6ZWBfXEdsvijPg/Hdv4+iRB9C2v+cdLdujulF96iulQaiq0MgujQyLgCr177//3uXRfOrnp23WRfHpp58qOxBUZXvS22i8fh0PicHavDnOBVyO+no96vuVtyKO/fUXmjVqhMvOnUUJOe5hR70aBnEvlFxQ5hU3bODeijJNpkbRtCiaHuUs5NmaPHDTvuSeYurUqYpY/+tf/+IxlaFpHtdcc40yB85T0BzAiRMn4uqrr+YxrvP6+PF4efCTPFSbVBZTa9YM3DgvGJvmPYy2h1fjse7f4P732iE+rXJc3+8/wP17pJhWB3nap751V8X0k08+UXYEEMWiRYswaNAgHirnl3ffwWUbvsbZO/+Deg0boHnoTbiMbyFDs2SuDr4azVs0V8KeZseOHWjfvr1LU9pOnTqJ3Nw/cNNNF8/kOZVrRtO2ITzEyv1fR1CcW9krRINWrdD02rbui+kZpvzTpk1TrDxXeOyxx1QNFjkL9e/ExsZi5syZF1meBw8eVMR0zJgxPMYzkJhTN4I7TGUVzvMDB/BQbVJZTHPThiM0fwSKmeVp3TYL3SY2xsQnshBdJW72qqFo7wWWaSlLV3+Fx58st+aa3NLZrpjec889ynQ7EfiKmDq63y/vz0DJxg24deXFc6mpQrr11luVeeAioG1LaM8pV+aZHjt2DD/++KPL28ZUxe3OArWjZ56exEv9IG+88YZiGVaFBNbTQpqfn49bbrmFh9TTRMCkcTXobzDgjm9WY8FXszAg7jv0fT0G3e3EXSxT4qFpUqXHZp2fMh2q9LAnpIQvrHsX3Wfq8F2vVx8lDtJCaaQmtEhc7aelNKrVsYpoIqZqEkKrFLZtqzqaoS3BwcHKVCzasbCU999/3yPzSatCfWAPPPAAD6nH1e1/PUcg7hv9CR681hbSdRqBdbNZcz4wHFO/Wsqs1cZ244imhsfQPMIzsyVcpVkT5/rHvX2OKeEtgzv1GzqueEioNOhJdAlX70cVp9eIqRrIFBfRJ0VNJ1oqRuvtf/75Z8X8p73YPU12drbyG93Fm0ZDW14XXml1k07fEd3CDTXGocXVuDzY82vcnYEGG5yBVsNJnKNeg0ao78D61EqoXMHVd4ZcGWoh+Jq0E9QkhByX/PbbbzzkWag/NzExUemjFTX6qdXLKLopd6lTnzVJnaFlS5vHVUnN1G/UEOcczMutDTF1VY9IfLXoinD7TXVH0UkoPDXftCq0v/i4ceN4yLMcOXJEMwcZl0kx1RRnXcKJXAGlFm/x23AZK+sXmtkfraf8Ft1n6iqkYV4hpu40Q//zn/8gKyuLhzxLu3bt0KpVKx7yLN99951yPy3whYEQX6J+fefKq0gxVWuQeItIKdOgquljdsfgUoOrmkTp0yKNbk+NOnHiBKZPn65qzihZcMnJyZg8eTKPuTQgK5j8l5LnKHdZMn8+LmfNKDUcZ89m55497KWruZl1IxP/KwIv5yHXuXChBKZfd+LUaVtLw79lC+VvNmrYEGf++QdW6xkUn7HiNGuJFNO5tRjWM2eU77kC/b2O13dAi2bNcPbcOWzd/ovyvz0asxf86iuDEHTFFWUv2OwlS5D2VflUKUeMHz9e6RoSAblpNJlMLk+NosUvI0aM4CHPQ4tQhg4dykPl5K7/BgXpX6HLu+/zmHIyMjIUL2q0SEcENOWR5gi70k1DLhBpSpW9BQmu4LaYWiwWJCUlKdOQ1BAXF6cI6qUEOcD+/PPPecg9CgsLsX37dh7yPch6OnDggCIYnoAGD2jGAznspv/pqGldPc3wqAlalkzzp0WgVkw/+OADjBo1ioc8z5w5czB8+HAeKufQ5h9wZNVK3Pb2OzymnB9++EGZBnnjjc7sieA+5MCaxNSVeaZkEJKYuj2eQmLqDuxlL4mPj+ch13n55ZdLWM3AQ75PUVFRCbNKeUjiq4wePZqfeZ6DBw+WrFq1ioechxkx/EwMzBLmZ5X5c+tPJT89G8dDldm0aVPJr7/+ykOeh4mpokmuQJ+fP38+D6lHkwEoOtRC/k2/+eYbHvJ9yL2gFlOiJLWLyMEd6hdXM2vDW/pMG1H/Mq2DtwOlUfRovqtQGt3RsFI0GSp256HSViOZmZk85PtQs0aKqe8jUkzVDuJ6i2erhs2bo95Z+2khIdVCqJxFTV6SsyavEVN3EkJ9XKKmR4mA/JdS/53EtxFp9andwVO0mDqynuvVv4wlxn7lQ5WSSMtUTV6SmGqRxloXU8Kd6VXeBA0WXX65+hFxifcg0jKlOclqXmarVZWrbtU4Eqp69euh3gX7lY9WVp+zqFkso9WzdltMKaPcrcVppM9d70reAM0vJW9DEt9HpDVFc1rV9JmKFHyiuoUoJQ5WlpH1LFJM1WzNTZ7vvMYydXdrDYPBoOwbrhXWbYuRtMhUtsWGZWcmzCd5oJSTlkpbcFgt7tfytAWKOzuRSrwHtU1vtagRHPqOSNGvzulOPdhPP4mpyDSqQasuHbfFlJro7tY85O9w06ZNPOQuJiQPGYPpL8UjVdlqKh/pkyOweKdykZOPxUMDkFS6+OrQYsQEJMHdYTAqNKJfQolnoPmrIlHzDpFnK5G+Gxx1x5VcKEH9M/aNEXcNLRF4jdcoKgTuKjs1H6gG06IPyLoxDdMNyUh5IQ/JK008tip5MP8QjZBgHgwOQSh2IS+fh1VA/aVqmhgS70RkpUjvjxoxJXHzFrGq52CVnWhHJ3QvV+9HlZK7BiGhSbWmRWbR9iE0rcg9LEhflILYQVGI6huHoMVGZqfaKCyu1Kgn47QSfizO6ka5JMvanf3xJd6FSItPrf8Feu+0EAFnqbaP1kE6tHJv5yxqBrzoO1pomNeIaWRkpPv9pvvTkLI2BDmLRmLYtHRY81Nh5P6nA/wqjvLpoOucAXOpoFoKma0aBH83/DB/++23ylbTkksDGpQQBU0NVPMOqbVo1VKtmDroAqA0aqEPzqImT7RKn9tiSk0NLRJD+yXRaLg75P+UjuwhCUj9eB7mzUnDvMkBSN24EzRbwmwywrjRdpgOhSCyfwhmTk7Eio3pSJmQgLQRUYhwfjnvRdDa6oCAih6RJb6MyDmc7nSTiRSq6roULjiwrkWKPaHGMqXPa5GPXmOZUn8jFaqTJ6sOuzuPf9exML4QyexOGyF9Z2J6ry6I/rAQ0weEIcxgO0IC/WEYxyzThXGINESg3+R0mD+Mglotpf5Sd3YglXgfIqcd0b3UvEP0HW+xTEscuOATbZmq6UOmPNQiHzXxGvXiiy9i7ty5PEY9tM89efTp1asXj/ENyEMUDaL17t2bx2jHl19+qWyBUpegIkmesmgqDm0xo5VP1z/++EPxYPXRRx/V6MXokUcewfLly3nIsxQUFCitsn79+vEY53jhhReUbdZr8pKlFfPmzVO2L6/Kibw87H31Zdw2fyGPKYf22qdnKGo84YsvvlDu5cqGnbT1PG2hNHr0aB6jDrfFlKyyV155BbNnz+Yx6lm7dq0yeZ/8o/oSnvR9SX+X/r4zUFfD8ePHechm7YeFhfGQY6g1QMtgqx4VLQp6YWlyeambu9pY6UVbIu/bt6+sCU6jsORqjbpX6H9Hk8qLioqQk5Oj9E2++eabmDBhAiIiIvhV+zz00EPKiykC8utLg6/kutEVyG8uiakoR9ZUCdnbjPLkkXzsff5ZhC3+jMeUQ2JKfn3JB4cIaPNMEtM2bdrwmJohMV23bp3ig9gdNOkz1Woayb///W8N55uKw5P9a66MKtPiB7LsSw9nhJQgcbziiivQtm1bdOzYURlIo10QKv6tf/3rX7jpppuUF6O2lsyStUEiWJomOqf0BgUFVbs6hyoV2g2XvkNpd6bZ6U4/pquoGTSpDRzlCc0zLdGo9eAuavJSq7zXpM9UKzElByH0t8hZq69AllL79u15SHt84SXzJZzdwllkP59aqKJ1NJHeE1RXwZQI6mqoCTXvi1Z56FWWKUH+TX1pnT6llWYieAqRL4sjLNsWI/ntJCTR8cFimAr4BR/EG8WUBEBtpSmysnWUJ+ToBA3t56vo8kv5UVsVoSaWqZZL76h56UtN/a1bt3rUMnWqMBbkwLjbwgNOcNKiDBzSUbpQwbI2HsMWmW2BKvjfGIWYEWMw5sVo+K8fg5SfLr5X/pJ+CJpQ84JcK7+vpdQXwtZk9Hg1HdWl/uK05WNx/yDEb+bBc9aLfk8pOXOHIXkrDzCcXYIpUqQINfejsiFSrByJ1PkzZ1H/b/s1bG0YA67mpVYLNDSxTLUUU1+zTGlQxJNcNJJ90oxMPl/WmGVWnLXkr49Hj+WpSOkfj3SuSua5PRD20mIY16ZgZNcgJJYJSj6M81ORnmlEyrORCHnbtkbMaslBSq6D9bQ6f2VBg3lRPOL3jUTMPVUnkVmQ/cMKRLTWwVLdzJRD7J6L0pGxMQVx3UNsaTpngXG/CclMHBO/NnILeCR61+vN0mP72kVps2QjY3kEgnS2H2vdmcr+XgBiXk1B8rvs+2VObqzI25dSKU3UVHVmdoAviCmJgOh02uNc8WnUc2S1ChZTNRWMVrNFvM4ypcEQGkz4888/eYz38uuvvyqDNiLJXz0WESst6BhqwYquY7HiEL9As2uZ6DDjTCE/34gQQyQie8UiJooJUZmg6BE5Kg4De0Uj+p4Q5DOrrgxH0wjPmbHihd4YaeqHFe8UI77nSCzeXeF7yEHGrCiENctAfHQPxLzhoCsgOBJxowYiqm80eofwNJ0rBm4MAUsJ0JJdf5FZwEMiEaQ3IERv+5pCxbTtzEByrzDoMuPROzIGSTnXonsHIOIJsp7ZMchgm2vMKh6z4uymHJqH6ExTX2RTUa1lRN1rtWH5VeUCedl3kA6trD5nofxw9dl5jWVKaJ1h1NT3BeuU9nvq2bMnD3kGuy9L6yDo9UEIggkprw7DmPlkXfrBz39F2RJZXTMDX/W1AmsqujwoMCKxfw/0GMqEOD8SqX1ClWj/wBBgt7mqywJOECInpGHNO9Ho2isBG9ITEBVcYXlurpnJaQQih8Rh5pcbkDIqCqGB/FoFLBsT0a9nDwx7aQXyuqciqj0T/YM5rDbWQ8/qpLyjtprAtGg6UvqGIYzfomrazGb2na6RiB01E2uMzMrt1QE0/JHyaj8MGz6MHSMR/wazUGelwlil54KmRzkzL1OkxadGAAgSU2+wTI8xo8LRaL6W4ynO4mqeeI1l6omah5r65BvU26G9q4Tv99SAKcyODKSvzUA2DIidMg9JQwz8YjmGURkwvuoPY2QqQt4pxJhwfmF/JuLPxWLex9OZFccs1M62Jruuuf2lsNati5H0bjJS5ibbBqCUQagUpMxi/6/lShXYFWN/ioWe+k2nmqDz9y9bhVaRnM3xwKB5mDdtDKKarcHYgcyKnZIB7LPA0pyJ6UkrrFmJiPssEjOvTkHE0BTknLw4bUF3jUV22W/Wwd+/sbJkOHZKGubNoaXEM5HwGlmpI9GbWawVoTm1NA3Mm1BrXYqarF8TZwuPOVwBpZVQOQvpkav5Wd20OldwWwk9UTPSfEBfWPVD80s9XaCrVlb6R1JQOCcWEV1jkVKYioHkRpAJrJ4dOh1rF5caAizs7x/A7FVWWCqKW3AIolemlgvjLKMDa9SGrstAW9OZjrusGGuNKA/3YhYj0SwEXbvolXtV6jaoQkj7aKxYYrtvekEYoselYsPckUyxmYgqn/gDxkw9klYnIG7cGhifjUBQFeczlp1GZJiLYS3IKe873rgLh863w7uTxtp+U1mfqR4hNysnZVAz3xkfCiItPnrGau5Hk/XVCrGWnD91ilmm9i1QNduIuAPlpatWPnUtaoH2ZqUG0HxTT1i8WmI2m5VJ7J7m4peMRNKfH7aCqn8kFXnjohG9MA/ju+RgsdLUpWMmsu+xIm3CMMRE90C/Z1fAHDwQqSfSMLNUEEdEMslhNNMj2hDisn8Cy/pEfq9hiF9pRaRpJoYN7YfePWkUvbKw6gekonjFzDIxjuvO7kz3be+PkM7TEWv4F6Kej0VX3kWg7xxqS0/FtOlsVkRxYSGK/YLQkftbeCJ5Kw6tI2ub/e3SPlNG6CMb2N/nAYZop8/OokZMSTREi749SmjNvgNR10qoXEFkf3cl2MNwi6KiopI33niDh7Tj2WefLdm6dSsPeR8LFy4s2bBhAw95jrfffpufeQE75pXEztnFA75JXFwcP6ueHj168DPPc/ToUaU8uco777xTcurUKR7yPHQ/e2QnTC75aXgsD1Vm8+bNJd9//z0PeZ6VK1eWMEOHh5zj9OnTJe+++y4Pqcdt889TtQD1m65fv56HvI8tW7bUuL5bC0R6L6qRTrGY95RtwMpXady4MT/zHtS2wtj7y8/E4LBLgVZGOVgdJdpKpDS6mi9apdFr29I0oi/Ka48ayBGIiP6gWmuyXKKQ0xNnED1wouY5e8+a/hLUU+H6zhOo6UOubpmsK7jtNYpWncycORPx8fE8RjuoT5K893hbPxdlPmtegTV7eIzneP311zFx4kQekrjLk08+iU8++YSHHHP//ffjq6++4iHPQu8Qa55iyJAhPMY5pkyZoriNE+U1asaMGXY9K5neeB0le3IQ9ulSHlMOrWakikmU1yh6ZqGhoWjXrh2PqZljx45h4cKFbnuNcltMyQXfhx9+6LSbOFcgP6G5ublo1apVmZu1ijUPDVQFBwe75G7LHocOHVLuQU3qli1bKnHkR3Tv3r1KmJaLVq3xbrjhBsVbkachd3GTJ0/mIYm7PPPMM0p5rYlHH30Uy5Yt4yHPQm4TyXWcq2JK5WLs2LHCpkg5FNPEN3Bhz27ctjCVx5RDXXXUghMlpmvWrMH111+PDh2qzImrhr/++guLFy+ufRd8pMVqTGtnIP+OVFiGDh2Kvn37KnM6S92v0XHbbbe5LaQECTIVyFIhJR544AHl3k899dRF96VDhJASWjVBJDac3clBlLVHqJnOQ3hLf3o9WjzgYJ6pGs/37kB56ap9SGnUQsM0EVM3jVtJNXiqoqqrUF+3M4jMd7qXmnfIW/rT69OkdwcDe7VhDLial1r1PbstplQTqB2NlNSMt86L9FVE7jrqLGotU/qON7x7fsFXU0HlocrUhmXqal7S573CMpV4FtGjypc63thtolYQSQS8oVV4GWvi13NQTil9IgVfzb28Rkwps1ytCSTO46wzY4lzOPuyiSzTapv59B2R3RGOUNLuIF9FV15q8lKrZy2uypCogmYsSLSD9oPyNkjgvUEUa8JRRVRd2tVUEu5AaVRzTy3y320xpcQ7W9tLXEcrjzYSG84utBBZptVYU4To986R4FDaHaWf4kVWFGrupVU+avJX1BQEiXPIikpbvLGsqhUb6k8XKVTVlcV6DvJVdPlVcz+txiXc/qWiH2hdQ+attjj7sonMd7XvkLd42qc0lDjod/QFfaA0aiH6moiptEw9B+WvRDuc9fwuWgB8+R1S0u5goEl0+SVRdDUv6fNa5L/bYlob2xLUJUQ3ky51nH25Ree7LzxnR++6UvFUMyIusmJSm49apNHttfnE1KlTMW7cOB6SaMnHH3+MP/74g4dcg9Z8//LLL05NTyHnEO4szaXpJT///LPiAIYgXwr0N2lqF02Up72X6KAVSKX/W61Wl6el0N/r1KmTMipPyyn/97//OVxWSe72rrnmGlx55ZVlL8vXX3+tbDdTE86u4deKuXPnKkuXXYH8Nrz22mvCFnbMnj0b//3vf3monP2rVsGybg26zJrDY8pZxa5RuQoPL903x7NkZGQoZYPKiLMcPHgQq1evVp65O2gipomJiR5xdCK5NNi3bx8OHz7MQ9pCQkLe3GkKGf1PhxaOP0aMGIFZs2bxkOeZN28ehg0bxkPOIdoJzpw5czB8+HAeKmdf2nIc/+ZrdJk9j8eU88UXX0Cv13u1mJKjI3Js5K6YUl+B23iVN3iJRAPYi8XPxMDElJ85T3x8fAmzynnI8zDLlJ9VZvfSJSU/DR/KQ5Uhz/dbtmzhIc9Dnv137NjBQ87x+++/l7BWCA+pR5OOGtGd9RKJp2HvBj8Tg5q+PvqON4xZNFQ8bHmHBpAWuTroRfmohYZ5f6+3RFIHUPsyi3Qk4kikGgcG0g/gocqINrSoElRzTy0qT2mZSiR2ED26ruYdEv3eObqf3+V8O1k71IY2uHpPrdKoSYkR3SSSSC41RIu3GhyJTsNa2M65OtTkpbRMJRIPIbpM+8I75Eik6tVnaa8m/aKNrdrKS++vDiWSWkC0paj2fiKFypFIlVxgaXDQn1obwubTlqlEcqnhC5YpfccbxFShmlkF3m6ZavWsNRFTrRIjkdRVRFvCanCUxn+OWxyKaW1oQ23lpbRMJRI7kDUlcvdPNQIgWqgc3e/4/v1eY1BROlzNS63SLsVUIrED+Qzwxv2iahNHInXywG/8rPahSlCNOMo+U4nEQ5CYarU3kDOobZqK7I90lMYL3LmNI7y9z5SQYiqReAjRlqlaMRWJI5FqHBzMzy5Gqya0K9RWXmriNWrGjBl47rnneEgwJy2wNvOHUzv7FOTA+EMGTPst0AWHIvKeKIQGAjlz+yFFn4zpffTI32bErkL+eb8QRISH2P72SSvQzLn9g7TkvWnTcKzwGA85hvr3du7KwfGiIh6jLU2a+KFpk6Zo1pQdzWz/k4s7T0BFcvuOncp9Qq69tmwZ49GCAuz77QD++ecfJUzu+PxbtkSAv7/yv5+f/edTVHQCOXv3oLjYqgjku++/j9tvv51ftQ+5mpvG8r4l+7siIO9KDz30EA85xxtvvIEXX3zR6X2t3CUtLQ39+vXjoXIOpK/BMeO36DL9XR5Tzpo1a9CqVSt07dqVx3iWH3/8Ee3atVM8VTlLfn4+li9fjlGjRvEYdfiMmFr2ZyL7YLEt0DoMkZ382Uk+FvcPQnbXVIR0jkRcd3sZaEH6M6EwDc3D+C5WWCxMFJGDlD4RKJxagoR/A5lv1MP09nlIG+APc1YGzAhCxxuDmIjq4O9PBTUTifXiod+3AbHtlT8qjIQJEzB20OM8JHGXp159FU8/9zzuvPNOHmMfcodHYkpCIAJyAffAAw/wkHOIFtMVK1YgOjqah8o5tPkHHFm1Ere9/Q6PKYfElHzbRkRE8BjPQmLaoUMHXHHFFTymZrQSU59p5usCQxFmCEOY1YgeL6QxwSvHnJmGkZsrxlSECWhBPqD4gyBxZFZMwS4YN8chooLLQ0tOBozffgUT+yiK87DLlA2ztbSQ6qG/x4j8Ah6U+Cznz19wqn+MLFiRfaZqmsOim9CO7le/YSOHeVobzXxX70mf18Cm9CExJRFkR15uJgz3dESAxcKszEIUM5EMuzkM2GFG/kkTkof3Q0z/GIxdbmYyag8rjHPika4vRF5++Sf8r2ZiHXINGvgBASEdYVnZA2NXlwq0H/zIEK4FaqMwXso0ctIrveiRfF/oM3WUxnoNqt80TwuhchZKh5p9p7R4zzR5gsJe+EMrkDDZiKBzhchhlmO2KQfmk/wazmLzlCiYeqUgdVpvmJmgxgwfhmHDxyDFZPsEYV4Si2H5STjwQ29k9olE4lYmqDSdsFkA/Nv9Cw/cGwlD2zyYf+iK6LtCbF+qRaSYakvjxo34WfVQH7RIQVX7nEUKlUMxZfHeYpmqzY86ZZkyGcTiV8cC0zYgNi8BY1Za0bF7BDqWWYxnccbC2uiWbCx+JwW6xalImzMP8+YkIdbAP0K2ashYZHw8ECHtB2LeDiPGdLGi8FwkIjuU97ea3o1DmiEMxiH9kLTZwmO9mMLfsOmACwNPp4uUgSo6rFwvjn8/AyO+OGQLOMH22Xdi8FrH/R6Orlv5fY8XnbFF7ExFr6TvcNwWssvFaSvAstF3YtLPPHj+zEW/p5Tdn43HRzt5gFG/Xn2nrEDyEyqb+ZVxdL/6l1W/5bRIwSdctfK1ykffEdOdJhQO2IDUQZGIfj8DxsmRIPnT6di/OkCva4UeUw4gti3Ty2fTkDrAnlWpQ0i4AfrSlW8WE1Z8kIK8u+Yhtostyrx6JMaaYpH64UykrZ2OiAaFDroLxHBRk+X0IWzJysImOrYdUtJ25McZ6LV2NRaMnoF1XFNzP3sS4dNWY9P3n+P5/nfirTJBKcCmtNVYty0LCxKexI3zdimx1qLfsODwUeW8IiRkk76nP8quj34L6/hHrOcKYD2bi1XvjUe364fj+UnD4XdnFPrOMylpUq5XNezy2T1XfYfMLZ9jNHuOSprOFWHTH7vwERPHtzZn4aN5H+O9eZPRl/3NBXzbqIvSVvQrstaGQd/Y9mOte1ezv3c7Br/zOWbPZ9//Yhd/ZmeQn/s5jlfwn3yh5IJT3unJMvUGq686SARECqqje11gFY9owXSEmjzRKh81EVM1BcFlOkUjrle5QOqUUXY9ohfmYfyL45G3MBp6/xB07R6Jru0rdnDqYRg0HYaL/NeakNQrAYXBOqyISkYGV8yguxKw5uNYhNCfp7+nTI3Swb89+/te4LbxiPEtdFtfhNB2RVjV/y2sogEzhcZMZH7D8RO20JGjWWjbsSu6/edhPHY3sxDLBCUQ3QbF4NH/9MSDEcE4co5biIQdp+25Ocuxu4imIhXhyNpDOF5RIOu3xYOjH0YvGPDYQ8z87zICHw0zUN1mH304nh7UB/fd0xO9gnmamFWJ64LRlok8mrHrw4ZidL9w6Ft3RNuKz6xi2vaZ8NF/OkJnmoG+T4zFe79dibtZJRr+EPsuff8hdo0+xyqe3N+Vb5Rx7tx5p0a/yTIVKRBavMyextF7XnL+nMP003d84bdpgSYqKLI5pIbQPmMQVXVKExNPq64Q6fPTEfplHCL5+0UDXbqLDBd/RE1JQ6zzGx5qht2C2Ko12rRuzaqJXVjwzni8nEbWZWP4tfgGudyA0zXpiNxdmcyC/QZrt9riFAqz8NboJ9FrHBPignAsiGynRLcMCAYOHMIRJVSZ3O8/Zdbid8gJpfuNxWNDnsTLX/CLlTiElUmOrx/PmqVcGzHtG+SHT8d91zLRz/sNaMB+z1XMcD1mszS3f/ExFtzTEQY+jbVq2nIPsu8YwjF40ASsXJiIp/9zLWg/0gXvjMKI+PHsmIxJycxCXcws8yo9F6eLi9FU2bOoemg7apHlWu32I94gVBeqseJFW6y1aSFrIqY+WfPoDBifmYE1X67B9D61P9DkNJcxhdlrwrrvTcy27ojBLyTirX4d+cVybn1iKb5+ugU2PbEabcf9hNGd+YXfTZh07mHMmvoys+KYhRraQonWNbX9XxX9VWEI6NyHfbYnsz/pftOxdP4neIvPL6c+0GIm6rm5zMI81xrdRlS+XpHdP88AHkzErJeG4t4m3+GVF57E4I+yWZqKcJzpW97pf2DdNguj14bj3aDP0W3c59h9+uK06W8fiqyy39wYLVs0ho5ly+AXPsCsBPb3EyZgUhxZqY+jF7NYK3Lq9GllH/2aoL3+vb3PlBD57jnKj3Os4qkuHaLTqOZ+WrSuBbTPJe5Q9SG36ZWI/DceRtfOD2P21ul4lDqOmcC2aUCCwtrFpVY1i2vZogX82Kkf+7+sYasPxoPrVzNLk/omyXrLsmuNltLmzhEYfP479tksNB75HB6stC7iJHK3HEXASwbkF7TAm4YibDLucjiY1Pbanlj1le2+Xxd2xIP/TcLahMdJuXgfZx42mVrjrdnP4en/zsG6JwwIqrIF/vG9Wcg6yD5f+Ft533HWfhw+fw3e/+At228q6zMNRNvrlZMyzrEmqZ8f5Upl9ixZzM9siOwzJQFQey+RQuUojedOn3J4jdInpBuQ405euosmK6Def/99PPvsszwk0ZJpCQl49tH+POQMv2FZ/MfYpJyfQeFh1nTWt4au6BCs+hi8+VpP6E+fga5JlaWgez/HYxvbYcF/q+nzrID1sAm5TQy4MYBHVMH+dSaCZ2xWZBl039Wt8bzhNxS2HYr7ruPxFamQtjPMsjbl8X5eXWuEXsd+my2ExhUrDc7xA1nICwgvS0fM888j7as1tgBn14L5qLcsFQEJb0J/m20k8t///jcWLlyI666zlyDtSU9PR1RUFA85x9SpUzFu3Dge8jyOVmntX7USxzf/YHcF1Ndff60syQ0PD+cxnmXTpk0wGAwuLQMuKChQVkCNGDGCx6hDWqaXHO3wqNLUpYOa3HOwdGoiFiR/gqVMSKnVe5GQEtc/jKVOCimhu8qxkBL2r1cRUoLuO+Zu3BHpQEiJCmlrea0B3diLqRyd26ENE1CywOmwl/aW15ULKXFt8NX8zMbO2bNwfuVyBH04p0xIiYYNGwqzcMjXgNp7ieyKcHwvx/NMCdGWqRq0sPA1sUxnzpyJkSNH8lD1fP/99zAajTzkXRw7dgy//fYbOnbs6NQgRU0cPnwY+/btU2rzF154gce6hlybry1j33wTM1M+Vs5N094E/peFFkOGoUGVEf5Zs2bhkUceQSDtCe9haPBpz569uOmmi/u+q+Pbb9fj//7vHh5yj3+OH8fZ4xacsxzHBSv3gVGFo3//jWvvCEdj7q+ghAlX0c4d+Md8APUaN3ZomV5++eXo0qW8ovIkpC233XabS5bp3+x3rVy5UvHH4A6aiOkHH3zgtJMAcs7w2muv8VA59IOKiorKjtLVJ1RjkLA1a9YMzZs3V/4X5cmHOHXqFHbu3KmM7hLkqYgcN9DhjGea9evXY+nSpUhJSeExrvH6+PF4efCTPCRxl+EsPxd+thx/79mN3EmvofgKPZrZeY77t2/HtY0alllVJX5+qOfvj8uYBcxKpRKnFTT3tfBYoSI69jhPXsP+LkBJS380aN2axdjuf/DgQVx99dUoof5dsm7pOPsPdfiy4x/UoxkC55201C5j1mXDRlTAFWG0HTrUqzAn92jBUbQOpPtfTNMbO6JD3748VA6Vf6qQqOktgm+//VYRblp67izUzKcujKFDh/IYdQgX09dffx0TJ07koUufjRs34tNPP1UtphPHjcO4oUN4SOIuT8e/hgXLlinnxawl8uurL0PXOQydnq7cX9atWzfMnTtX8UDkaaxWqyIC999/P49xjunTp2Ps2LE85Hk+//xzPPzwwzzkHN98843iwalz59LpJJ5FjZiSIbd69WoMHjyYx6hDeJ9pqYVXV3C3701kn1hdoOLafD/WXO3y0Vyc+d2M7TMqN1Frc1TYWZxZyVXbUMtSjeMRtah9ZlqkURMxdaXzVrQ3ntqGHCi707ntTfl1/kwxzlbRdntxdrlwFmfE7U/nkKITZZ5xyrht6jRcOHUSf/2ynceIF1M19xItprUpVM6i5l3TSvCFW6Y0f4+OugL1ubkjpt5DEf6e9QKO7uVBBXtxpJvFsFZYpUqc/nEG8lbu4aHag1ZA2cMwfgKuuOVWHrIh8rmpaYGIFlM1aaQ8pNaZKEjw1RggWqRRuJjSAxGZubUNPVx3fq/35NU/KLmojFaNK8axz1/DHxOm4a8pz+L3z/agVFNLvKS34h8nK3J6bmrEQy1qrD4aDBWJ2vzwBQvaJ8WUao3CwtJNli59aA6hO3sl+UK/WClnty9B0d4ItEqciGtGPoB6P3wJS83bVwnFlRdNzUupFjVCJbL5TFzKYqpFGoX3mdIPpdHLusKJEyfcmsrlqU3rPIH1yEGg/XVowUrVWZrK0+w6NKqlHQoc0dCFl0aUmNJ9fGEsQa2Yipy0T7iaTq26c4RbppRwtR5yfBFymOGMYw1H0MoeX0EXcgPqmb5F/ndLkTfHhIZPRiFAeAmrnpYtmvMz70KtUIlEbeXi7WKqFcKLOjVNfMna0gJ3mhDe02caiBaPxqFZpXqhclzDDo/hyhd6oeHlBvhPegtX3ljuUKSp4TE0jwjiodqjwWXe121CBoYaoRLdzFeTRvqOaDF1NZ30ea9p5rsCFQBXtmH1dWjVljuCeJngglgdfsGdUNVQrhrXsPV1uLzTDRd9Di2uxuXBtW9lu/KiqREPNdB91FhTotJXito0ihZ9V7tMtOpi0eRNdaXmEV1L1TZt2rSpc7/Zm3H2WZC1KOq5qbVMRYupGtGhNIpOp5r7adFvqklpEZ1ZvoS7Mxd8aTTfF2jQwHkrSdSgEL0/aqw3X+hnrY00uloJ0nPWQsM0EVNXVL2uCS85SnEHLWpMSTmX1XdOtEQ2TekZq7mf6HfJVwTf1XRqlY+aODr58MMP8cwzz/BQ9YwZMwZJSUk8dOmTlZWF/fv34/HH1bnR+3LZMmzNzuYh16Ctj3f8+ivOX7BvYbXyD0Dr1oHYs28fbrz+erRprX1fNtX6u/fuxX6zWfHLoBxWK06fPq38r4bOt9yMFs2b4+zZc9j2yy/KgGbzZs1s3sXY0aSJbeCrcaPGuDo4GFfq9WWV0oFcMz5d9plyXh133303kpOT0amT5zf+oqmC69atw0MP2dnrpRrmz5+PIUPEOcFZtGgRBg0axEPO8dVXX+GOO+5g5cy+tymtIUcnt956q0v3y8vLw/bt23HffffxGJWQmLrLzJkz+VnNMDHlZ3UDo9FYsnDhQh6S+ArdunUr+eWXX3jIs7AKpmTVqlU85DxMTPmZGJYuXcrPnIeJaclff/3FQ55n/fr1JX///TcPOQcT05K1a9fykHqE95mKXgJX25w8eVI21X0Qkc186uNT0zcuulz5QhoJV9Op1UCjNn/FBci5c12irrkcvFSg6WwihUCNeIuabVCKmil+otNI93M1L+k7Wjxr4WJa10antRoplIhFZDmlF/lSLSOif5ta8dZioEwTMXUls0TXVLUN1ZK10dSRuIfIlWdqxUa0AKstxyLTSaKo5n5apFG4mNY1aAWUzB/fwxe6o0SXK1mOq0cTMXWlxqprlqm7nvYltYPITRsvdZES+fvoXmreNy3SqImyudLfUNeERdbmvgmVU1FlVa0AiEZtWRb9DtTWOye8mV9bP7S2oL63uvabLwVELSV1B9HlylcMITXp1CIvhVumdbGZXxtL6iTuQc/M28uqrKS9C+FiWtfQ6XR1ameBSwUq06LESq1o+4qlWFdEX3jVW9csU1ovTt72Jb4FCZW3i5W0TC9G7TPzmma+KwnxldpUK6jykGLqe9B25KLEylfeidoUKk+jxTMQLqZ1DdqdVDbzXWfbtm2Kt63agsS0rlX8NaEmP8iYEJmPau5F39Giq1ITF3zTpk3DSy+9xEPVM3PmTIwcOZKHLn2ys7OxcuVKvPHGGzzGNebOnYsOHTooo8tmsxmHDx+2W3nRy79z504cP36cx5Tj5+enuCQLDAxECyc36KMKgNySueJbgFZ7de7cGTfeeKPix9VisfAr6qHZEO3bt1d2LDh69Cj27dunpGnHjh2KGz9/f38EBAQo/9PvtEdRURFycnKU7+3evRurVq1S3MJVx2OPPYaJEyciNDSUx3gO2mByw4YNuPfee3mMcyxYsACDBw/mIc+zZs0a9O7dm4ecg1ziUR5eddVVPMazfPfdd7j99tvRpEkTHlMz5MD9hx9+wAMPPMBjVEJi6i5MTPlZzcyYMYOf1Q2+/vrrkpdffpmHXCcxMZGfSbRg0KBBJZs3b+Yhx0RHR5cwAeYhz8KsopJ169bxkPMwMeVnYkhPT+dnzkMu8Q4ePMhDnoeJacnJkyd5yDmYmJZ88cUXPKQeTZr5rpjIdW3kn2o9d+Ysyqam9rByz88cQ5a+KNQ+Y9FlQ83gsegBZzXetygfnSkTNSG8z7SuiSlNjaJmnMQ7cNafruhJ+77gK1StmGohVM5C+ehqvmjVryu22mCQmNYlcaHf6s7v1fqFMX3QA8lb2clJi9KnaTvKB8jyV4/F2NX5PHTp4ayvBBJTkWKlRqhEpo9Q40mL0igynWruRd/xScuU8IWlelpRa2JaUSwrTCawWoywsORYDmUj28SOtdMRFZCETH4dJ80wn+TnF2GFaUkyjId4sALWqsK8NRk9Xk1HdUNQlrXxGLbIzENEPhb3D0L8Zh4kyn5H1RkROUgZmgyTiqx1RrjqUhn1JFR+vb016rNiSgmvS5YpIf73MlEa2g8pO60wL4lBQP+xSHo7iR3xmLnC9gn/GyMR2Z0dfSIQhgykKteTkLCIf8AuFuSsHInMqmJ6yIiURenI2JiCuO4hSCTL95wFxv0mJDNxTPzaiGTl749E73q9kZJr+5rVwgQxt4IVbMlGxvIIBOlKJZiJ9/I4RAbEIH5uspK+xVu5qFrzkDPfAquLrWN6Fs40qX2hO0qNNSuaupRGTf6Kq9aTamvLB6GmkTtiqqZD3YY/gtrqEdo+FLg9CnFPxSL2qRhEhtiu5m9MxLCePdDvpQyELk5AvHI9FlGdbdeJfCaOSW8nMwGrYYpTcCTiRg1EVN9o9A5h4kg/91wxcGMIQpiwoyW7/uIYjBkSiSC9ASF629cUKo7z7MxAcq8w6DLj0TsyBolLchByT2/2NyIQQ99nx8AuOuWj1v3MglbOXIOehaMpVFURKQRq3glfeI8ojSL7TNXgVWLqCiQOrswB83VoOan4wqSDf3sL1sxJRvLqHEQHAmZq0pvMsChGWT4y5sdDP24D0j5MQNyAUBTvtjX7LecMyl+wboyHYZYfop8KQcbtMRipWJYzsWafcrkSFibM/ZgwD3tpBfK6pyKqPbvDwRxWk+ihbwvkHbWJsWnRdKT0DUOYTQ/hH8iUfbeZ5FbBbGbf6RqJ2FHsPkZm5fYKZVUCkYL4/sMwbDg7no1HIktL8mKjKjGlDQ7JYXdNkGXq7SIgrWft0KJbR7hlWtf6oq64wr296NVZH/6ImrIBqZPjMOb9NUgbEYlQatJ3j0LEzXRdj6AOeqQ82wO9mUiNnZuDoHDe7DfYTFdLgRlB7Ny6OhXpg2IRr1iGrJneQblciZzN8cCgeZg3bQyimq3B2IE9EDMlA9hngYXpVt5JK6xZiYj7LBIzr05BxNAU5Jxkkt88gP8FG0F3jUX2EJuYKxWCP1PdBjp2FouEz9jfn8OO9xMwntLyDFmsrkMT/a+99loecgwJqbcLAa2uE4masugLA86URi0qJuFiKnJvHW+AVhy581KqE9OqWJCz0Qhjlhmhr5VgfDgzAF/LQ96ODVjDRGr6U6HIy2LXN5qAR9KQNoBZlL0SkKDPQEZgArIXRjP5dUxI+2isWGLrc00vCEP0uFRsmDuSmbdMRJVP/AFjph5Jq5kVPG4NjM9GIKjKriCWnUZkmIthLchBJqWVHyvW7kJQl5lIeMH298v6TINDEGY78wiU79IyrYya/NBKqFzB1XeG0qfFsxYupnVtq2eyHtwRUy0KoundKIzdzQR1QoRtWlQVLKvHoscKC/JXhmHMSt7obhaCqCFjENsrhDe1CX+E9p2JrsE8yNEPSEXxiplKnyYdcd2Z9DbTI7q9P0I6T0es4V+Iej4WXQP55zvz5jt9hlm/yrnO1o9ZXFiIYr8gdDSEIYwdkX1HIuGnPKx5p3KfKRCKaGM0+9c1nF1Oq2a+omh8oZWnlVB5Ep8VU/UDKr7JiRMn3BJErQpi3vJkpPonILoLj6hC8Q/s+v7xiCUhdIgOhgFxiKwiphSvK9W4UjrFIm1KFLr2YU3/G3lcVegz47qybzOZbt/V1s1AR3go9P7+ynp7Oqr+aRtM2LuX9qk6jzNNfIJaUCLLqrcLN6EmjbUhpLWVl8LF1BcKjZaQmLrzm7XoFzM8n4Fs4wZkfBZr15Lz7zMTeZmsyZ+egEhuPV6qkAMWZyAhFSkEau7lihOa2kLksly1aJWPmoipKzV4XRNTd125adHMl5RDHqScgSxTbx+A8oWRchp8Ev3Ou1oxaZU+4U/DFwqAlrjb9+btI6G+hrPlT3Rfn5oy4gtdZpTfosXUVSh9WuiSJv5MZ8yYgeeee46Hqmfp0qXQ66vrl7MPWXjkw9KRZdGqVSvFX+fevXthMBiE7nteHSaTCXv27MFHH33EY1wjPj4eCQkJPCRxl+HDh2POnDk85JgHH3wQ7733Htq2bctjPMumTZvQrVs3HnKOWbNmYcSIETzkechX6N13381DzvHNN9+gXbt2yiGC//3vf7j55pudXphBFBQUwGg0on///jxGHZqYia6o+v/93//xM9egZldYWJhS4Owdt9xyC6688krl3BNCSn2XJIxU6F05yFmzqw51KyLSOqoLONvMp3wXaVGpuZe3W3yEL6RRM+uZLFN3+eCDD/iZRGvGjx/PzyRawCxOflY9DzzwQMkff/zBQ56HVbz8zHlmz57Nz8Tw/fff8zPnIefQBw4c4CHPs2XLlpLTp0/zkHP8/fffJcuXL+ch9dStDkwfhFzGSbTD2dFl9m54fatAdPrUDIZ6ex5qiSZi6qzDXYnr1LV5uZ7GlZfbF5qoEu9BEzGta0tERVKXnMKIgHY+8EbUCLdoq89XKpfayksppl6OMx6OJM7j7OAkvZAixUPNy+wrTWhfWPbqNWIqJ5Z7DtnMrxuomefoC6uLSEhFVkpq7qWV9y1NxFTiObSYTCzxfi7VwR0SU29Pp1Zir8mbKrLmqWtIMdUWb1367AvvkJo00ndE/jY1wq1Vy1q+qV6ObOZri7eKlpp01ZW+SFeozeeryXLSRYsWYdCgQTwk0ZJly5bh0Ucf5SHXoNVXv/zyi8OXjpbg0k4Au3fvRmhoKNq0acOvaA/tMEreecjTfen/VqvVZauApuF16tSpzC/pjz/+6LDvkOboXnPNNbjqqqt4DDB69GhlmWhN0HJSWq5Jq+pE8MMPP+Cuu+7iIed4/fXXMXHiRB7yPGrS+PnnnyvLu0UtJ/3pp5+U5aSuzNrYt2+fsrrR3eWkmojpp59+iscff5yHJFqyZcsWrF27lod8DxLyAwcO4PDhwzxGW2gmCTkcp1kP9D8dNU0nmzRpEj9zjC+IKf0OZ36LVqhJY2pqKsLDw71aTHNychS/H+6KKZnhbsMsU34mkVwa0HJSVgHwkOdRs1STWab8TAxq0rhkyZKS/fv385Dn+d///lfCWj485Bx79uwpYS1AHlKPHICSSOxAZdrbyzW5d/R2fGEAVat8lGIqkTiAGRv8zDvxBTH1haXmWqVREzH19kInkahB5GIUNfcSvdWzmjSeOXPG6/WBBkO1QFqmEokdqEyLFAE19/KFFVCURpH6QPnoquhrlY/e36EhkdQCosVUDSItZ0JNftTGCihX76dVPkoxlUjsQGIqUqzU3Eu0mKqB0ujtLVevElNvzyyJxFVEW6Zq7iXa4lMjOpRG0el09X5apU9aphKJHXxBTH0B0b9L9HOriBRTicQOUkwvRgp+9chmvkRiBymmF+MLfbSUj7XlAEaTtfnz5s3DoUOHeMh3oMJB6T548KCQaSbkAapz587466+/lHtW5aabbkLr1q15SGIPKq5HjhzBn3/+6fS2zWrYtWsXNm/ejOuvv57HeJavv/4a9957Lw85x6uvvoopU6bwkOehPfB79uzJQ86RkpKi7LXfvn17HuNZaG1+hw4d4O/vz2NqhpyckLMTr3B0IpFI3MMXxFRNGmtDTOleAQEBPKZmtBJT2WcqkXgBamwaX+heq400upqXWvkPkGIqkXgBl2oDkcS0roypSDGVSHwU0SJ1qVrP0jKVSOo4Uky9CymmEokX4AvTjtQiugvD1bzUSvClmEokXoCaF9oXHC9TGr3dOpXNfImkjuMLTWhKo7cPrknLVCK5hFDzQov2tK/GgqOFKqJF39X7abWduhRTicQLUCNUtDOrt0OCL9oydVVMtcpHKaYSiY/iC2Iq94CSSCRejy8MQFET2tstU8pHLdIoxVQi8QLU9Ct6u0gRtTH45Go6tZqWJsVUIvECpJjWHlqlUYqpROIFqBEq0RP91Yqpmu+5g5r7aZFGKaYSiRegZjBJtNXnC2kkXB1Qks18ieQSQqu5jp5EzYAXCZVoQXU1L2UzXyK5hPCFZr5awRfZzFebj1oIqhRTicRHqY0mtKvURhpln6lEInEJkRYfoUYYyerz9nTS56WYSiQSYagVHNGLC1xNJ4mpFmmUYiqR+CiiLT41aCVUnkSKqURyCaFGGL3d4itFZDrVplGLikmKqUTio/iCZUqITKea/k/6vLRMJZJLBDWC4yuWqcg5tJRGNX5epZhKJHUYteKmFrL61CAynZTGc+fO8ZDzaJFGKaYSiRfQtGlTfuY8V1xxBT8TQ5MmTfiZ87Rs2VKoT1M/Pz+XLVNKH6XTXeoxJff+mb8SiUTi5UjLVCKRSDRAiqlEIpFogBRTiUQi0QApphKJRKIBUkwlEolEA6SYSiQSiQZIMZVIJBINkGIqkUgkGiDFVCKRSDRAiqlEIpFogBRTiUQi0QApphKJRKIBUkwlEolEA6SYSiQSiQZIMZVIJBINkGIqkUgkGiDFVCKRSDRAiqlEIpFogBRTiUQi0QApphKJRKIBUkwlEonEbYD/BymtxzPA/0tnAAAAAElFTkSuQmCC;" vertex="1" parent="1">
          <mxGeometry x="83" y="834" width="350.26" height="280" as="geometry" />
        </mxCell>
        <mxCell id="gsk0wDziKHdw3YsIVp2X-95" value="" style="rounded=0;whiteSpace=wrap;html=1;" vertex="1" parent="1">
          <mxGeometry x="440.26" y="874" width="120" height="160" as="geometry" />
        </mxCell>
        <mxCell id="gsk0wDziKHdw3YsIVp2X-96" value="" style="rounded=0;whiteSpace=wrap;html=1;" vertex="1" parent="1">
          <mxGeometry x="440.26" y="874" width="120" height="20" as="geometry" />
        </mxCell>
        <mxCell id="gsk0wDziKHdw3YsIVp2X-97" value="&lt;b&gt;메모리&lt;/b&gt;" style="text;html=1;align=center;verticalAlign=middle;whiteSpace=wrap;rounded=0;" vertex="1" parent="1">
          <mxGeometry x="470.26" y="834" width="60" height="30" as="geometry" />
        </mxCell>
        <mxCell id="gsk0wDziKHdw3YsIVp2X-98" value="&lt;span style=&quot;color: rgb(204, 0, 102);&quot;&gt;1101&lt;/span&gt;" style="rounded=0;whiteSpace=wrap;html=1;fillColor=#f8cecc;strokeColor=#b85450;" vertex="1" parent="1">
          <mxGeometry x="440.26" y="894" width="120" height="20" as="geometry" />
        </mxCell>
        <mxCell id="gsk0wDziKHdw3YsIVp2X-99" value="1111" style="rounded=0;whiteSpace=wrap;html=1;fillColor=#f8cecc;strokeColor=#b85450;" vertex="1" parent="1">
          <mxGeometry x="440.26" y="914" width="120" height="20" as="geometry" />
        </mxCell>
        <mxCell id="gsk0wDziKHdw3YsIVp2X-100" value="" style="rounded=0;whiteSpace=wrap;html=1;fillColor=#f8cecc;strokeColor=#b85450;" vertex="1" parent="1">
          <mxGeometry x="440.26" y="934" width="120" height="20" as="geometry" />
        </mxCell>
        <mxCell id="gsk0wDziKHdw3YsIVp2X-101" value="" style="rounded=0;whiteSpace=wrap;html=1;fillColor=#f8cecc;strokeColor=#b85450;" vertex="1" parent="1">
          <mxGeometry x="440.26" y="954" width="120" height="20" as="geometry" />
        </mxCell>
        <mxCell id="gsk0wDziKHdw3YsIVp2X-102" value="" style="rounded=0;whiteSpace=wrap;html=1;fillColor=#f8cecc;strokeColor=#b85450;" vertex="1" parent="1">
          <mxGeometry x="440.26" y="974" width="120" height="20" as="geometry" />
        </mxCell>
        <mxCell id="gsk0wDziKHdw3YsIVp2X-103" value="1000" style="rounded=0;whiteSpace=wrap;html=1;fillColor=#f8cecc;strokeColor=#b85450;" vertex="1" parent="1">
          <mxGeometry x="440.26" y="994" width="120" height="20" as="geometry" />
        </mxCell>
        <mxCell id="gsk0wDziKHdw3YsIVp2X-104" value="2000번지" style="text;html=1;align=center;verticalAlign=middle;whiteSpace=wrap;rounded=0;" vertex="1" parent="1">
          <mxGeometry x="570.26" y="896.5" width="60" height="15" as="geometry" />
        </mxCell>
        <mxCell id="gsk0wDziKHdw3YsIVp2X-105" value="2001번지" style="text;html=1;align=center;verticalAlign=middle;whiteSpace=wrap;rounded=0;" vertex="1" parent="1">
          <mxGeometry x="570.26" y="916.5" width="60" height="15" as="geometry" />
        </mxCell>
        <mxCell id="gsk0wDziKHdw3YsIVp2X-106" value="2500번지" style="text;html=1;align=center;verticalAlign=middle;whiteSpace=wrap;rounded=0;" vertex="1" parent="1">
          <mxGeometry x="570.26" y="996.5" width="60" height="15" as="geometry" />
        </mxCell>
        <mxCell id="gsk0wDziKHdw3YsIVp2X-107" value="&lt;b&gt;&lt;font style=&quot;font-size: 30px;&quot;&gt;.....&lt;/font&gt;&lt;/b&gt;" style="text;html=1;align=center;verticalAlign=middle;whiteSpace=wrap;rounded=0;horizontal=0;" vertex="1" parent="1">
          <mxGeometry x="560.26" y="939" width="60" height="50" as="geometry" />
        </mxCell>
        <mxCell id="gsk0wDziKHdw3YsIVp2X-109" value="" style="shape=image;verticalLabelPosition=bottom;labelBackgroundColor=default;verticalAlign=top;aspect=fixed;imageAspect=0;image=data:image/png,iVBORw0KGgoAAAANSUhEUgAAAWAAAAEBCAYAAABGyX+zAAAAAXNSR0IArs4c6QAAAARnQU1BAACxjwv8YQUAAAAJcEhZcwAADsMAAA7DAcdvqGQAAE1JSURBVHhe7Z0NXFRV+sd/7d9yaM2gbIWNStJKXCuHrU3YXsfVVlxrBXULejOsXUN7A21VsrZQN4WsVdI1RltdtK3AygVbTawsoDewNDC1RpNiSosRTUaz5n+eOwcE5OXOYe6ZuXC+fW7ec2aGe+bOub/znOec85yTPAwoFAqFQjo/4/8qFAqFQjJKgBUKhSJAKAFWKBSKAKEEWKFQKAKEEmCFQqEIEEqAFQqFIkAoAVYoFIoAoQRYoVAoAoQSYIVCoQgQSoAVCoUiQCgBVigUigChBFihUCgChBJghUKhCBBKgBUKhSJAKAFWKBSKAKEEWKFQKAKEEmCFQqEIEEqAFQqFIkAoAVYoTMI777zDz/Tz9ttvo6amhqeMR6SMX3zxBcrKynjKeOh6dPjKCy+8wM/8hxJghcIkfPrpp/xMP/QZl8vFU8azfft2fqafb7/9Frt27eIp46Hr7d+/n6f0U1pays/8hxJghcIk/PTTT/xMPz/7mdxHXGSP3//7v//jZ/IIlnIqAVYoTMKPP/7Iz/Rz0kknCYmNKCKNBJXRDBhRTiXACoVJ6KoWcCDKGCzlVALcxXDvrkDxFgdcbp5xyKX5AOloyIKbnR/j5wx345sVwYwSYP+gBFhhAE4U3DkIo/5RDndNKfIWF8FBefeEIWVhPvKeTIftgokoqAZK54ch+UUn/1wpssOSsYrlK4IbUReETKiROHasSeuug0C4SUSup1wQirYpsyPVmYbcJ1MQPzIJqQ/EI4plu5lxGzM8BamPLULmGDvyNn+Mmp0sLyrc+zmEI2pMCRwNeqwIWkQsYBo4kinCJGw9evTgKX2QZSm7jCL4+r30oAS4i+B0lMMZO0gT3VbZX4LiDVbERf9CE+XjhLCaxdTXN6NFEQBELGASG5niRo3EDz/8wFP6CEQZRRozI1AC3EUIj4pBeGklHDzdlMKlGcheXoVBzxYjbYgFoX2Ayr0NJm8Ns4itsFh4UhG0iIiGqLUniuzriSDSkBFGfDclwF2FoUnI7jMbk+cWobSsALPjI5DxtvelUXdnIm1qKpIuC2WpUMRcl4TiJzNhX1eMgrkZyLIkwzbE+15F8CIiACTasrv3vpaT3i/bAjZCTEVQAtxliELSskosGmlBfX0o4pc6kHllKKLHZMHKLN6mhI/Lg2NdJhJjY2CbxM43p8HKX1MELyI+SBIambMMTj75ZCFxk13GYEEJcFeihwVRQ2ywXWeDNZJ8ChZYb05D/ADvy02xhIYilB8W/48tKAxAdBBIpriJlJEs0mAvI2FEGZUAKxQmQUQAaEqYzKW+VEZfLWDZZaRrKReEQqHwCRHLjWYkyOxyd9UyGoUSYIXCJIgIB434B7u4yS6jqLVtRBmVACsUJkFEAKh7f8opp/CU8YiUkQS4Z8+ePGU8ImU8cuSIIWU8ySPJGfLhhx/i4MGDPOU7brcbR48ePeGgG9M0beTX6dWrlzZodfrpp+PMM89s5pPbt28fqqqq/D7B+/LLL8fPf/5znpIDPRAOhwNffvlls/tJU4XOOOMMREREaN/fX1OHKD4rXeu7777jOeZh7NixGDx4ME8Zy9atW3HxxRfzlD5KSkpwxRVXSPOxVlZW4sILL/TJEt6zZ4/2LJ1zzjk8x1goLkpdXR3OPfdcntMx5CYhDRs6dCjP8Q/SBPh3v/sdrrzySp4Sg1pyaoUsFov2b8uD8hUKWaxatQpXX301brnlFp6jUPiGNAEmS+Gll17iKYXC/MyePRvnnXeeEmCFMNJ8wDJXuigUMhBd0qpQNCBNgGXO81MoZCCp88hxoWjaRKTPz0b2rIkYFnE+Mt5uPY6zY4MdRbuCO8az+5CO8rndx2NYG02LGNmyUBawQiGIvwdc2ycU8fNykTU1DWnTkmBl/w3q19qYRwUKpuWg6pCE8ZAmwf5dPKi/a10Ghi2s0M7bpHoVkk/LQDETvdLlrEGhRmV5AYo3FaOiukFynSi4OwTZ/t4s2VmhXUc7yhyNAq/FyJ5rR87qijZF37V2MiLmdvDdfEQJsEIhiFwB5rhKMfuGZGSHRzABbEUqdpWjaEsNip7JQdF2A3dD3m7HKGsYbPdmwf6snR05sJcxK9JVhWJXEWaflNgY5N+1rQA5TGRJ3LQS9QlHFG0XsD8U1vBapJeyxmWMDTFRYaDl9A00D5vqJ3pFIcYag5izHMiJzUFJ02tsLcLkNVXeMraC+1ANnMf8WyhpAmzEOmqFIpDIdqu5t+Rg1FVZCJ1Xhfp1CaiZZUPiyuYBSJ0VzLKblIO8WTFwvZiKuFhmaR7iL/qTgSnIuA2IGjkZaWSVsyNlKEXbI6IQNcaBGtr5fZcdybeWI2ZSCqI2xyBjLZM3SwiY1GpYwigeNUtTTJJQ9jmLC44yslBLUGlE+9GLxz/Zy3oKE+IwiFnhZMHX1rPXLo5BwosO1jS4UbFwIhJvS0TytAI4jGgIOMoCVigEkV2nLUNSUbg1H6mXMQEJtyHthRLk39o8BH/NrmJYL4hCaK9oJEzPQ0lpJmy9+ItG4a6A/e6JmMiOtOW8i96DdeVJuPY7URQbh+j9RcjbkASbtUGkm7A5Eyn3ZCCHLOmVRagiMTQSVt7sx3JgtdSicns5yivK4aDGgnN0UybiK+JhX5GFUbuYCCe1+G5+RAmwQiGIvF6dC8VzvSKQnDAMw0awIyFZS2vH3OLGbrN1ShWzgENRcHcYsj/gmQZh6WVFSRWzwC1WpCzNRS47sie0CGw6NAkbo6tgf7EeKZvzkBDJ8xsIj0KCMxkZz1DMamZJT0lC/HUU0Y9Zp61odedxo3Q+a8jiC5F1QQEmzqlCWKwNMU3WgBw95IKzRy3KV2fD3isPeQVtfDc/oFwQCoUg8up0KGzTvSKQV7AReRNCUWydrKW1Y7qNvYNDXWzWxZeBdUwWMk4r8Q6isaNoF3+hGVGwTSEXRQpsDdsQNqVfNGzjSpB1p7cxSX+xuUvF7zhLUN4vB0UPx8P2QCEqV6QwS5i1IT3CtYVcFlbGPqMz8fmdrGcRlYb8FUltb/PlB6QtxLjzzjuxbNkynlIozM/cuXO15bOyF2I4VyciYlc6PA/H8hzCgVW3paPQEka7/KHWyYQslKmJ0wlXpBWpD2YhQcaKaZcDFa4IRKMKNX2siGrV/cEs4vF5iFjKuvrtWLmubaWo7Rfbxt8IANuLkL0zGmmj/SfJ0gR44sSJyM3N5SmFwvw88cQTiIyMRHJyMs+RA031SqlORv5d0TxHYVakCfBdd92FZ599lqcU/mTNmjUoLy/XusTV1dXYvXt3s1VaJBJkqdXU1GgHBTBqCcXZ6NOnD8466yyEhTWMUXuhKnL48OFWj759+2LAAO+WGxSQaP/+/VpQnbZWidFYAL3/7LPPxhdffIHPP/+cv9I69PcvuOCCVoO7bN++XbsOvd4y4heV+bPPPtPuh69QYKCpU6fi7rvv5jmtM2/ePO3eJiUl8RyFwjekCfCf//xn/POf/+QphT9ZtGgRbr/9dpx22mk8R9EZFixYoAl6amoqz2mdrKwsTYBvuukmnqNQ+IYahOsCqHvrX8gm0WOX0DzgQN97d3UFSnc3n6gadEuR3U5UNFl1Rri3rNIWbgQPLlRtarEI41AFVi0vbXNhhj9QAtwFMHaKX8PEeH5scfJ8fbgbl6qygxYEbLMj8cEiOFoRjlY5dOIafdfb2Zg4PhmJd2ejtMn8TX9BoU31Im16ZZNVb26+7JeoWZeOjA01PEVIXIrckmPu479V09+tuhDps4pxvJQuFC9NRsU+npQKK2PD7aNFGI3n5bDb7ChvUiVdm+xIfr+Wp4xBCXB3xs1aeD6FqOGwt1yKeagWzvoQREQPQgR7uHOsaShoqsHOYuRMm+idm6odiZi9qeEvuOHa5Z3oXrIyFdF3roLzkBMF1S44N2cibmVHE9udWHVni/msriJkXOVAwrI8pIenI2sDKwx78BtEvqVYVz07ETk+zof1ZccEOavh6D4M4vehFJlhrOHR8mmSQzFCezWZdiZrKXIrOF9MxqAF3t+0dF6T322/E8WhIdrsDA0mdsWLgaKVOVhV5mxmGRtOWTZC7inQ6rjjxRSkrOGVmZXRgTCENLZbbpRvzgFYbyJndSmcBhVSCXAXQG+X+QQs0YgfGYqSabWIvssGy+YSgFZR8Zc1ekUh9jorIiwWRETQK02sHCLchtR5udi4fqN2ZF5VgPLG2mpB+GXebfLjh8dh0M6aJlZQCw6VIrthYcHdzLplQm7fxl9rSXgNql7MQMbbaUgdHg73tjykXheG5BnsYVnAGhIm7N4SuFGz0w5XC1HuCLJq9dRXigUhb4GRFaEWamTIIitHJRPXxiW0TZC2FLkNrKEWb7nYPS+vYo05NYwtC7mtFHlDspD/TAJC389EYuwo2Lfz12QQzlSWGmtWSQqqKr1ldLVcfleF0pVWZK22IyG0HJkJcRi1vIq/5j+UAHcB6N6K3V8LQpllAmabhIUyK3JtCWvpm3ddXesmIyJ2MvI2MUu2JgoZjjwktVzN1CZuVCyfzMR0GCYucyNpXjK0iVM7C5G3zqG9o5FesUhrWFhA80PJRuFFKXc0MblD47GIiWrKmHQUrs+CrQ9725BRGHUBEHebNyZB2q1W70cPOeBodXFA+9DMCj1b6lCjJ69eu+Coot6Eg9nDDhSvsCN/TT6KdzWfitawFDk8MhZJD0taitwE196qxqW9jk15rEeVj/xNVd7fneN0VMIZG42oPswAmLIIhaWFSBnIX5TBfodWxqq9rI59UAD7SlbGDS18vU4HKp1xiB4QiuiRqVhUVILCCf6f9idNFeVZCgrd7K9CMRNWCj9Srv3LHu33i1HVxK/qdtXAeXk8Eq+L0aJIRTGhbq83ZrFEwdKoXVUomuFA/NKNyJ2XhhRmrWrCeMEoJI9sOZm9CvakBjdGMmbvi0eMd3YbqlZnMKt4IQr+x/3Q73O3xmae3vQ2vjwC2Gckcgt6MjIeZ5bw4jwUt9B5PdD+X3r8wCTAsuq1xVIJt2UQYiIsqGXN0+Q57H5OSEHixVVwOI/3K7xLkf2/ZFYXPSyoZA34IGsEmLGO+LszkcbKmJIQg6omvZ/w0TmonRffvKclC1Y3w6uBMOsgdv1aJNxMy59ZGcfRasIa1DaocHg8cmqz2l0o4g+kTUOjeZXz58/nKYU/WbJkibYaizYN9QmXA6XMomrZ+Yq42IZoZllq7C+FfbUDIfvsSHYmYOPNcRgUa9V6cR3jxKrxEcjYa9OssuhxmciMsCPiH9EoubsKEyvisXFKS7Fwo/TxOGSG56PwrhDt844HPZg5lBoD1m3k7yqZFwZ7VCXs4yJY6hv8b8pF2JXqfd9xvNdv+LxeaIUbbSyZmJjIc1qH6vOgQYMwatQonmMgFMe2tBwV1SGIvi4e8YO9ynB8VZwVjrISOFr8mG5nFaqq3bBclozU61pbC+xHjjlRsbkE5R/UIGSwDfEjo70iW70Kiec4kO6ZiehtxShvOfhGq+d2MeWLtCH1Zt57MQwaVC5B6ftVqI+Mg214w0q7Usw+KQtRe/ORZGGN2NaWzjL2uQ8c7P8RsE1J0pYv+wNpAvzQQw9pK4cU/mfp0qXaYgBfBdjFH4YQWnhRW9soxK7dDkSMTkFsgwgzWl3+yrr4pe+TgIchLKyW/oQXN7Okj8UieTSzhnkWVeDS5XaUcOs69CpmdTSGL2xCdQEmP+hAyoo0VslPFNCKhcOQP7AQo8pCkDWgBvk3e0WlaiF7mDbEIf0qJsjkl+ZuiNLHT0LxcN8EeNasWRg5ciRiY5su9T0REuBLLrkE119/Pc8JAKwXU+GOgjXS0qyBaomFQjDyc/m4UPWBG1GXsR4QBXFvwydv6cXKqH8zZT/jZsLsQNhQ1mjQoG5bO3b0CEWoH1060gT4r3/9K/7+97/zlMKf0ArDm2++2XcB3lWK8r1cdkMiMGgg6zp6U9oD694w+3hwFFcNE9VQzQVRUx2G+DmLkDrExSyeStaR8xIWRS4KnmhZUZtYQdYN6QjZnAjPY+0LHD0UFasLgNHM4uB/q1FQ2bVdzL4K7UBVXNuLUdOniUWvg4yMDPzpT3/qcAt4Miguu+wyDBs2jOcoFL4hTYBnzJiBOXPm8FT7vP322zh2zMeh6w6gZbaDB/snGsknn3yiLbv1N9deey0/8w0SYFqNFdQr4VoK8IZ41M+z+WyVkQCn1uQicxy3rs+KgY13x/1FZmYmEhISNPdCezz++OPatvTXXHMNz1EofCMoB+EefvhhFBYWorS0lHVr254ITW3HN998gy1btuCNN95oPN59990TpmXR33rzzTd5SpydO3dq25E3QNcvKSlpt5wtoVgMFC9h7969+PTTT7U4DhMmTOCvihGQ7XF8oU8sUv5hQcn8bORsiUb+nTFCXeLY6fUonpOIONpWho5+/hVf4txzz9VVX2mwTs9sCYWiTcgClsHMmTP5Wccwa9nz2muv8ZT/oDIcOHCAp3znxx9/9IwaNcrDxJPn+IfDhw97hg8fzlO+s3TpUg+zyHlK0VmWLFniYb0cnmqbv/71rx7WsPOUQuE70ixgX+ZLXnXVVZp16G/IDUIRrESh4Cs0mNgyWlhnee+997TvLApZa2SNKfwDa6R1WcDkJmsZhc1I9uzZw8/0QxHhZCJSRuoN+tKD7Cz0+9LhKx1F7hMhKF0QV155pV/cBS059dRTMXbsWDz//PM8Rz/kKiDXQWeEsi3KysoQFxfHU2L422fenaHlxcw44am2oXseEiJn9wmCXF2+UlxcrOu7+Aty9fkKhU+V2VBQuFG6pq+8/vrr/Mx/BKUA02i+25A9qYEhQ4bg66+/9ukHoLLQiDf5po2AfNZDh/owT6oFdG/bir+r8B298R3I7+7z3OtOIBJ3gnzUvjx7nUWkjPQZ2WUUuZ4R/n5pAuxrK9y/f3+hVkoP9913n0+LQmhU3CjxJQ4dOoSf//znPOU75N4JGgGmKFj81Cd+PIr6litCAkRdXZ2uB5QEmHpVshCxZKleyLSARa5F91F2GUXL6W+CVoCpq2+Eyd/A5MmTNWHtiPXr1+Oiiy5CVJQxW/PRrIqGHSVEoXsrLyZBezhRcE8Ysst4shGKVtZSllvkbVuCPdNfQR1PBhLq8eipryRuIr5EUUREQzYiIiX7e4kKqRHlDEoXBEHzKzdv3sxT/ic6OloLO0jd/7ag7XWKiopw66238hz/Qz6z3/72tzwlBt1bX0IoGklLz5G7bDaGXRCD5NtGISJ2NkoPtZ6HIPKg0ICmnvpKD6RIV1YUEQGg8sksowiBKGOw3BNpAuxrF5kWFdA20UZCMxqeeeYZfP/99zynOY8++qg22d5IaLBRdAFGU0R8b4bjLkbmmBIkratE4au5yI7IQFbBSyfmrfUtyLvRkNDpETvZXedgstzawixlFLmeEaIdtC4I4swzzzR8egqtzmvNv0s7OFOAG6NXl5G/kTao7AxUMWROh9JNtQMVzjgMIg8LxYdwWBEXduDEvGiDg8T4iN6GX7blFiyi0R4iAizbfSYq9qYWYJFpUhQQxUg3BEHi97vf/Q75+fk8B9i1a5cm/J2ZmaAHcnHQjr7+gBqroCMyBnFD85H37CrMHp+AwoQcpA5vJW8If3+Q0Lt3b10Pm+zRexGofGYooxkwopzSBFikZaRoVJs2beIp44iPj8fWrVu1LdupoXjyySeRlpbGXzUO+m6jR4/mKXGCpwKHI/6xjUhoGFO0WDFzUxFSBoTDNq8KJQ/HMuuylTx6b/R4nDnhCqHlyf6G7qceK4l6HTJdPyKWohmWSgeiIRO5l0ZY6tIEWMTsp8pDU7RkQP5eWiWXnZ2N6dOnS+kWUVCfjkIemo3QgS0ij1nCYb3OhtiBTWI2tJYXEo6zLg1HEDpS2oSmDsoUYJHVjrKFTWQ6JJVR1HcsQjAtWpImwKI3+LzzzjNsPnBLUlNTERkZiXPOOYfnGIu/FpsE5QCcidF7P8lVIepPFEHUvypTcETLKHMeO5VR5u/WHkEvwDRDQIYbgqD5uMnJyTxlLE6nU1va7A+UAPsXci3oqa80QBssD3JbkLiJPnuyoPob7PeRMKI3EdQuCIIGwt555x2e6jrQd6Jl0f7AaHcJLTZ46623pAd28RcffPBBs3ClTQ+KPe1w8KDzHHItHD16lKfaRoabqrOQuAW7AJuhkTAKaQHZaeXZokWLeMo3br/9dvzrX//iqa7Bgw8+iAceeMAv7g5y0dD9MYMV0RZffPGF9j0C+SDSRpy0CwbFd5g4caLmjmqPnJwc3HDDDdJcVsuXL/c5bvSaNWu0LZNkLZl+7rnncMcdd/CUPiiCGv3+RgS6ao0PP/xQ6+V0tONJS1auXOn/RVkkwDKYNGkSP/OdOXPmeHbu3MlTXQPWqPAzhVlZsGCBhwkHTxnPsmXL+Jl+XnnlFc/Bgwd5ynhYI8HP9LN3717Ppk2beMp4WI/I8/HHH/OUfv7973/zM/8R9D5ggvzA1F3sKlCX/vTTT+cphVkxSwxmmQNcopjBBWFEGU0hwJdffrm2bU9XgRqTzsb/VQQevTEj/AUzmPiZfugzMsVNpIyEGcpoxGwSaQLcmcLTfGCZcVeNhlb3/eEPf+AphVkhARZ9mEUQeYZI2GRawCK9AiqjTAEW1SIjejymsIAJ2nngq6++4ilzQz9kZ+L/KoIDIx7I9hB5hmSLm2gZZbtJRBpOU1vAna0El156KV577TWeMi+0/1VQxm1Q+IwRD2R7iIgGCZtMcRMVNtllFCmnnqmJviJNgDt7g2NiYrT9rfyFe8sqZK+sOL57w/4qlO5uGczWBXeTZ8x9QlBx36HwkzabjacUZkb2AhgRf7PsRkJkbrRs65fuY7DcS9NYwP369fPjQFwFciakIWtaBvJ2eXOcGzIQxwS5KaXzw5D8YkOs2lJkhyVjVTVPCkIB2GnTUYX5obmkMgfhRMVNxNoTRaRRojLKdJOILqAxtQ/YH60cTYzfsWMHT4nj3pSPLGsO7A/WIGdNc9E9jhM1O5nlHdUQqzYcUWNK4Ohk7HB/LT9WBB7ZS2hFdj0hq02muIkIMAlbsN9HwtQC7A9oWXLn5wO7ULTSjpRb4xE/JhURq4qZPcw5WN9sQ8nmsXJCgB5MfTvRCyH/LwVwUXQN6EGWaQGLDNzKHigUKSM1EjIFWHRVYLe3gMl32mk/8K582NdFoWrlZEycVwS3Mw/FW/hrp4U0iUdrQWgfoHJvg8lbwyxiKzqzSxKV/Te/+Q1PKcyObHGjmUC+QhH3ZPpYRcso00qnMvoq+EaVUZoA+6PwtFb8vffe4ykxnO8XoXxCJvKW5SJ3aT5yHwtD3iZmA/dgyrq3HMWbir3HB2786rokFD+ZyQS7GAVzM5BlSYatE/FzyHq/8MILeUphdvwVTlQvIta2TPElgmVwqz3IB+xrOY0qo6ksYPIv0WyIqqoqnuM7obHpKH7Q1mjpRo1ZhKyRUQgfY0ftvGTEWGO8x4BQnDcuD451mUiMjYFtEjvfnAYr/5wINIjory2IFIFHtu9SxIghN4lM61LkWrTQSmYZ6Tfz9Xczyt8vLRoabb2zdu1anhKHIqpRC3bPPffwHHPw7bffartuLFy4kOd0Pb7++mttnzvydbfV4JLlQXGXaS8+ioD1+eef81dap2/fvoiOjuap5mzfvl27zq9+9Sue0xza26+6WmzaykUXXYSIiAieah3atooi2nUUNc1fFBQUICEhgaf0sXjxYvz+979HVFQUzzEW2lsxMTGRp/Tx7rvvanVh3LhxPMdYKPyoy+WC1eqbOUU75cydO5en/IM0AR4zZowWGq+zbNu2DX/729/w4osv8hxzQBXzl7/8pSFbEFGjRKsEjdoZmarI4cOHWz1IIElQRaf2BCMkCH/84x/x5z//mee0zr333oupU6dKC0f5wgsvYPz48TylD6obtLlt//79eY6xPP/887jpppt4Sh80NXPv3r0+fzdRdu7cqW115osA0+ylWbNm4YknnuA5foIEWAZjx47lZ51n4MCB/Mw8pKen8zP/w6xqT11dHU8pOkt2draHCRdPtQ3rhUkNR7ly5Up+pp+nn37as2PHDp4yHpEybt682bN69WqeMp7KykotJKUvMGPDkGdYmtkiOveuNajL+fHHH/OUOWD3mp/5H+rWy/ShdXXofur5veieiww6iSIyjkLfw8i61xJVRt8wpQDL3CfOH9B29+R+MArq/gfaBeDasgo587ORTcfCVajYz18wIXpdObIbPZFpb2YQN8IMAmwESoAlQNPPfvvb3/JUgNhfheLtLp7QgdulDVRoR8Nsq212THy8GK39ldCB8UielIa0qQkI3ZAG+/utvKtsNiISVqH5DmytcOj4tb2xOCqQMyIDRe0Vv5WyOVcnImJWKU+5T/w+HNe6DKSvPb7EkbYm0mPZkgDLFA7RqVCqjM2hMoo0nkaUUZoA+3OAaPDgwdoIuFkgAb7kkkt4yhiaCcYhB0ob5jOXObTVfRTrYtiLebCPPy5kjmeHIWbaKhSvs2NybARmf+DNJ7GqWGNH/qYSFM1JRtjdBdDk6ZAT9q3OZqsFG7GEIrQX+5srM5CxczKSh4fyF45TUZqPsH6hCGl3+qwTxcvzUFRaDPu9NkTNp3WKTDw3VKFiIRPU2QUo0CztDCRbI5Cxif+xE8rmQvnmAsSdZYGLNKG6BJlJYbDdmwX7Qvb5BUWNDUFtdSkch3iCQQ+anh4FvU+mC8IM4kbWpa8WJpVPdhlFrmdEj8eUAkyQCHdmPrBMvvnmG6EVQnppKQLOtemIW+PCoGgXCmLTUdA4E8vCdKmKWYHelNNZjCirDbaRKUiOb7rM2gLrzWlIGROPpBustOKA5zPYe+r5aTOOOVDw4ChMrkhEwZP1yBgxGau2N1VaB6o218AW5YL9zmEYdU8OiqtbU+Jw2KakImlkAhKGR8F5zPueekQjqh8r808RSJhKlnYiYth/Uec0WZrYrGxVKFkcj5heJchIGIbk5U5cfCkQNXIy+yz7/APx0CZmMUu/ytF8dSUJnZ4em2zhEBUAmY0ElVEkHoRMjBBSUUzpgiDIDbFx40aeCl5IfCmSm3TOikB4eAQiWPfdPmMi0paTJRmCkNCCxoBCll5WOCrIUi5A4WZvnpcqTSSHjZ+MjNIw5N5lg2bP9mHiuMbhtYZPIAK2WfkofDIBsSMzsbEoE/GRTddtO1G5Jg5xY5Iwc9VGFM5LRlx409c5+4sxezy79p2s4XDakDc6mlmvTLxZ2cPDmWTW1GpuBtdaO7J62RDTcGtblm03fSYOtgmpWPTqRtinxKPfqUDJHNbY3D0RE9mRPov81XYUNSxF59CUI4uONeckvrLFzVdklq8BX33VgSijr/eSymhEOaUJsL9bRbP4gV9//XX52w/RsuqtJShaV4JyWJEyJxfZE06c82idUoLiGaEotuUh6slapA3lL1RXoGh5LDJfWIRMZi2mDA/3rhy0hHiFuAXuD1axLn0O7M/meAfhtIE4O+yL2b/rGjr60UguZqJcPRsn3VYAZ69QWHrwl5qyqxQZx1KQuywLaaMtKJyWiGG3ZaIElcxyD2MC7YJ79yqkPliLyeMdSB+RgWIa8GtZtj6xSH8/pXHloiU0FL17hCNuhh15S2kZei6yHiNLOg3JLaZm0xxRPUGTZFtSogIs00oX6RXIFmDRMhpxH6UJsL8LbxYXRElJieHxf1s2buHj7KhdmoK42BTYa/OQRAu1mCiHs8NiCWfn3vdRXmhoGMV5Y5YxE0RvLhAZhZjwIiyawcV0fgGq2nE/Wi5L8nbr6bjKjXR33PH0yIYVWKGIvi7aK5LtxVBg105Yk+e97loXYsbMRF6xHZPh5gNyP2Db5lokMgt45pRFyF+aiKiWxioNOL7vQP2xGlSVcV84O/YejsbGOdOQQX+7iQ84akDz1WUU40HvrBUjHkp/YpTl1hYi15I9g0fknhh1H00rwMTAgQPx5Zdf8lRwQj8ajarLhYQ1lB9edQofl4ea6QlIWFGDmZdVYRXvhk+8exHKh7uRP2sikhOGIfHeAiZMsZi5swR5c7iITk1ANIk2s1qjJ0ShIUKybrat4tdixzPlsLnzkXF3MhJHJGLymhZzIiKTkHcwH4saBHySjV0vlJWfiXeUFVm3/ga/uzUVCQO93yt0gBVRtF9r07KxhkXzuNfXorY+BBHR3vgeV6cVYPf7KzSrvtEHzAi9KgMZVx23nwPzmxlDIMTNV0vdLGU0pLFlf1QKU6dO5Wf+Y8GCBZ6CggKeCj5oddojjzzCU8axdOnS4FkJtzXXk7K0kifMybx587TVUh1x++23e/bu3ctTxkMr9HxlyZIlHtZT5CnjeeaZZzz19fU8pY/3339faAWdKO+++67n7bff5in9PPDAA/zMf5jaAiY/MO2xFqzQ9vMUQlMGolOU/M7gFOTe1XrwHLMQHh6uq76SJWVEvfYnFGlMZhlF7onsWROiv5sR99HUAjxkyBAUFhbyVPBBA3BGBN9pCVUo2cHBuzIHDx7U7mlHULdUz/sCiZHTH9vC12dddIcKUUQFWGS3j46Q63wxAIoLsXz5cm2xQ8PxzjvvaNGVmsK6Rdi6dWuz9+k5aMEHTSVr7TUKDk8j5jTQ1pBHFjmFQSTq6uqkVS7RJaCKE6HfTQ/+nlrZESK+Uqp/MhsJEV+pEcLWHqL3w4hynsRulv9N01ag2KnZ2dk85T9WrFiB1atXIywsDGeccYb2r5FdmqNHj2qB1TvaDYFcD5dddhluvPFGnmMcubm5uP7666WFRezq/OMf/8Dw4cPbjEPcwP3336/Va1n3fcGCBVr8YV+gELA0WN3Rd/EXzz77LG6++Wb06kUjo/qgWMBvvfUWbrnlFp5jLPT8Ui/nmmuu4Tn6mDNnDmbMmMFTfoIEWAZGOLAVXpgAez7//HOeUnSW+fPnez755BOeapvp06dLDUdJg86+QoPUMgfhqC76OiC8e/duqYNwFRUVHtZb5Sn9ZGZm8jP/YXoXhEKs26doG3Ir6emmmmGqmuzFIiLde9l1V9QHbMS9NPUgnMIL3VsR/6Cidci9pKe+yhY3EWTvW0fi5ut9kT2ALFJGwoiZRtKeWiUQxkLTjRT+wZcHTcTikwmJm8wyivTGZA8gi2qRqQVYWcDGQRVK9oh8V4YES49oUZ0O9nptBuvSLBawEeWUJsAyW+HuiJ7oXQp9yJ4WZSSyF+jQc+5ro2SGMhJGuJyUAHcRTj/9dH6m6Cw0hUrPA0p1OtjrNYmGzDLStXwVKtllpB6jiJgqAVa0irq3/oXEV+89DXYXhBGi0R4i/lXZAix6LVHfcXtIE2AjCq/wEuw7EJgNvQ8o1WmZwiHyDMluIKiMvl4zEGX0tWEiN4kR5ZSmikokjEOmCHQHfBnQlCkeIr8zlU92I2EGAfYVmmVkxH2UJsBqlN44VOPmX6iu6hnxpgc52C1g2Y2zyPXoMzLLKXItowYKpcWCePzxx/Hwww/zlMKfvPDCCxg/frwWNOjAgQPa1uvff/89f7Xz0N/86KOPcPbZZ6N///481xxQ9f7www+11W1NITGj+Aiffvqp9r3OPffcxobstddew9ixY7VYHu0xe/Zs3H777YiMpC1HjOeZZ57BPffcw1P6+Oc//wmbzYYLLriA5xhLfn6+tgNM3759eU7H0O+zc+dO3HTTTTzHWBwOhxZka+TIkTxHH1OnTsX8+fN5yj9IE2BDAlkoNL7++mvT7BDdFhSQZffu3dIHjZpCS4svvvhibRZETExMh/vCzZ07F0lJSTjvvPN4jrGICDAFaqK42QMGDOA5xiIiwFu2bNEawj/96U88x1hEBXjatGmYN28eT/kJEmAZ0C4DCkVXguo0e5h5yngWL17Mz/RDwXF27NjBU8ZDwX+cTidP6YOC46xevZqnjGfPnj2ewsJCntLPQw89xM/8hzQfsGxflEJhNFSnZS6jFfEBs2dc6rNHZaRr+oIZymgUSoAVCkHIZyzTZSL6DMl89sxQxmBCmgArFF0NsqQC6bPWizJ+/IMR91EJsEIhiFksYJmIuhNkfzcRd44RKAFWKAShyfkyBVhkvjcJm0xxo2uJiJsZBNgI0ZYmwMHS4igU/oIWbJjBBSFzwEnEAqb3yx4Uky34baFUUaEQhCxSmcJhBsuS8LWcgShjtxNg2S2cQiEDmbFsRXuRsp89M/R2g6WM0koRLC2OQuFP1CDciZihnN3OAlYouhokvsG+ECMQiJSzu1rpSoAVCkFkC7CI1UafCfYBrkBYo8oCVihMDgmwTBdEV7aAZRMsZZQWDe2pp57C/fffz1OScbvg7hEKi56d2/dXoXhzCSp2uWCJjIZteDyi+wBVzybCHp6DrNHhgLMCxVW1/AMhiLo8FlG92OkxN9yw6LuOH/nyyy+1cH6BhIRo37592L9/P7777rs2LUOyPCgyF4WApAhon3/+OX+ldSiqFoVSbG3bfYpoRdeh10855RSe64Wq9WeffYbq6mqe4xs33HCDFhGtPSjUI4W0vPrqq3mOsbz44osYN24cT+njueee06KTyYqG9uqrr2LEiBE+bRK7detWLZofhVSVAdUJqntxcXE8Rx8ZGRnIzMzkKf/QtQS4qTCGRCFuaBSTQ6D08ZOQhVzYBsQg5WarltcS19rJiN6Wgprp0XC53CynCvbRcaid60HmlfxvDKhB/s3hcO8uRYkDiGAPXwT7Y5ZQJu7sE/SejPDPsfGuKO1vymLRokU4//zzceqpp/Ic/0JV5PDhwycc9fX1zWYBUDhHCuXYcNDuwkaVyUgopOKgQYMwadIkntM6ixcvxsCBA3HdddfxHGMREeDly5drAiwrHvArr7yC3//+91pd0EsgBHjv3r2IjY3lOfqYOXOmFgPar5AAy2DBggX8zEAO1npqa9mxNdeTgDTPxnpvdslj8CSMS/BgXJ6nxpt1AjWr2OuPlfAUY2euJx6pnsJab5L+hu3hfM/G4o2etzZt1P7Vjorjf/Hzpbbmf0MSTIA9dXV1PKXoLFlZWZ6FCxfyVNs8/fTTntdff52njOell17iZ/phAiw1HOXLL7/sOXLkCE/p4+OPP/b85z//4SnjYeLrKS0t5Sn9zJgxg5/5j67lA+4VilCyRvdWoGBCHAa5XdruELX17LWLY5DwogMOuFGxcCISb0tE8rQCOMjYPQE3ipdmoCi8FjXO428IPScaMdb+6HmEJcKiMMhVgGHTCtnf9BLCrh8IzOIbNAutuTtag9wfwe4DDsRgk6/lVINwXQl3BbIfy4HVUovK7eUoryiHYz9/jXF0UybiK+JhX5GFUbuYCCdNxMS7JyJteQV/B+BYnYKJzmx8vnkUSkfbMPsDJsK0RVivMCbw5+E319tgGxKFml0liB0TB7kOhxMhEWCNKU8pOove/QtlzoAgREVDdt0QKafsMgaL0SKtFHJaHDdK56eiML4QWRcUYOKcKoTF2hBzDn+ZcfSQC84etShfnQ17rzzkFeQid2kusidY+TuY2Ealo2RZEqIGJCF3azHSLnOj9hgT3QvC+XsYW7KRWhCDmE0pSJxfChfPDgRUmYKlRe8K0ICenvtJG3fKFGGz9HTMUM5geV66lgXsLEF5vxwUPRwP2wOFqFyRwixhwNIjXBuVtTD97DM6E5/fyWzWqDTkr2Aiyz96HAuihloR3tALdVWgYKEdNVflIqVhj8bdRZj8YDlSVi7CoheKkHUVUNt8z0fpdFihaHbHdh+aCe6+0Y4GL8w2OyY+Xqy7samYG4HkF508dSLOF5MRMfd4z6MR1kg2XNutjfFVIGdEBorau3ArZXOuTkTErFKecp/4fTiudRlIX3u8nNSj0CMiJMAyXRCiomEGC1g23c4ClvKFw21IvdWKBk+sJdQ738E6vQZ5U9OQVzMT9GrUUGbNDo1qfB8Rbk1B1pAmFq5GBbJHZqI20oKC+ByUNDy44XHIfDUPKQPo79Pf805Ds4RGIyFcvh/4hAp/yIHSTcUopqOMvN5MjDZkYNiLebCPPy5kjmeHIWbaKhSvs2NybARmf+DNJ7GqWGNH/qYSFM1JRtjdBdDk6ZAT9q1O7e81hQQsYx390Sr299NRxLXMfYy999g3KF6cjlERMUi+JxkxJ52PuLtXef3mx9xwsqM5ThQvz0NRaTHs99oQNZ8EmonnhipULGSCOrsABfOzkT0/A8nWCGRs4p8/oWwulG8uQNxZFrhIxKtLkJkUBtu9WbAvZJ9fUNTou6+tLoWjSQNKMztaTmtrDZlxIAiRZ0i20IiGzOyujYS0X0empSDEwHikjW5hD7On2W2pRdHyIkS/mgqbV89JaRFK835bEMrEOv+uaJ4KHM616Yhb48KgaBcKYtNR0DgVln0BVxWzAr0pp7MYUVbWGI1MQXI8U81GPbHAenMaUsbEI+kGK7sJTUSSvYfGNJvi2GJHlWZWuphV6/AKXiO/gG1SOpKvisKo20axHkcKspe21vNoIBy2KalIGpmAhOFRjQJdj2hE9WNl/ikCCawxTZuaiBj2X9Q5DT8Ko1nZqlCyOB4xvUqQkTAMycuduPhS1vEZOZl9ln3+gXhvGZilX+Uo1j7RAE2v0zN97siRI1JdECKiYZaxAdn60O0sYDN0S07AYsXM0hIUvlqIrJbiHOycFYHw8AhEMCvePqNhkDEEIaEFcHAL1dLLCkcFWcoFKNzszfPCLNk7h2HY+MnIKA1D7l02b2+hDxPHNQ6vNdwCx7pFzCotROUQul4yEkcMQ9oK/mIzalHy7EQk3sBEcU4Jz2vC/mLMHs+ufSdrOJw25I1mDVq1g5UohH0f9hvU1GpuBtdaO7J62RDDRFmjZdl202fiYJuQikWvboR9Sjz6MU0tmcMam7u9A6/ps5glvNCOoi38Mxya4xwWFsZTbUMCLFM4RERD9nNnhjIS3U6AFcZxQrevB7MKt5agaF0JymFFypymg4zHsU4pQfGMUBTb8hD1ZC3ShvIXqiuY1R+LzBcWIZNZiynDw72LVywhzdw2DUT0i0NYbDK3Sul6echfvxHZt/E3HKpF/bESVO4k+9SC6HGLkM9EMW9GKyuRdpUi41gKcpdlsR6JBYXTEjHstkywTzPLnYnifhfcu1ch9cFaTB7vQPqIDBTTLJeWZesTi/T3U1hpvNBimd49whE3w468pd6B16zHyJJOQ3KL+fhuZvFHRETwVNvQ+2RamKKiIVPgRAVYpiDS9UTuiRFllPatA9HKdRdaikD4ODtql6YgLjYF9to8JEWyTCbK4eyw0EhkwwAjS4eGhjHbktnGfDWfRmQUYsKLsGgG+VrpKEBVO+7O8OEZSDlWxN5XDMusTCTQ9Ro5AueWCrhj0xHmdCFuXhiq1pSgyfTq5rBrJ6zJ8153rQsxY2Yir9iOyXDzAbkfsG1zLRKZBTxzChPypYmIauKF0KABx/cdTPRrUFXGfeHs2Hs4GhvnTEMG/e0mPuCoAQn8zAs1aHoeNqrTMgVY9rQ3EUR6BLLdJFTGoHHNsIJIgVYNKYzh2Wef9XElXKUn764UT4p2JHkShsd7EiakeJLG2DwJU/I9n9NbDvJlhE2pLfTMnJDnfV0H9Y4ST+U+nmiNfZWeEseJ16k/4dqVntxxMz2FpYWerFcreV4Lmpat9nNPScNKxWJWhhq+QpKOVr5W/d5yT/ne4y/QKriqqiqeapt7773Xk5+fz1PG89///pef6WfFihVSV8KtXbuWn+nnk08+8Tz//PM8ZTx79uzRVt/5yqxZs/iZ/ziJ/se12FAoXsHkyZN5yj98+OGHOHjwIE+1T+/evbUAMBTc5cCBA9iyZYtQK0j+QVZh0K9fP1x00UW45JJL+Ctedu/erR2+QuXrKPhLW+Tm5iIxMVGX31LRMf/617/wm9/8Rgu00x7Tpk3D0KFDkZDQ3II2CiZuGD16NE/p49///rdWRpnBeCiQkS9QHAiKByErFgQ9n6QbF198Mc/Rx6OPPqod/kSaADOrAlOmTOGp9qGKRkE9IiOb9WW7LEePHsXrr7+O9957j+f4BgkwPZjUuCg6zz/+8Q8MHz68QwFOT0/XxG3s2LE8x1jombjxxht5Sh8kwBR0pn///jzHWF5++WX88Y9/5Cl9kABv27bN50BDolAEvu+//95nAf7b3/6GRx55hKf8BAmwDFil5mcdwyqa59133+Wprs93333nYdYvT/kOuSCqq6t5StFZ5syZo3WLO+L+++/3vPDCCzxlPGvWrOFn+mEC7GGCw1PGU1BQwM/0Q+4ekUBDouzatUvIBfH444/zM/8RlINwNL1H5qhooPHH7rpmGKAxCxRKUw+y566KXk9kcYQoomWU+byLPmumngXhC7TEszsJMPl/OzNLhD4re1VWmxxynbBSjla8tVz+2yp632cw1D3Vg+zR9GASDn9C9dcMAmxEQxaUvwyJiWzrItB0RoCp8soUgrZxouCeMGSX8STHuSYFYfMbYjI0QLEZmqtt6++TDw206vk9ZAuwyDNB36MzdctXzGIBi5TTiDIqAQ4SOvvj6g2haDRNVy030iLeg7tsNoZdEIPk20YhInY2ShviMJwQFyIwkAtML8HR8LWP3vjGgUSmm0SUbmMBkz+T1uN3F2hFVWcF1AwVWMNdjMwxJUhaV4nCV3ORHZGBrCaRyIIBqn96hVWmAItci6xfmXVDtIxmaCSMKKM0Afa1G9SdBJi+K+2fJopZKrBGtQMVzjgMommpbiccDivioltGoQssensjMrv2hMhAKwmizLoh2nOVWUa6JyL30ohepjQB9rWLHTSDShIgn2Nn5/DqHbkPOJExiBuaj7xnV2H2+AQUJuQgdQh/LUg47bTTpIurHkSsS3ruZLqnRMpIyDYgRMppagH2pWWkSmOaLrUfoFkfZ555Jk+J0RkL2n+EI/6xjUhosegqfHgmNo7jixoowtymIqQMCIdtXhVKHo5tjEHR7H0BRO9OzvQQiwqOCKJTDYNlfKA9ZJex2wmwL5D40tSs7gL9sJ2xADo7gOdPQgfaEN2HJxroEw3bwCaxyizhsF5nQ2zTPKLl+wKEL8aCTAHuygPTsnscIr+bEc+ZtCfXlxtMYtSdBJhiVHRGgIOxu2xm6H7qeUDpfTLvvVkEmJbWBzvBci+D0gKmrlZ3E5XO+LyDyQLuCvjS1Qx2C5g+o2d7JX/iaznp/bJ9wCL30ghNCkoLWOTmmJn9+5vsmy9Ad/KXy6Bnz56aX74jqOGTKcAi1wrEs+RrOen9sg2uYNEYadHQFi9ejEmTJvFU+1B0L4oyNXjwYJ7TtaGdejMzM5GVlcVzfOM///nPCbMoHA4H9uzZw1PdF6reFLb00KHm21aTeFK0s08//VRzAZ177rmNDdlHH32E6dOnayEp2+O+++7D5ZdfjltuuYXnGAs9FxMnTuQpfaxcuRK33norTxnP6tWrtWhoISEU5l8fFN6V5sL/+te/5jnGQr/5vn37cOWVV/IcfaxYsQK33dawzYt/kCbAOTk5SE1N5an26W4CXFdXh8cee0xYgIOVwx9/xM9a59RLLuVnwBdffKHFaQ2kZUKWL4Uo1Dul74EHHtBiOMsSuOXLl2PChAk8pQ+KbUyiIcvCXLVqlRae0xe3B4WiJAG+7LLLeI6xkAB/9913WphOX3juuedwxx138JSfIAGWwaJFi/hZx7CKpiscYFeBiY8nLS2Np7oO33+0xVN1va3VY9/K5/i7zAv9ZrTjhCxErrVs2TIPa9R4yniYAHuOHTvGU/rYunWr5/333+cp49m+fbtQuFu6l/5Gmg+YXYufdQxZIL683+x0p1V/XQlyWcj0XYrOQ5VZRrqWyJiE7DLKnnfcFkEpwOQ/kvmDBJrutOqvK0Ej9zINBRFhkz1QKDogLNvgEpk5ZIQmBeUsCLo53UmAu9N37UqQn1PmbycyVUv2syRiWcouI11PtJz+RpoA+zK4Qq2h7BYxkATHMmKFr/gy0u8Pgr1rT4iIFJVR5vMu+560R1BawPReI1qbYMU0gXQUzQgNDfyy6Y4IJrFpCzOUkTCinEGpct3NAg6WSeH+4ODbb2H/v/+lHYc/3sJzW6fhfXSYEXIJBLt40HMkGsSnqyKqLUZokjQB9qUSUKU2S6voD2QvwzSS0668GpYLB+Lb1XlMWFfw3BOh1+g4WvMV+txyO881F7IbTjMYJcEkbm3RLQXYl8rancSXoAUAXYlev7kCkZlz8bMOwjqGjhyFX06dzlPmRKarrKuKm8zyBRtBKcBEdxJhGsyhlUBdiZ9bf43IRzPxf234ScNuHIPw+x7kKXNCvTqZ4mGGZ8Isz22wlFOaAPtaUbvTIBwhOn8ymKGlxpGzHsPJv2gep+KMxHHoO2kyT5mX7my5+RO6j2a4l0aUUZrK+dLi0Hu7W+XuqgMlIYN+hbMzHsEpkZFa+sw/3Yxf3PUX7dzsUB2VaUmJXIs+I3OMQbSMsu+jzOu1R9BawN2N2tpaftb1sFx4Ec6eMQt9km/FWRN8i+YVzFDIymB5kNtDT2jNQELaYAZ9MKKM0qKhzZs3D9OmTeOp9tmwYQP69euHCy64gOd0fUaPHo21a9fylG+Uvf021q0r4qnAQD7+ffv3Y//+b/Eda0x+asOiJ8Hq3/98nP3LX+KLvXvhcOzmrxzHEhKCKy7vODLW9k93aD2HCwb0PyH6FlXrzz534Msvv+Q5vpH+0EP4wx/+wFOtM3/+fEQyy/7mm2/mOcby6quv4oYbbuApffz73//G+PHjpQVlf+WVV3DjjTfylD4qKytx8OBBXHHFFTzHWHbt2qU1ShSO1BdEotF1RFAK8Pr163Heeefhoosu4jldGwqNRzFli4rERHThggW46bprcZqBK+q+r6/XggYdrnfjsJvO3ag/4saxY8eFtucpJ2ur+nqdeqp2nMqElA6zsWjFSpwaEYF77rmH57TOnDlzcP755+Omm27iOcby3//+t8NGoSV5eXkYN26cNAEWaSRkC/Bnn32mCfDAgQN5jj6MEOCgHOkiK6krLU7oCHI/dMYHTPfL6Hb050xI+5xxBs49+5cY2L8/rIN/hbhf/xpXX/GbxuMKqxWDL7wQ/ZhVSO81o/gSP/54TFf9k921F3F3mMFFIqP+NiWY7ok0AfZVULvqoFRr0IyPznxf+rwZHjSz0KOHvkAtsgVYZGYQfUamuInGq5BZRtEZVkY8Y0FpARNm2FnVn3TmYabK688K/HXxE/hr8X7WCh7Bgbq6xqNxpvK+N/HXuW/ia57sapysc9YANZoyGz4R4ZAtbl01YBBhagH2pRLQF+1OFjDFA+5MTGC6X0KV48hxcT1wmOcRh6uxm9J11aiorGTHm1gw8XI83RDa4cc67HbW8cSJfF2Wh/9UHeGpJhxuIubaz1uJJROewmtt/ylgx0uYlFOGAzwJ7Md/7vstHv2QJ4kmDYX37x5n+wszsWQbT+jklFNO1vWQyq6jIuImKjaiiEx5o+8ls5EQnZZnxL2U++v4QHcKUk7umUAI8Lu5l+OvbzHR+mAxLr1jJh7NXYan2fH3l9d73xDWH9cOHcqOERh6MVD2svf1p5esxSved7TK7g8fw5rPDvJUA/vxRv5avLalDM9l3o6BuZUsjwnnO5/ho5VT0G/xeryiXf8p3HEjE9gyLuCH9+G5HfuOW991n6BsXQzCex5XbfeOtbjv1stxx5Mv4Z/L2d94uZK//wicu1/CAR9vLQmrHrGj302o4ROkK1vAMssou1FqD2kl8fUGy/xBAg21yIGy+GnArG///oiOGIo7xo/VjusbZuc4y/DE9Nsx8r4nUNYvC4/+xfv6HbZB/A3AgR3rsYQJ53NvVR8XyVbpg2tvTcafrh6BG+Mi8fUxr8DWoz/6nc2s5p/Owo0T78R9E0fAil+hX0ST+BhMQBs3bdpZgSVXD4Kl4imMuS0dT/y3Ekeir8XIfsDQP9Ln2fFH9jq9lyx5gY2hj7HfQs+sAdl1VETsZTYQopihjIQR5ZQmwL4Unt4r0pKaFYoFEQgBPv2sEShbuwxLXi4Dzu2JA5+Tu6ESB370CuzXFS/h0T6TsO7pWXj01tG46MfPvC6J745A2894z0u4Y2olrOOvgXv5FPwl22shP1+hfbw5tUzM72NiPv0JvLJ/KJ6z9WcCX43t6Im+Z0UC++o0N8OB4pew4NShsHoXzjEr/Cxcu6G60d+8e+9ngJU1FrfOwpoVs/GXq/vjdP7ac09OwaSMmex4DI/msLKsWos3qvmLPvD994dxageBhAgzzNQJJmuvLeh5N4PB1W0EmOhKIRo74he/+EWnHmbRijFw/EKsefhO/OW+LKxLG4FLh5C7gR2DvOrXN6I/+hY8hpF/YcI29yV8GmblLolBYAYncHAfKgYxAaxcj+e/H4EHJnst0Jus2sebs6cCjx4bi8VzH8J9tp5YN28KRk5bjDJ8hgN1vZlA18H95VrcN7cOk+Kr8dcJT+ENWhzYs2ejwBLhl9+JssQGC5y91ttrKVvYP3c8uBCLM2ezgzUYqVSWWzTL2FdonjP9JnoIdoEzg7jRPVQCbDC+FJ6sX1kTx4MBamw6s7uCfyrGEezeUoY3yiqBkQvx/B/6AEMmYfc7RVi3hAnb9LG4qLaCvV6Gj/5vNJ5/ejT6Dk7GK7+twxvMov3P6km4tL2omuGRuHHDWq8PubgO1uGT8ByzYCex63oHzo7hk/frMOafs/EQs26ff3wE+rX4ewd2lKFsL3t/7Wd4l5WDykLHK/lv4Eh/KxYvecL79xt9wH3Q70LtxCeOHv0BZ555Jk+1jWzREBF72Q2EyPVk93bpeQmWeyn31/GB7rZPWmemoflDgA8UP4GR6+vw9YYxeGj9fp7bhNo3Mf2O9Tiwfz2Gzl/PXQK9cekfkvGXP1jRt8kz1O/XszCm/2k8xQkfjee2LMQCzc/LjqSh6Ms+33cks6AjB+HvN14C2x+TceP5XtU9/TxmZZMX4NTeGJgYyd7L4HGT6w/Uod5yFqIHDYKVHdcOH4Eb/vw8di9h1nVTHzBj4Mh/4cbzeEInPVnjr0cUZAuHiOB3doDXV0TLKNMFR2UUKeeRI63M7Okk0gTYF5GgHyRY9u2XAX3fzsYD7owLo4H6D/Lw/J5JuGMos35b43AFlrxcjYcSSDzbpu/QZPwp+kRz2HJqy7z+uOPp+/H7IdfgPvIJt0bva/Do3NGay+P08xpcIOwY0h99e/fG6fxoENyWnH7+UAwM4wmd/DK8ry5rh3ou/ul9GAfVC3/UDSORXUbR38yIRiIoBZjeG+wV25/U1dV1unvTWSvndNss7H7hX1iTez+ubU2wwq7Bgneex7rcpXh0aG+e2TWhuqfHQjLDOAUJm4i1JxMqn0wBFr0fphZgXwSmuwkwWb+d6c7SvepO86aNpu7gQV31zwwWMImNTAEWuR/B3kA0YEQ5g9ICNssP4i9IfDv7nWnuqsI//PCDvsaM6rRMARa5Fi3pN2LwyJ9QGYP9PhKm9gH7agEHe6XxJyTAnfm+dL8CMY+4q3LqqfqiuFGjKVM4RBrpYPf/ErLLKGrsGGEYSosH/PTTT+O+++7jqfbZvXs3duzY0WwqGqW/+uornvJCLSflffPNNzh8uGkwg7a5+OKLtfCPTqez3W47Xbt379447bTTtH9pmlhHDxtVpJ07d6Kmpobn6Idiky5ZsoSnfGPZ0qWIHdAfUeecw3MUneEJ9juMn3hXhwG7Z82ahV//+tc+ByAX5c0338Q111zDU/qggOwU7P/005vOpjYOkTJWVVVpz4zNZuM5xkLP/oEDB3yON75o0SJMnuzfvQylCbARhVd4sf/zn4i7YEBQCPCPR+rx08khOLmpQf/TDzjy48no2dHEFr3vM5hHFjyF21ldHTTo+JLr1njkkUdw2WWXaQIngzfeeAPXXnstT+mDArJTEPdgFuDt27drAnzdddfxHGMRFeCcnBykpqbylH+Q1s+XpPPdFr0hFI2lDt8ufhD7dvAk5/A7T6Fmzac8xSGxPfQDmjpOWn1fADiqc0627BkGIu4O+oxMN4kIZigjYYRbVJoAd6eVbbKhyit7UUDrHIWnFVe0p4WL78j257Fn2kP4+h+PYe/Dz+M7Hmmn5fsChV5RpQfSDGMVMsVN9FqyBVjkekqAFa1ClekUsyxcOVKB/Us/Rc+0J3HujPsQ0utNHHqvlZV3AeTkk4N/elmwItojkN1DDpYeuTQBDg4Lrevycx3Ru4KC75z48YeLcEoEOz/yLX50heDkyDZW3gUI2txUzwNqhhkGZiFYBFE20gRYWRTGQffWwuMkBD1nnI8eoe/h8Gtv4quncvCD9c84o41VyIGCYkHoqa+yjQrRZ0imuJmljCLlNKKM0gS4u7ZwMhCt9P6nD3r/KRW9fsmTnJ9bb8JpcWTyMnpehPBZM3Ba5JmwJGcicvxFaGg6mr0vgPz0k766KrtOi15PPXv+wdQCHDwi0fUIpnsbEjkYvVuGiuh9Ds6MPJ75s5P74PTBg3EGy2tmQ7Z4X6D42c/0xYIQtaREERkEMsPW+WbZgNeIeylNgBXGofzr/kXvtvQK/9CdjTMlwF0AM0yFMhMhlp661v2bQTjM4H4wi4vEiHJKWwlHSyJvueUWnlL4k+L//Q8/1TduW6mxe88efFEtsCGaD7iZSDm++EKLQzF44ECeK8YXX36JPexv/eTn6kjVu/yjj/B9K0vVoy+8EFU7duCcs8/GuZGRODUkBIOjo7X33v/QQx0uRf7b3/6Gyy+/HPHx8TzHWDZv3oyrrrqKp/Rht9sxduxYaSvhRMpYUVGhhQeQtRT566+/xsGDBzFgwACeo48nn3wSDz74IE/5CRJgGaxcuZKfKRRdg0cffdRTWFjIU8bz1ltv8TP9MNHwuFwunjIekTK+8cYbno0bN/KU8TidTs/OnTt5Sh91dXWe7OxsnvIfqu+qUAgiexCOPa/8TD9qpV7riNxLI8op7ddRA0WKroZs4RC5nhkEOBBl9PVekn6ZWoDVqiFFVyTY4zCbYW/FQGzt5KsFbFQZg795VCiCGJGurCgiRoxsK12EQAiwr/eSYtkYYURKE2AzVASFwheoTssUYBE6u9u2r4iIVH2LGTwy8PV3ow0fTC3ACkVXRKYAi1xL9matImU0w3ZaVEYjfmslwAqFIGawgIO9fIQRlqW/oTKaehBOuSAUXRGZ4iFyLdnWpYjgB0KAfb0mvV9ZwApFkGEGC1MmZrkfvpbTqO+lBFihEMQMLgiF/zCiFy8tFgStSe/f3/fI27R7Ka0VVyiCDYp78Je//AXjxo3jOcayfv16jBgxgqf08fe//x2TJk2SFgtiw4YNGD58OE/pgz5DCx1kxoKg45JLLuE5HfPdd99pGjZ16lSe4x+kCXAwQNNdKMoVxR9t61+a79enTx/t6KjSHjp0CHV1dY0HTVXpatAqJZqn2dZBE/1byw8JCeF/ITB8++23+Oqrr7R/jYS2rv/FL37BU8byv//9D9dffz1P6UMJ8ImQ+NLW9JdeeinP6RglwApFN0dEgJ944gnNSg9mAX799de1hj7YLeBly5YhPT2d5/gH5QNWKExCIGYL+IoZykiIlNMIW1UJsEJhEswibmbAVzE1ahqtEmCFwiSIiICKhuYfqIxGiLASYIXCJIh0gY2y3PyJGcpoFEqAFQqT0FXHywMhwL66c4yy0pUAKxRdGDN075UFrFAouiQkbjItZ7O4SXy9JjVkRtxHJcAKhUkQsWaN2kqnLUSuFYjtykQE2Ij7qARYoejCyN6SSESkArFtkq/lpJWdygJWKLoxIuLWs2dPqS4IswhwsKAEWKEwCSLiZoZBOIodIptgaSiUACsUJkFETGVav4SIsHXl5csdoQRYoTAJogIsIoqimMHiJoKlnEqAFQqTICIaZLXJtIJFyyibYCmnEmCFwiSI+iBlWsAiZZTtJiGCpZxKgBUKk2AG61KkjIEQYJFyGoESYIWiCyPbBSFCIFwQvmLU7tJKgBWKLo5MF4QZoPvh6z0xarWeEmCFogtD1m+wCzCVUbZLwNdewbFjxwy5j0qAFYouTCDEzVfIBSG7kfD1ekbdRyXACkUXRrYAiwppsDcSSoAVim5OVxU3QqYFHEz3UQmwQtHFUQLcHF/9vwSVTwmwQtGNEREp+swpp5zCU8GLzJjAomKqBFihUPgEWXtGzWFtDZmWrCh0T0StYH9zEitIcM/SVigUGvX19VpgcF+ora1FWFgYTxmPSBnpM4SvnxOFppSR7PmyHJnef+DAAYSGhvIc/6AEWKFQKAKEckEoFApFgFACrFAoFAFCCbBCoVAECCXACoVCESCUACsUCkWAUAKsUCgUAUIJsEKhUAQIJcAKhUIRIJQAKxQKRYBQAqxQKBQBAfh/2/DKZmV5Q+MAAAAASUVORK5CYII=;" vertex="1" parent="1">
          <mxGeometry x="66" y="1238" width="352" height="257" as="geometry" />
        </mxCell>
        <mxCell id="gsk0wDziKHdw3YsIVp2X-110" value="" style="rounded=0;whiteSpace=wrap;html=1;" vertex="1" parent="1">
          <mxGeometry x="436" y="1286.5" width="120" height="160" as="geometry" />
        </mxCell>
        <mxCell id="gsk0wDziKHdw3YsIVp2X-111" value="" style="rounded=0;whiteSpace=wrap;html=1;" vertex="1" parent="1">
          <mxGeometry x="436" y="1286.5" width="120" height="20" as="geometry" />
        </mxCell>
        <mxCell id="gsk0wDziKHdw3YsIVp2X-112" value="&lt;b&gt;메모리&lt;/b&gt;" style="text;html=1;align=center;verticalAlign=middle;whiteSpace=wrap;rounded=0;" vertex="1" parent="1">
          <mxGeometry x="466" y="1246.5" width="60" height="30" as="geometry" />
        </mxCell>
        <mxCell id="gsk0wDziKHdw3YsIVp2X-113" value="&lt;span style=&quot;color: rgb(204, 0, 102);&quot;&gt;1101&lt;/span&gt;" style="rounded=0;whiteSpace=wrap;html=1;fillColor=#f8cecc;strokeColor=#b85450;" vertex="1" parent="1">
          <mxGeometry x="436" y="1306.5" width="120" height="20" as="geometry" />
        </mxCell>
        <mxCell id="gsk0wDziKHdw3YsIVp2X-114" value="1111" style="rounded=0;whiteSpace=wrap;html=1;fillColor=#f8cecc;strokeColor=#b85450;" vertex="1" parent="1">
          <mxGeometry x="436" y="1326.5" width="120" height="20" as="geometry" />
        </mxCell>
        <mxCell id="gsk0wDziKHdw3YsIVp2X-115" value="" style="rounded=0;whiteSpace=wrap;html=1;fillColor=#f8cecc;strokeColor=#b85450;" vertex="1" parent="1">
          <mxGeometry x="436" y="1346.5" width="120" height="20" as="geometry" />
        </mxCell>
        <mxCell id="gsk0wDziKHdw3YsIVp2X-116" value="" style="rounded=0;whiteSpace=wrap;html=1;fillColor=#f8cecc;strokeColor=#b85450;" vertex="1" parent="1">
          <mxGeometry x="436" y="1366.5" width="120" height="20" as="geometry" />
        </mxCell>
        <mxCell id="gsk0wDziKHdw3YsIVp2X-117" value="" style="rounded=0;whiteSpace=wrap;html=1;fillColor=#f8cecc;strokeColor=#b85450;" vertex="1" parent="1">
          <mxGeometry x="436" y="1386.5" width="120" height="20" as="geometry" />
        </mxCell>
        <mxCell id="gsk0wDziKHdw3YsIVp2X-118" value="1000" style="rounded=0;whiteSpace=wrap;html=1;fillColor=#f8cecc;strokeColor=#b85450;" vertex="1" parent="1">
          <mxGeometry x="436" y="1406.5" width="120" height="20" as="geometry" />
        </mxCell>
        <mxCell id="gsk0wDziKHdw3YsIVp2X-119" value="2000번지" style="text;html=1;align=center;verticalAlign=middle;whiteSpace=wrap;rounded=0;" vertex="1" parent="1">
          <mxGeometry x="566" y="1309" width="60" height="15" as="geometry" />
        </mxCell>
        <mxCell id="gsk0wDziKHdw3YsIVp2X-120" value="2001번지" style="text;html=1;align=center;verticalAlign=middle;whiteSpace=wrap;rounded=0;" vertex="1" parent="1">
          <mxGeometry x="566" y="1329" width="60" height="15" as="geometry" />
        </mxCell>
        <mxCell id="gsk0wDziKHdw3YsIVp2X-121" value="2500번지" style="text;html=1;align=center;verticalAlign=middle;whiteSpace=wrap;rounded=0;" vertex="1" parent="1">
          <mxGeometry x="566" y="1409" width="60" height="15" as="geometry" />
        </mxCell>
        <mxCell id="gsk0wDziKHdw3YsIVp2X-122" value="&lt;b&gt;&lt;font style=&quot;font-size: 30px;&quot;&gt;.....&lt;/font&gt;&lt;/b&gt;" style="text;html=1;align=center;verticalAlign=middle;whiteSpace=wrap;rounded=0;horizontal=0;" vertex="1" parent="1">
          <mxGeometry x="556" y="1351.5" width="60" height="50" as="geometry" />
        </mxCell>
        <mxCell id="gsk0wDziKHdw3YsIVp2X-123" value="&lt;font color=&quot;#cc0066&quot;&gt;2001&lt;/font&gt;" style="rounded=0;whiteSpace=wrap;html=1;fillColor=#f8cecc;strokeColor=none;" vertex="1" parent="1">
          <mxGeometry x="213.26" y="904" width="50" height="10" as="geometry" />
        </mxCell>
        <mxCell id="gsk0wDziKHdw3YsIVp2X-124" value="&lt;font&gt;2001&lt;/font&gt;" style="rounded=0;whiteSpace=wrap;html=1;strokeColor=none;fontColor=default;" vertex="1" parent="1">
          <mxGeometry x="196" y="1302" width="50" height="10" as="geometry" />
        </mxCell>
      </root>
    </mxGraphModel>
  </diagram>
</mxfile>
